<svg width="425" height="294" fill="none" xmlns="http://www.w3.org/2000/svg"><g style="mix-blend-mode:luminosity"><path d="M51.59 188.885l141.118-91.282 40.225 85.594c3.938 8.38 4.496 17.749-1.65 24.674-6.882 7.755-19.871 19.416-44.334 35.24-24.268 15.698-40.238 22.82-50.219 26.001-9.064 2.888-17.638-1.533-23.831-8.753l-61.31-71.474z" fill="url(#paint0_linear_4423_76909)"/><path d="M51.59 188.885l141.118-91.282 40.225 85.594c3.938 8.38 4.496 17.749-1.65 24.674-6.882 7.755-19.871 19.416-44.334 35.24-24.268 15.698-40.238 22.82-50.219 26.001-9.064 2.888-17.638-1.533-23.831-8.753l-61.31-71.474z" fill="url(#paint1_linear_4423_76909)"/><path d="M51.59 188.885l141.118-91.282 40.225 85.594c3.938 8.38 4.496 17.749-1.65 24.674-6.882 7.755-19.871 19.416-44.334 35.24-24.268 15.698-40.238 22.82-50.219 26.001-9.064 2.888-17.638-1.533-23.831-8.753l-61.31-71.474z" fill="url(#paint2_linear_4423_76909)"/><g opacity=".4" filter="url(#filter0_f_4423_76909)"><path d="M113.01 260.263l-61.2-71.346 140.837-91.1 40.154 85.442c3.925 8.352 4.464 17.651-1.627 24.515-6.871 7.741-19.849 19.395-44.305 35.214-24.261 15.694-40.219 22.809-50.184 25.984-8.985 2.864-17.502-1.512-23.675-8.709z" stroke="url(#paint3_linear_4423_76909)" stroke-width=".293"/></g><path opacity=".4" d="M117.414 262.668c5.185 2.196 10.888 2.656 16.75.553 10.379-3.724 26.098-11.187 49.004-26.004 23.135-14.965 36.363-26.281 43.914-34.19 4.175-4.373 6.014-9.611 6.119-15.076-1.075 3.29-2.923 6.418-5.689 9.238-8.118 8.276-22.265 20.186-46.869 36.101-24.361 15.758-41 23.816-51.951 27.911-3.883 1.451-7.671 1.872-11.278 1.467z" fill="url(#paint4_linear_4423_76909)"/><path d="M113.194 260.521c7.179 7.19 16.528 11.11 26.248 7.679 10.08-3.558 25.328-10.742 47.507-25.089 22.401-14.49 35.18-25.49 42.46-33.196 6.901-7.304 7.082-17.18 3.536-26.434.635 6.64-1.034 13.087-5.983 18.245-7.622 7.944-21.002 19.357-44.444 34.521-23.224 15.022-39.1 22.585-49.542 26.359-6.967 2.518-13.781 1.357-19.782-2.085z" fill="#0D1C32"/><path d="M58.363 173.553a26.355 26.355 0 018.02-8.137l101.781-65.838a26.36 26.36 0 0113.437-4.212l8.546-.284c3.888-.13 5.85 3.738 3.095 6.485-8.182 8.159-26.677 24.066-66.512 49.833-38.448 24.871-60.368 35.376-71.555 39.779-3.836 1.51-6.515-2.138-4.326-5.632l7.514-11.994z" fill="url(#paint5_linear_4423_76909)"/><path d="M58.363 173.553a26.355 26.355 0 018.02-8.137l101.781-65.838a26.36 26.36 0 0113.437-4.212l8.546-.284c3.888-.13 5.85 3.738 3.095 6.485-8.182 8.159-26.677 24.066-66.512 49.833-38.448 24.871-60.368 35.376-71.555 39.779-3.836 1.51-6.515-2.138-4.326-5.632l7.514-11.994z" fill="url(#paint6_linear_4423_76909)"/><g opacity=".4" filter="url(#filter1_f_4423_76909)"><path d="M66.463 165.539l101.781-65.838a26.21 26.21 0 0113.361-4.188l8.547-.285c1.893-.063 3.298.845 3.902 2.082.602 1.233.422 2.82-.915 4.153-8.172 8.149-26.659 24.051-66.488 49.815-38.444 24.867-60.355 35.366-71.53 39.765-1.865.734-3.42.209-4.252-.892-.833-1.104-.963-2.823.104-4.527l7.514-11.993a26.202 26.202 0 017.976-8.092z" stroke="url(#paint7_linear_4423_76909)" stroke-width=".293"/></g><ellipse cx="120.247" cy="140.304" rx="33.847" ry="9.337" transform="rotate(-32.897 120.247 140.304)" fill="#0D1D34"/><ellipse cx="118.663" cy="137.854" rx="28.869" ry="8.754" transform="rotate(-32.897 118.663 137.854)" fill="url(#paint8_linear_4423_76909)"/><path opacity=".1" d="M142.78 122.254c.618.955.584 2.304-.068 3.96-.649 1.652-1.901 3.578-3.659 5.655-3.515 4.154-9.03 8.888-15.716 13.212-6.685 4.324-13.264 7.414-18.493 8.917-2.616.751-4.886 1.103-6.66 1.018-1.776-.085-3.02-.606-3.639-1.562-.618-.955-.583-2.304.068-3.96.65-1.652 1.901-3.578 3.66-5.655 3.514-4.154 9.03-8.888 15.715-13.212 6.685-4.324 13.264-7.414 18.494-8.917 2.615-.751 4.885-1.103 6.658-1.018 1.778.085 3.022.606 3.64 1.562z" stroke="url(#paint9_linear_4423_76909)" stroke-width=".293"/><ellipse cx="116.761" cy="134.914" rx="28.869" ry="8.754" transform="rotate(-32.897 116.761 134.914)" fill="url(#paint10_linear_4423_76909)"/><path opacity=".1" d="M140.878 119.314c.619.956.584 2.304-.067 3.96-.65 1.652-1.902 3.578-3.66 5.655-3.514 4.154-9.03 8.888-15.715 13.212-6.685 4.324-13.264 7.414-18.494 8.917-2.616.751-4.886 1.103-6.659 1.018-1.777-.085-3.021-.606-3.64-1.562-.618-.955-.583-2.304.068-3.96.65-1.651 1.902-3.578 3.66-5.655 3.514-4.154 9.03-8.888 15.715-13.212 6.685-4.324 13.264-7.414 18.494-8.917 2.616-.751 4.886-1.103 6.659-1.018 1.777.085 3.021.606 3.639 1.562z" stroke="url(#paint11_linear_4423_76909)" stroke-width=".293"/><ellipse cx="114.859" cy="131.974" rx="28.869" ry="8.754" transform="rotate(-32.897 114.859 131.974)" fill="url(#paint12_linear_4423_76909)"/><path opacity=".1" d="M138.977 116.374c.618.956.583 2.304-.068 3.96-.65 1.652-1.901 3.578-3.659 5.655-3.515 4.154-9.031 8.888-15.716 13.212-6.685 4.324-13.264 7.414-18.494 8.917-2.616.751-4.885 1.103-6.658 1.018-1.778-.085-3.022-.606-3.64-1.561-.618-.956-.584-2.305.068-3.96.65-1.652 1.9-3.578 3.659-5.656 3.515-4.154 9.03-8.888 15.716-13.212 6.685-4.324 13.264-7.414 18.493-8.917 2.616-.751 4.886-1.103 6.659-1.018 1.777.085 3.021.606 3.64 1.562z" stroke="url(#paint13_linear_4423_76909)" stroke-width=".293"/><ellipse cx="112.958" cy="129.034" rx="28.869" ry="8.754" transform="rotate(-32.897 112.958 129.034)" fill="url(#paint14_linear_4423_76909)"/><path opacity=".1" d="M137.075 113.434c.618.956.583 2.304-.068 3.96-.649 1.652-1.901 3.578-3.659 5.655-3.515 4.154-9.031 8.888-15.716 13.212-6.685 4.324-13.264 7.414-18.494 8.917-2.615.751-4.885 1.103-6.658 1.018-1.778-.085-3.022-.606-3.64-1.562-.618-.955-.583-2.304.068-3.96.65-1.651 1.901-3.578 3.66-5.655 3.514-4.154 9.03-8.888 15.715-13.212 6.685-4.324 13.264-7.414 18.494-8.917 2.615-.751 4.885-1.103 6.658-1.018 1.778.085 3.022.606 3.64 1.562z" stroke="url(#paint15_linear_4423_76909)" stroke-width=".293"/><ellipse cx="111.056" cy="126.094" rx="28.869" ry="8.754" transform="rotate(-32.897 111.056 126.094)" fill="url(#paint16_linear_4423_76909)"/><rect x="15.053" y="70.081" width="101.541" height="103.257" rx="21.475" transform="rotate(-32.897 15.053 70.08)" fill="#11253F"/><rect x="15.053" y="70.081" width="101.541" height="103.257" rx="21.475" transform="rotate(-32.897 15.053 70.08)" fill="url(#paint17_linear_4423_76909)"/><rect x="15.053" y="70.081" width="101.541" height="103.257" rx="21.475" transform="rotate(-32.897 15.053 70.08)" fill="url(#paint18_linear_4423_76909)"/><g filter="url(#filter2_f_4423_76909)"><path d="M29.415 79.39c-7.32-11.317-4.08-26.425 7.236-33.745L69.17 24.61c11.317-7.32 26.425-4.08 33.745 7.236l30.17 46.642c7.32 11.316 4.081 26.424-7.236 33.744L93.33 133.267c-11.317 7.32-26.425 4.08-33.745-7.236l-30.17-46.642z" fill="url(#paint19_linear_4423_76909)"/></g><g opacity=".7" filter="url(#filter3_f_4423_76909)"><path d="M30.054 91.123l-.001-15.045 13.166-3.283 62.959 25.342-18.32 27.55-12.484 17.232-12.506-1.068-32.814-50.728z" fill="#08111E"/></g><path d="M38.908 70.483c-7.173-.121-9.846-9.464-3.822-13.36l47.195-30.528c9.958-6.442 23.253-3.591 29.695 6.367l19.885 30.741c7.116 11-4.573 24.466-16.465 18.966l-20.898-9.665a18.545 18.545 0 00-7.473-1.71l-48.117-.811z" fill="url(#paint20_linear_4423_76909)"/><path d="M53.814 84.53l43.693-28.416a6.212 6.212 0 018.595 1.821 6.212 6.212 0 01-1.821 8.596L82.014 81.013 60.589 94.947a6.213 6.213 0 11-6.775-10.417z" stroke="url(#paint21_linear_4423_76909)" stroke-width="1.952"/><path d="M34.752 88.13c-3.019-5.712-1.543-12.095 3.59-16.017 5.153-3.936 13.455-9.856 26.609-18.364 12.355-7.992 20.871-13.016 26.585-16.154 6.245-3.428 13.449-1.866 17.817 3.761 3.533 4.552 8.245 11.05 13.973 19.905 7.894 12.202 12.494 20.81 14.96 25.872 1.706 3.5 1.843 7.486-.411 10.66-3.566 5.024-11.437 13.485-28.551 24.555-18.093 11.704-29.292 15.181-35.092 16.153-3.216.54-6.223-.843-8.347-3.317-3.273-3.81-9.058-11.26-18.018-25.112-6.433-9.946-10.528-17.046-13.115-21.942z" fill="#1D314B"/><g opacity=".6" filter="url(#filter4_f_4423_76909)"><rect x="22.28" y="73.718" width="93.35" height="91.016" rx="18.547" transform="rotate(-32.897 22.28 73.718)" stroke="#0C1929" stroke-width="5.857"/></g><path d="M34.752 88.13c-3.019-5.712-1.543-12.095 3.59-16.017 5.153-3.936 13.455-9.856 26.609-18.364 12.355-7.992 20.871-13.016 26.585-16.154 6.245-3.428 13.449-1.866 17.817 3.761 3.533 4.552 8.245 11.05 13.973 19.905 7.894 12.202 12.494 20.81 14.96 25.872 1.706 3.5 1.843 7.486-.411 10.66-3.566 5.024-11.437 13.485-28.551 24.555-18.093 11.704-29.292 15.181-35.092 16.153-3.216.54-6.223-.843-8.347-3.317-3.273-3.81-9.058-11.26-18.018-25.112-6.433-9.946-10.528-17.046-13.115-21.942z" fill="url(#paint22_radial_4423_76909)"/><path d="M34.752 88.13c-3.019-5.712-1.543-12.095 3.59-16.017 5.153-3.936 13.455-9.856 26.609-18.364 12.355-7.992 20.871-13.016 26.585-16.154 6.245-3.428 13.449-1.866 17.817 3.761 3.533 4.552 8.245 11.05 13.973 19.905 7.894 12.202 12.494 20.81 14.96 25.872 1.706 3.5 1.843 7.486-.411 10.66-3.566 5.024-11.437 13.485-28.551 24.555-18.093 11.704-29.292 15.181-35.092 16.153-3.216.54-6.223-.843-8.347-3.317-3.273-3.81-9.058-11.26-18.018-25.112-6.433-9.946-10.528-17.046-13.115-21.942z" fill="url(#paint23_linear_4423_76909)"/><g filter="url(#filter5_f_4423_76909)"><path d="M37.617 72.856c5.072-3.921 13.544-10.013 27.413-18.984 13.105-8.477 21.89-13.614 27.59-16.7 5.573-3.019 11.987-1.62 15.907 3.365 3.598 4.576 8.557 11.343 14.676 20.804 6.039 9.335 10.149 16.564 12.85 21.71 3.003 5.722 1.595 12.303-3.542 16.22-5.195 3.962-13.461 9.854-26.348 18.19-13.64 8.823-22.66 14.047-28.37 17.099-5.172 2.765-11.05 1.617-14.679-2.986-3.426-4.345-8.372-11.145-15.124-21.582-6.843-10.578-11.037-17.934-13.586-22.841-2.647-5.096-1.332-10.781 3.213-14.295z" stroke="url(#paint24_linear_4423_76909)" stroke-width=".293"/></g><g opacity=".2" filter="url(#filter6_f_4423_76909)"><path d="M43.09 73.577l46.95-30.37c5.658-3.66 13.212-2.04 16.872 3.618l24.665 38.13c3.66 5.659 2.04 13.213-3.618 16.873l-46.95 30.37c-5.659 3.66-13.213 2.04-16.873-3.618L39.471 90.45c-3.66-5.66-2.04-13.213 3.618-16.873z" stroke="#000" stroke-width="4.881"/></g><path d="M42.756 91.14c-4.1-6.338-2.285-14.798 4.052-18.898l42.449-27.458c6.337-4.099 14.797-2.285 18.897 4.053l23.008 35.57c2.869 4.435 2.746 10.033-1.08 13.674-4.465 4.249-12.043 10.522-24.455 18.551-12.413 8.029-21.241 12.369-26.947 14.699-4.89 1.997-10.047-.187-12.915-4.622l-23.01-35.57z" fill="#0D1929"/><g filter="url(#filter7_d_4423_76909)"><path d="M55.181 86.653l43.693-28.416a7.189 7.189 0 017.839 12.053L84.446 84.772 63.02 98.706a7.19 7.19 0 01-7.839-12.053z" fill="#D9F7FF"/></g><g filter="url(#filter8_d_4423_76909)"><path d="M111.62 101.032c-1.625 1.602-4.002 2.285-6.524 1.874-1.078-.175-1.966-1.18-1.982-2.244-.017-1.063.844-1.783 1.923-1.608 1.392.227 2.704-.15 3.599-1.032.896-.883 1.289-2.187 1.077-3.578-.164-1.078.568-1.928 1.634-1.9 1.066.029 2.063.926 2.227 2.003.383 2.52-.329 4.883-1.954 6.485z" fill="#D6E9FF"/></g><rect x="74.382" y="39.309" width="16.34" height="3.501" rx="1.751" transform="rotate(-32.897 74.382 39.309)" fill="#0D1929"/><rect x="74.499" y="39.334" width="16.17" height="3.332" rx="1.666" transform="rotate(-32.897 74.5 39.334)" stroke="url(#paint25_linear_4423_76909)" stroke-opacity=".8" stroke-width=".17"/><path fill-rule="evenodd" clip-rule="evenodd" d="M75.751 41.23c.57.426 1.368.477 2.001.068l10.78-6.973a1.751 1.751 0 00.758-1.852 1.743 1.743 0 01-.636.73l-11.973 7.745c-.288.187-.61.278-.93.281z" fill="#292C30"/><g filter="url(#filter9_d_4423_76909)"><rect x="34.2" y="65.3" width="4.669" height="4.669" rx="2.334" transform="rotate(-32.897 34.2 65.3)" fill="#D9F8FF"/></g><path fill-rule="evenodd" clip-rule="evenodd" d="M118.621 80.676c-9.878 6.39-22.666 4.177-28.564-4.94-5.898-9.118-2.672-21.69 7.206-28.079 9.877-6.39 22.666-4.177 28.564 4.94 5.898 9.118 2.671 21.69-7.206 28.079zM68.679 112.98c-9.877 6.389-22.666 4.177-28.564-4.941-5.897-9.118-2.672-21.689 7.206-28.078 9.878-6.39 22.666-4.178 28.564 4.94s2.672 21.689-7.206 28.079zm51.614-71.168c-2.522-.625-6.693-.851-9.154-.931a24.578 24.578 0 00-1.943-.045l-.043-.001.002.002c-4.602.096-9.321 1.467-13.575 4.218-5.73 3.707-9.525 9.21-11.028 15.107-.802 2.74-1.258 5.465-1.789 8.19-.672 3.454-2.56 3.194-4.609 4.52-2.049 1.324-2.586 3.153-6.011 2.35-2.704-.633-5.377-1.334-8.204-1.726-5.995-1.047-12.633.198-18.363 3.905-4.254 2.751-7.692 6.657-9.477 10.692l-.001-.002h.045c-.279.59-.497 1.167-.726 1.772-.937 2.277-2.514 6.22-2.978 8.778-.69 3.8-5.44 7.096-5.44 7.096l3.16 4.886s2.802-2.036 4.404-1.619c.945.246 3.427 2.769 6.373 5.184 1 .892 2.1 1.664 3.238 2.35 1.102.7 2.234 1.277 3.334 1.64l.003-.009c7.053 2.781 15.623 2.086 22.848-2.587 8.388-5.427 12.626-14.705 11.596-23.43l.005-.029v-.105c-.02-3.289-2.648-10.634-2.628-12.085.02-1.466 1.676-2.65 1.676-2.65s1.759-1.025 3.104-.442c1.332.577 6.953 5.986 9.945 7.353l.096.042.027.009c7.536 4.517 17.734 4.456 26.123-.97 7.224-4.673 11.37-12.203 11.724-19.776l.005.004c.121-1.152.047-2.414-.14-3.705a21.466 21.466 0 00-.837-3.904c-.994-3.677-2.328-6.943-2.165-7.906.276-1.632 3.188-3.292 3.188-3.292l-3.16-4.886s-4.875 2.93-8.625 2.002z" fill="url(#paint26_linear_4423_76909)"/><circle opacity=".2" cx="56.906" cy="97.179" r="22.759" transform="rotate(-32.897 56.906 97.179)" fill="url(#paint27_radial_4423_76909)"/><path opacity=".2" d="M68.033 77.32a22.698 22.698 0 00-7.983 3.23c-10.554 6.827-13.575 20.917-6.748 31.471a22.662 22.662 0 007.983 7.498c-8.86 1.734-18.285-1.934-23.488-9.979-6.827-10.554-3.806-24.644 6.748-31.471 7.33-4.741 16.364-4.732 23.488-.75z" fill="url(#paint28_radial_4423_76909)"/><circle opacity=".2" cx="108.847" cy="63.581" r="22.759" transform="rotate(-32.897 108.847 63.58)" fill="url(#paint29_radial_4423_76909)"/><path opacity=".2" d="M119.973 43.721a22.705 22.705 0 00-7.983 3.23c-10.554 6.828-13.575 20.918-6.748 31.472a22.666 22.666 0 007.983 7.498c-8.861 1.734-18.284-1.934-23.488-9.98-6.827-10.553-3.806-24.643 6.749-31.47 7.329-4.741 16.364-4.732 23.487-.75z" fill="url(#paint30_radial_4423_76909)"/><path fill-rule="evenodd" clip-rule="evenodd" d="M120.701 82.299c-10.227 6.615-23.842 3.745-30.412-6.41-6.568-10.155-3.603-23.75 6.623-30.366 10.227-6.615 23.843-3.745 30.412 6.41 6.569 10.155 3.604 23.75-6.623 30.366zm-51.707 33.447c-10.227 6.615-23.842 3.745-30.411-6.411-6.569-10.155-3.604-23.75 6.623-30.365 10.227-6.616 23.842-3.745 30.411 6.41 6.57 10.155 3.605 23.75-6.623 30.366zm52.087-75.773c-2.692-.771-7.115-1.168-9.722-1.343a25.494 25.494 0 00-2.059-.119l-.045-.002.002.002a25.532 25.532 0 00-14.218 4.116 25.538 25.538 0 00-11.133 16.081c-.75 2.959-1.136 5.915-1.6 8.869-.589 3.742-2.596 3.391-4.718 4.763-2.12 1.372-2.624 3.347-6.278 2.35-2.885-.788-5.74-1.648-8.746-2.177-6.382-1.356-13.364-.235-19.297 3.603-4.404 2.848-7.903 6.985-9.649 11.322l-.001-.002h.047c-.273.634-.484 1.256-.705 1.907-.91 2.45-2.437 6.696-2.838 9.468-.382 2.647-2.546 5.008-4.043 6.357-.782.703-1.008 1.887-.437 2.77l1.372 2.121c.61.943 1.891 1.172 2.903.684.914-.44 2.005-.799 2.824-.554 1.01.302 3.726 3.143 6.932 5.882 1.09 1.009 2.283 1.89 3.511 2.679 1.191.803 2.41 1.473 3.587 1.908l.003-.01a25.55 25.55 0 0024.092-2.005 25.538 25.538 0 0011.437-25.138l.003-.031-.003-.115c-.139-3.588-3.184-11.692-3.214-13.274-.032-1.599 1.68-2.83 1.68-2.83s1.824-1.056 3.27-.372c1.43.677 7.572 6.777 10.788 8.375l.103.05.03.01a25.535 25.535 0 0027.615-.123 25.543 25.543 0 0011.703-21.15l.005.005c.087-1.252-.036-2.63-.28-4.046a25.048 25.048 0 00-1.026-4.288c-1.184-4.045-2.713-7.655-2.575-8.7.11-.829.832-1.644 1.569-2.277.853-.732 1.173-1.996.562-2.94l-1.37-2.118c-.571-.883-1.743-1.163-2.706-.742-1.824.795-4.815 1.768-7.375 1.034z" fill="#2E435E"/><path fill-rule="evenodd" clip-rule="evenodd" d="M120.701 82.299c-10.227 6.615-23.842 3.745-30.412-6.41-6.568-10.155-3.603-23.75 6.623-30.366 10.227-6.615 23.843-3.745 30.412 6.41 6.569 10.155 3.604 23.75-6.623 30.366zm-51.707 33.447c-10.227 6.615-23.842 3.745-30.411-6.411-6.569-10.155-3.604-23.75 6.623-30.365 10.227-6.616 23.842-3.745 30.411 6.41 6.57 10.155 3.605 23.75-6.623 30.366zm52.087-75.773c-2.692-.771-7.115-1.168-9.722-1.343a25.494 25.494 0 00-2.059-.119l-.045-.002.002.002a25.532 25.532 0 00-14.218 4.116 25.538 25.538 0 00-11.133 16.081c-.75 2.959-1.136 5.915-1.6 8.869-.589 3.742-2.596 3.391-4.718 4.763-2.12 1.372-2.624 3.347-6.278 2.35-2.885-.788-5.74-1.648-8.746-2.177-6.382-1.356-13.364-.235-19.297 3.603-4.404 2.848-7.903 6.985-9.649 11.322l-.001-.002h.047c-.273.634-.484 1.256-.705 1.907-.91 2.45-2.437 6.696-2.838 9.468-.382 2.647-2.546 5.008-4.043 6.357-.782.703-1.008 1.887-.437 2.77l1.372 2.121c.61.943 1.891 1.172 2.903.684.914-.44 2.005-.799 2.824-.554 1.01.302 3.726 3.143 6.932 5.882 1.09 1.009 2.283 1.89 3.511 2.679 1.191.803 2.41 1.473 3.587 1.908l.003-.01a25.55 25.55 0 0024.092-2.005 25.538 25.538 0 0011.437-25.138l.003-.031-.003-.115c-.139-3.588-3.184-11.692-3.214-13.274-.032-1.599 1.68-2.83 1.68-2.83s1.824-1.056 3.27-.372c1.43.677 7.572 6.777 10.788 8.375l.103.05.03.01a25.535 25.535 0 0027.615-.123 25.543 25.543 0 0011.703-21.15l.005.005c.087-1.252-.036-2.63-.28-4.046a25.048 25.048 0 00-1.026-4.288c-1.184-4.045-2.713-7.655-2.575-8.7.11-.829.832-1.644 1.569-2.277.853-.732 1.173-1.996.562-2.94l-1.37-2.118c-.571-.883-1.743-1.163-2.706-.742-1.824.795-4.815 1.768-7.375 1.034z" fill="url(#paint31_linear_4423_76909)"/><rect x="126.23" y="222.616" width="78.198" height="7.003" rx="3.501" transform="rotate(-32.897 126.23 222.616)" fill="#0F1010"/><rect x="126.23" y="222.616" width="78.198" height="7.003" rx="3.501" transform="rotate(-32.897 126.23 222.616)" fill="#08111E"/><rect x="126.347" y="222.641" width="78.028" height="6.833" rx="3.417" transform="rotate(-32.897 126.347 222.641)" stroke="url(#paint32_linear_4423_76909)" stroke-opacity=".3" stroke-width=".17"/><path d="M129.475 226.77a3.5 3.5 0 003.498-.177l59.779-38.668a3.502 3.502 0 001.596-3.118l-64.873 41.963z" fill="#0D1D33"/><rect x="119.891" y="212.816" width="78.198" height="7.003" rx="3.501" transform="rotate(-32.897 119.891 212.816)" fill="#0F1010"/><rect x="119.891" y="212.816" width="78.198" height="7.003" rx="3.501" transform="rotate(-32.897 119.891 212.816)" fill="#08111E"/><rect x="120.008" y="212.841" width="78.028" height="6.833" rx="3.417" transform="rotate(-32.897 120.008 212.841)" stroke="url(#paint33_linear_4423_76909)" stroke-opacity=".3" stroke-width=".17"/><path fill-rule="evenodd" clip-rule="evenodd" d="M123.136 216.97a3.499 3.499 0 003.497-.177l59.78-38.668a3.5 3.5 0 001.595-3.118l-64.872 41.963z" fill="#0D1D33"/><rect x="113.551" y="203.016" width="78.198" height="7.003" rx="3.501" transform="rotate(-32.897 113.551 203.016)" fill="#0F1010"/><rect x="113.551" y="203.016" width="78.198" height="7.003" rx="3.501" transform="rotate(-32.897 113.551 203.016)" fill="#08111E"/><rect x="113.669" y="203.041" width="78.028" height="6.833" rx="3.417" transform="rotate(-32.897 113.669 203.041)" stroke="url(#paint34_linear_4423_76909)" stroke-opacity=".3" stroke-width=".17"/><path d="M116.797 207.17a3.499 3.499 0 003.497-.177l59.779-38.668a3.5 3.5 0 001.596-3.118l-64.872 41.963z" fill="#0D1D33"/><g filter="url(#filter10_d_4423_76909)"><rect x="116.78" y="203.707" width="58.357" height="2.334" rx="1.167" transform="rotate(-32.897 116.78 203.707)" fill="#CDF4FF"/></g><rect x="107.212" y="193.216" width="78.198" height="7.003" rx="3.501" transform="rotate(-32.897 107.212 193.216)" fill="#0F1010"/><rect x="107.212" y="193.216" width="78.198" height="7.003" rx="3.501" transform="rotate(-32.897 107.212 193.216)" fill="#08111E"/><rect x="107.33" y="193.241" width="78.028" height="6.833" rx="3.417" transform="rotate(-32.897 107.33 193.241)" stroke="url(#paint35_linear_4423_76909)" stroke-opacity=".3" stroke-width=".17"/><path d="M110.458 197.37a3.499 3.499 0 003.497-.177l59.78-38.668a3.5 3.5 0 001.595-3.118l-64.872 41.963z" fill="#0D1D33"/><g filter="url(#filter11_f_4423_76909)"><ellipse cx="296.348" cy="263.577" rx="74.816" ry="3.998" fill="#07111F"/></g><g filter="url(#filter12_d_4423_76909)"><path d="M352.125 105.178c-.235.462-.274.958-.115 1.485l1.188 3.962c.158.528.458.905.899 1.13.441.224.922.244 1.442.061L391.9 99.022c.52-.183.898-.506 1.133-.968.235-.462.273-.958.115-1.486l-11.072-36.92c-.158-.53-.458-.905-.9-1.13-.441-.224-.922-.245-1.442-.062l-3.901 1.372c-.52.182-.898.505-1.133.968-.235.462-.273.958-.115 1.485l9.338 31.14-30.665 10.789c-.521.182-.898.505-1.133.968z" fill="#000"/></g><path d="M352.125 105.178c-.235.462-.274.958-.115 1.485l1.188 3.962c.158.528.458.905.899 1.13.441.224.922.244 1.442.061L391.9 99.022c.52-.183.898-.506 1.133-.968.235-.462.273-.958.115-1.486l-11.072-36.92c-.158-.53-.458-.905-.9-1.13-.441-.224-.922-.245-1.442-.062l-3.901 1.372c-.52.182-.898.505-1.133.968-.235.462-.273.958-.115 1.485l9.338 31.14-30.665 10.789c-.521.182-.898.505-1.133.968z" fill="url(#paint36_linear_4423_76909)"/><g filter="url(#filter13_d_4423_76909)"><path d="M331.312 37.77c.235-.462.273-.958.115-1.486l-1.188-3.961c-.159-.529-.458-.905-.899-1.13-.441-.224-.923-.244-1.443-.061l-36.36 12.794c-.521.182-.898.505-1.133.968-.235.462-.274.958-.115 1.485l11.072 36.922c.158.528.458.903.899 1.128.442.225.922.245 1.442.063l3.901-1.372c.52-.183.899-.505 1.134-.968.235-.462.273-.958.114-1.486l-9.337-31.138 30.665-10.79c.52-.182.898-.505 1.133-.968z" fill="#000"/></g><path d="M331.312 37.77c.235-.462.273-.958.115-1.486l-1.188-3.961c-.159-.529-.458-.905-.899-1.13-.441-.224-.923-.244-1.443-.061l-36.36 12.794c-.521.182-.898.505-1.133.968-.235.462-.274.958-.115 1.485l11.072 36.922c.158.528.458.903.899 1.128.442.225.922.245 1.442.063l3.901-1.372c.52-.183.899-.505 1.134-.968.235-.462.273-.958.114-1.486l-9.337-31.138 30.665-10.79c.52-.182.898-.505 1.133-.968z" fill="url(#paint37_linear_4423_76909)"/><path d="M259.643 229.512l10.571-6.593 6.457 6.686-5.311 5.969-1.886 14.235c-1.182-.082-3.893-.316-5.286-.597-1.393-.281-4.972-2.79-6.587-4.01-2.618.029-4.971-1.024-5.826-1.558l-4.584-4.849c1.512-.776 2.415-2.329 2.677-3.008-1.397-1.585-5.257-.086-7.013.862l-4.88-6.054 17.986-5.984 3.682 4.901z" fill="url(#paint38_linear_4423_76909)"/><path d="M259.643 229.512l10.571-6.593 6.457 6.686-5.311 5.969-1.886 14.235c-1.182-.082-3.893-.316-5.286-.597-1.393-.281-4.972-2.79-6.587-4.01-2.618.029-4.971-1.024-5.826-1.558l-4.584-4.849c1.512-.776 2.415-2.329 2.677-3.008-1.397-1.585-5.257-.086-7.013.862l-4.88-6.054 17.986-5.984 3.682 4.901z" fill="url(#paint39_linear_4423_76909)"/><path d="M259.643 229.512l10.571-6.593 6.457 6.686-5.311 5.969-1.886 14.235c-1.182-.082-3.893-.316-5.286-.597-1.393-.281-4.972-2.79-6.587-4.01-2.618.029-4.971-1.024-5.826-1.558l-4.584-4.849c1.512-.776 2.415-2.329 2.677-3.008-1.397-1.585-5.257-.086-7.013.862l-4.88-6.054 17.986-5.984 3.682 4.901z" fill="url(#paint40_linear_4423_76909)"/><path opacity=".1" d="M264.688 238.984l-9.199-5.618-7.986 5.467 8.437-7.632 8.748 7.783z" fill="#43608B"/><path d="M270.214 222.919l-10.571 6.593-3.682-4.901-17.986 5.984 1.164 1.444 16.021-5.331 3.682 4.901 1.261-.727 5.373 5.341-4.372-6.024 8.309-5.183 5.903 6.112 1.355-1.523-6.457-6.686zm.96 14.062l-.615.69-1.602 12.1c.193.015.367.028.517.038l1.7-12.828z" opacity=".2" fill="#43608B"/><path d="M328.381 255.48c1.544-4.535.279-13.94-.547-18.076 4.261-2.521 12.877-6.303 13.257-1.264.379 5.039 3.399 11.103 4.862 13.506l5.803-1.344 10.769 14.863-6.405 2.117c-.941-.09-3.174-.21-4.571.026-1.397.237-7.619.459-10.555.541l-2.901-2.12-11.623-1.188c-1.564-2.596-.019-1.393 1.911-7.061z" fill="url(#paint41_linear_4423_76909)"/><path d="M328.381 255.48c1.544-4.535.279-13.94-.547-18.076 4.261-2.521 12.877-6.303 13.257-1.264.379 5.039 3.399 11.103 4.862 13.506l5.803-1.344 10.769 14.863-6.405 2.117c-.941-.09-3.174-.21-4.571.026-1.397.237-7.619.459-10.555.541l-2.901-2.12-11.623-1.188c-1.564-2.596-.019-1.393 1.911-7.061z" fill="url(#paint42_linear_4423_76909)"/><path opacity=".2" d="M328.158 239.183c4.448-2.482 12.129-5.574 12.488-.822.266 3.529 2.544 8.63 3.958 11.555.08.166-.642.439-1.734.783l-8.344 3.77c-.081.19 2.389-.481 5.007-1.193 2.844-.774 5.862-1.595 5.975-1.409l5.803-1.344 9.556 13.19 1.658-.548-10.769-14.863-5.803 1.344c-1.463-2.403-4.482-8.467-4.862-13.506-.38-5.039-8.996-1.257-13.257 1.264.104.517.214 1.117.324 1.779z" fill="#43608B"/><path opacity=".2" d="M334.412 257.209l13.231-1.268 3.477 9.033-2.621-11.071-14.087 3.306z" fill="#43608B"/><path d="M367.701 91.47s14.332 10.26 26.656 21.264c2.261 1.525 7.655 4.79 11.14 5.651 4.357 1.076-16.963 3.331-18.865 2.47-1.903-.862 5.741 3.015 8.558 8.088-.87-.727-3.127-2.324-5.197-2.896-2.588-.716 7.928 15.781 10.192 23.712-2.483-4.248-7.732-12.906-8.862-13.554 3.852 8.656 11.253 29.243 10.046 42.337-.989-4.391-3.626-13.612-6.263-15.37 1.124 7.778 2.434 25.959-1.327 36.457-.218-2.537-1.403-7.996-4.402-9.535.964 4.078 1.818 15.024-2.476 26.189.647-3.552 1.763-10.868 1.052-11.72-1.392 6.607-5.122 20.759-8.907 24.507 1.476-3.411 4.131-10.566 2.938-11.895-1.81 5.686-8.164 18.83-19.099 25.921 2.413-3.205 7.256-11.649 7.319-19.783-1.86 4.558-8.785 15.498-21.596 22.795l6.676-6.714c-2.281 1.642-7.369 4.901-9.474 4.806-2.106-.094-4.524 1.797-5.47 2.755l2.317-3.533c-.852.473-2.962.91-4.586-1.133-2.03-2.554-3.42-.313-4.258.925-.67.99-2.41-1.837-3.196-3.375l1.856-1.974c-2.669 1.368-9.394 3.868-14.939 2.924.936-.098 2.97-.635 3.61-1.997.801-1.703-14.189 2.349-18.183 1.59-3.994-.758-9.579-7.08-12.803-7.572-3.223-.492-4.995-.093-8.097-2-3.102-1.907-6.502-7.84-9.141-3.93-2.11 3.127 1.779 8.599 3.987 10.944-4.053-2.877-12.2-9.643-12.354-13.696l-2.755-5.47-.256 4.118c-.907-1.972-2.934-6.715-3.788-9.906-1.126-3.852-4.024-11.654-6.603-12.047-2.579-.394-4.772 9.059-5.547 13.835-4.02-5.783-10.689-23.761-5.204-49.411-2.14 3.019-5.954 14.252-4.091 35.026-3.894-7.627-8.586-26.86 3.8-42.777-1.235-.026-4.069.653-5.521 3.578 1.446-9.856 7.913-31.725 22.21-40.358-.773-1.078-4.82-.187-14.825 12 2.36-5.246 10.113-16.996 22.243-22.028-2.732.288-9.167 1.719-13.053 5.139 2.066-5.902 8.948-17.572 19.948-17.045 4.926-1.064 13.792-3.572 9.849-5.093-4.928-1.902-8.684-.853-19.883-10.918 6.161 1.015 21.391 1.984 33.022-2.259 2.635-.92 9.062-2.46 13.691-1.256-1.286-.95-5.396-2.716-11.553-2.17 1.991-1.04 7.685-2.418 14.63.319-1.859-.757-5.736-2.819-7.699-5.6 3.208 1.273 10.479 3.744 13.901 3.433.212-.961-.28-1.68-2.361-3.107 2.484.614 23.026 1.345 35.627 8.025 8.541 4.528 17.366 11.315 17.366 11.315z" fill="url(#paint43_radial_4423_76909)"/><path d="M369.789 95.462c3.054 1.172 12.242 6.268 24.566 17.272 2.261 1.525 7.655 4.79 11.14 5.651 4.357 1.076-16.962 3.331-18.865 2.47-1.903-.862 5.741 3.015 8.558 8.088-.87-.727-3.127-2.324-5.197-2.897-2.588-.716 7.928 15.782 10.192 23.713-2.483-4.248-7.732-12.907-8.862-13.554 3.852 8.656 11.253 29.242 10.046 42.337-.989-4.391-3.626-13.613-6.263-15.37 1.124 7.778 2.434 25.959-1.326 36.457-.219-2.537-1.404-7.996-4.403-9.535.964 4.078 1.818 15.024-2.476 26.189.647-3.552 1.763-10.868 1.052-11.72-1.392 6.607-5.122 20.758-8.907 24.507 1.476-3.412 4.131-10.566 2.938-11.895-1.81 5.686-8.164 18.83-19.099 25.921 2.413-3.205 7.256-11.649 7.32-19.783-1.861 4.558-8.786 15.498-21.597 22.795l6.676-6.714c-2.281 1.641-7.369 4.901-9.474 4.806-2.106-.094-4.524 1.797-5.47 2.755l2.317-3.533c-.852.473-2.962.91-4.586-1.133-2.03-2.554-3.42-.313-4.258.925-.67.99-2.41-1.837-3.196-3.375l1.856-1.974c-2.669 1.368-9.394 3.868-14.939 2.924.937-.098 2.97-.635 3.61-1.997.801-1.703-14.189 2.349-18.183 1.59-3.994-.758-9.579-7.08-12.803-7.572-3.223-.492-4.994-.093-8.097-2-3.102-1.907-6.502-7.84-9.14-3.931-2.111 3.128 1.778 8.6 3.986 10.945-4.053-2.877-12.2-9.643-12.354-13.696l-2.754-5.47-.257 4.118c-.907-1.972-2.934-6.715-3.788-9.907-1.126-3.851-4.024-11.653-6.603-12.047-2.579-.393-4.772 9.06-5.547 13.836-4.02-5.783-10.689-23.761-5.204-49.411-2.14 3.019-5.954 14.252-4.091 35.026-3.894-7.627-8.586-26.86 3.8-42.777-1.235-.026-4.069.653-5.521 3.578 1.446-9.856 7.913-31.725 22.21-40.358-.773-1.078-4.82-.187-14.825 11.999 2.36-5.245 10.113-16.995 22.243-22.027-2.732.288-9.167 1.719-13.053 5.139 2.066-5.902 8.948-17.573 19.948-17.045 4.926-1.064 13.792-3.572 9.849-5.094-4.928-1.901-8.684-.852-19.883-10.917 6.161 1.015 21.391 1.984 33.022-2.26 2.635-.92 9.062-2.46 13.691-1.255-1.286-.95-5.396-2.716-11.553-2.17 1.992-1.04 7.685-2.418 14.63.319-1.859-.757-5.736-2.819-7.699-5.6 3.208 1.273 10.479 3.743 13.901 3.433.212-.961.117-3.24-1.964-4.667 2.484.614 7.465 2.529 12.048 2.977 30.287 2.958 39.103 20.136 42.638 21.914z" fill="url(#paint44_radial_4423_76909)"/><path d="M355.088 82.881c3.053 1.172 26.943 18.849 39.267 29.853 2.262 1.525 7.655 4.79 11.14 5.651 4.357 1.076-16.962 3.331-18.865 2.47-1.902-.862 5.742 3.015 8.558 8.088-.869-.727-3.127-2.324-5.197-2.896-2.588-.716 7.928 15.781 10.192 23.712-2.483-4.248-7.732-12.906-8.862-13.554 3.852 8.656 11.253 29.243 10.046 42.337-.989-4.391-3.626-13.612-6.263-15.37 1.125 7.778 2.434 25.959-1.326 36.457-.218-2.537-1.404-7.996-4.403-9.535.964 4.078 1.818 15.024-2.476 26.189.647-3.551 1.763-10.868 1.052-11.72-1.392 6.608-5.122 20.759-8.907 24.507 1.476-3.411 4.131-10.566 2.938-11.895-1.81 5.686-8.163 18.831-19.099 25.922 2.413-3.206 7.257-11.65 7.32-19.784-1.861 4.558-8.786 15.498-21.597 22.795l6.676-6.714c-2.281 1.642-7.369 4.901-9.474 4.807-2.106-.095-4.524 1.796-5.47 2.754l2.317-3.533c-.852.474-2.962.91-4.586-1.133-2.03-2.554-3.42-.313-4.258.925-.67.99-2.41-1.837-3.196-3.374l1.857-1.975c-2.67 1.368-9.395 3.868-14.94 2.924.937-.098 2.97-.635 3.611-1.997.8-1.703-14.19 2.349-18.184 1.591-3.994-.759-9.579-7.08-12.803-7.573-3.223-.492-4.994-.093-8.097-2-3.102-1.906-6.502-7.84-9.14-3.93-2.111 3.128 1.778 8.599 3.987 10.944-4.054-2.877-12.201-9.643-12.355-13.695l-2.754-5.471-.257 4.118c-.907-1.972-2.934-6.715-3.787-9.906-1.127-3.852-4.025-11.654-6.604-12.047-2.579-.394-4.772 9.059-5.546 13.835-4.021-5.783-10.69-23.761-5.205-49.411-2.14 3.019-5.954 14.252-4.091 35.027-3.894-7.627-8.586-26.861 3.8-42.778-1.235-.026-4.068.653-5.521 3.578 1.446-9.855 7.913-31.725 22.21-40.358-.773-1.078-4.82-.187-14.825 12 2.36-5.246 10.113-16.996 22.244-22.028-2.733.288-9.168 1.719-13.054 5.139 2.066-5.902 8.948-17.572 19.948-17.045 4.926-1.064 13.792-3.572 9.849-5.093-4.928-1.902-8.684-.853-19.883-10.918 6.161 1.015 21.391 1.984 33.022-2.259 2.635-.92 9.062-2.46 13.691-1.256-1.286-.95-5.396-2.716-11.553-2.17 1.992-1.04 7.685-2.418 14.631.32-1.86-.758-5.736-2.82-7.7-5.602 3.208 1.274 10.48 3.745 13.901 3.434.213-.961.117-3.24-1.964-4.666 2.484.613 7.128 2.207 11.683 2.885 18.698 2.787 15.825 3.344 28.302 9.424z" fill="url(#paint45_radial_4423_76909)"/><circle cx="319.467" cy="170.762" r="4.851" fill="#121720"/><g opacity=".03" fill="#666D79"><path d="M362.953 84.548c-.665 1.124-1.476 2.139-2.441 2.825a62.202 62.202 0 014.502-1.558c.898-.856 1.982-1.617 2.824-2.117-1.276-.01-3.072.357-4.885.85zm6.161 7.258c2.17.801 5.544 1.228 8.613 1.414l3.012-.85c-1.844.21-7.308.162-11.625-.564zm24.76 35.224a7.225 7.225 0 00-.406-.124c-.341-.095-.455.11-.389.555a18.334 18.334 0 012.11 1.482 13.235 13.235 0 00-1.315-1.913zm2.409 13.548c.832 2.06 1.736 4.447 2.635 7.04.468.784.897 1.511 1.265 2.141-.709-2.484-2.228-5.808-3.9-9.181zm4.465 26.391c-.699-1.381-1.433-2.449-2.167-2.938.275 1.902.561 4.425.781 7.306a79.873 79.873 0 012.005 7.205c.319-3.455.038-7.431-.619-11.573zm-5.447 26.618c-.632-1.149-1.437-2.115-2.449-2.634.375 1.585.733 4.209.778 7.48.069.442.118.847.148 1.196.65-1.816 1.149-3.861 1.523-6.042zm-24.572 42.72c1.599-3.612 2.918-7.915 2.951-12.135-.816 1.997-2.604 5.221-5.434 8.826-1.637 4.44-3.929 8.194-5.363 10.098 2.948-1.911 5.563-4.263 7.846-6.789zm-19.879 8.45c-.439.149-.84.25-1.187.288l-1.057 1.063a54.167 54.167 0 002.244-1.351zm-7.057-.151a3.546 3.546 0 01-1.468-.681l-1.987 3.03c.65-.658 1.994-1.756 3.455-2.349zm-1.762-.931a4.895 4.895 0 01-.485-.527c-1.316-1.656-2.362-1.297-3.164-.502 1.247 1.294 2.703 1.302 3.649 1.029zm-7.257-1.752a20.955 20.955 0 01-.682-1.225l1.857-1.974c-1.083.555-2.832 1.296-4.899 1.917.873 1.531 2.197 3.407 2.761 2.573l.08-.119c.249-.368.542-.804.883-1.172zm-11.074-1.234c.391-.275.722-.617.92-1.038.289-.616-1.487-.479-4.061-.089-.883.803-2.292 1.15-3.027 1.227 1.985.338 4.121.235 6.168-.1zm-19.324-.212c-1.569-.807-3.258-2.084-4.889-3.317-2.205-1.667-4.302-3.254-5.854-3.491a31.053 31.053 0 00-1.743-.21c1.241.664 2.657 1.735 4.12 2.842 2.377 1.797 4.877 3.688 6.949 4.082.38.072.86.1 1.417.094zm-17.333-8.008c-.472-.209-.969-.47-1.507-.8-.903-.555-1.831-1.451-2.758-2.346-1.871-1.807-3.738-3.61-5.387-2.599.63.504 1.27 1.122 1.91 1.74.927.895 1.855 1.791 2.758 2.346 1.959 1.204 3.387 1.489 4.984 1.659zm-13.591.5c-2.878-2.754-5.34-5.771-5.424-7.982l-2.754-5.47-.257 4.118c-.907-1.972-2.933-6.715-3.787-9.906-1.127-3.852-4.025-11.654-6.604-12.047-.494-.076-.974.21-1.433.756 1.925 2.576 3.727 7.584 4.56 10.432.854 3.191 2.88 7.934 3.787 9.906l.257-4.118 2.754 5.47c.155 4.053 8.301 10.819 12.355 13.696-1.047-1.111-2.47-2.923-3.454-4.855zm-27.035-22.47c-3.571-8.412-6.909-23.971-2.542-44.393-2.029 2.862-5.562 13.107-4.336 31.867 1.502 8.122 4.099 13.859 6.064 16.685.19-1.175.467-2.634.814-4.159z"/><path d="M235.842 187.088c-.945-8.665.389-19.283 7.743-28.733-1.236-.026-4.069.653-5.522 3.578a55.53 55.53 0 01.349-2.081c-10.234 15.413-5.809 33.167-2.105 40.422-.441-4.926-.564-9.315-.465-13.186zm3.021-29.44c2.415-10.912 8.929-28.537 21.41-36.073-.773-1.078-4.82-.187-14.825 12 .717-1.594 1.932-3.789 3.617-6.213-8.975 10.335-13.325 25.848-14.479 33.712a6.4 6.4 0 014.277-3.426zm15.613-36.856c3.529-3.626 7.962-7.065 13.216-9.245-2.732.288-9.168 1.719-13.054 5.139l.061-.172c-6.697 5.538-11.06 12.494-12.728 16.202 6.321-7.699 10.264-10.89 12.505-11.924zm1.902-8.059c3.15-6.016 9.341-13.517 18.208-13.092 4.926-1.064 13.792-3.572 9.849-5.094-1.104-.426-2.15-.704-3.234-.992-3.751-.997-7.96-2.116-16.649-9.925 6.161 1.015 21.391 1.984 33.022-2.259 2.635-.92 9.062-2.46 13.691-1.256-.831-.615-2.844-1.57-5.827-2.02 1.106.397 1.901.829 2.35 1.161-4.629-1.204-11.056.336-13.691 1.256-11.631 4.243-26.861 3.274-33.022 2.259 8.689 7.809 12.898 8.928 16.649 9.925 1.084.288 2.13.566 3.234.993 3.943 1.52-4.923 4.03-9.849 5.093-11-.527-17.882 11.143-19.948 17.045 1.483-1.306 3.338-2.321 5.217-3.094zm45.361-35.53c1.886-.494 4.618-.79 7.849-.26-6.36-2.105-11.485-.833-13.353.144a24.205 24.205 0 015.504.116zm8.229-.195a23.34 23.34 0 014.375 1.256c-1.737-.707-5.232-2.551-7.286-5.058a71.976 71.976 0 01-3.891-1.401c1.686 2.389 4.783 4.246 6.802 5.203zm3.184-2.136c2.762.79 5.603 1.388 7.392 1.225.173-.783.142-2.44-1.001-3.8-1.68-.882-3.346-1.455-4.44-1.725 2.081 1.426 2.177 3.705 1.964 4.666-1.028.094-2.405-.064-3.915-.366z"/></g><path d="M370.478 95.407l-5.81 1.641c3.054 1.172 12.242 6.268 24.566 17.272 2.244 1.513 7.571 4.739 11.058 5.63 4.289-.568 7.476-1.285 5.528-1.767-3.485-.861-8.879-4.126-11.14-5.65-11.868-10.598-20.828-15.715-24.202-17.126zm18.803 26.93c-3.724.315-7.07.422-7.772.104-.485-.22-.35-.132.168.206 1.513.986 6.292 4.102 8.39 7.882-.87-.727-3.127-2.324-5.197-2.896-1.357-.376.89 3.983 3.66 9.358 2.512 4.874 5.455 10.583 6.532 14.354-2.483-4.248-7.732-12.906-8.862-13.554 3.852 8.656 11.253 29.243 10.046 42.337-.989-4.391-3.626-13.612-6.263-15.37.801 5.539 1.695 16.351.786 25.909 2.218 2.121 3.143 6.55 3.333 8.76 3.761-10.498 2.451-28.678 1.326-36.457 2.638 1.758 5.275 10.979 6.264 15.37 1.207-13.094-6.195-33.681-10.046-42.337 1.13.648 6.379 9.306 8.862 13.555-1.077-3.772-4.02-9.481-6.532-14.355-2.771-5.375-5.018-9.734-3.661-9.358 2.071.573 4.328 2.17 5.198 2.896-1.451-2.613-4.184-4.909-6.232-6.404zm1.05 71.899c-.387 2.533-.932 4.906-1.675 6.979-.218-2.537-1.403-7.996-4.402-9.535.964 4.078 1.818 15.024-2.476 26.189.647-3.552 1.763-10.868 1.052-11.72-1.392 6.607-5.122 20.759-8.907 24.507 1.476-3.411 4.131-10.566 2.938-11.895-1.201 3.775-4.406 10.837-9.624 17.233-1.401 3.012-2.956 5.475-4.03 6.901 10.936-7.091 17.29-20.236 19.1-25.921 1.192 1.328-1.462 8.483-2.938 11.894 3.784-3.748 7.515-17.899 8.907-24.506.711.851-.405 8.168-1.052 11.72 3.199-8.321 3.54-16.52 3.107-21.846zm-27.035 39.873c1.029-2.905 1.761-6.081 1.785-9.21-1.361 3.335-5.435 10.088-12.542 16.33a53.417 53.417 0 003.068-2.036l-6.677 6.713c6.089-3.468 10.849-7.759 14.366-11.797zm-15.945 9.697l2.81-2.826a51.863 51.863 0 01-4.834 3.072c.271-.046.541-.065.805-.053.338.015.752-.056 1.219-.193zm-5.225 1.72c-.283.091-.55.162-.794.207l-.67 1.02a11.64 11.64 0 011.464-1.227zm-15.143-5.684l.367-.391c-.386.198-.857.419-1.396.651.348-.082.692-.169 1.029-.26zm-9.203-1.397c.202-.651-2.124-.303-5.137.147-4.217.631-9.78 1.462-11.645.038-3.052-2.331-5.428-3.714-7.318-4.472.845.573 1.741 1.25 2.654 1.941 2.377 1.797 4.877 3.688 6.95 4.082 1.954.371 6.541-.41 10.623-1.104a175.85 175.85 0 013.873-.632zm-59.76-25.97c.023-1.012.011-1.956-.177-2.659-1.126-3.851-3.3-9.45-5.908-9.485-.223-.003-.499.1-.807.295.114-.021.229-.023.345-.005 2.537.387 5.383 7.942 6.547 11.854zm-8.577-10.226c-1.801 2.26-3.633 6.21-3.15 10.171.667-3.414 1.789-7.824 3.15-10.171zm-3.322 11.082c-3.904-6.338-8.278-21.52-4.438-50.777-1.818 2.566-7.174 14.496-7.599 30.772.754 2.723 1.671 5.029 2.548 6.746-1.863-20.775 1.951-32.007 4.09-35.027-5.484 25.65 1.185 43.629 5.205 49.411.057-.351.122-.728.194-1.125zm-11.009-46.739c.266-.665.549-1.327.85-1.985-.306.66-.589 1.322-.85 1.985zm5.1-9.295c.256-.352.518-.7.787-1.046-1.235-.026-4.069.653-5.521 3.578 1.446-9.856 8.902-30.924 23.199-39.556-.183-.255-.784-.248-1.729.072a.709.709 0 01.172.169c-14.297 8.633-20.763 30.503-22.209 40.359 1.372-2.764 3.976-3.523 5.301-3.576zm6.667-30.048a70.485 70.485 0 00-3.944 3.946 27.76 27.76 0 00-.639 1.319 109.378 109.378 0 014.583-5.265zm-1.981.57c6.072-6.847 16.044-15.74 24.494-19.246l-.22.023c-2.704.282-11.169 1.164-17.014 5.312-.262.61-.487 1.187-.672 1.717 3.885-3.419 10.321-4.85 13.053-5.139-9.231 3.83-15.928 11.55-19.641 17.333zm72.15-52.761c1.235 1.392 2.221 2.697 2.709 3.696-.257-1.911-.314-4.238-.032-6.732-1.632-.84-3.235-1.39-4.297-1.652 2.08 1.426 2.176 3.705 1.964 4.667-.111.01-.226.017-.344.021z" opacity=".1" fill="#263C60"/><path opacity=".15" d="M312.987 74.337c-2.571 10.41 8.542 7.548 11.182 12.424-7.857 11.173-16.384 3.748-17.487 1.467-1.814-3.751-.492-11.081.18-15.21 0 0 3.733 1.69 6.125 1.32z" fill="#000"/><path d="M319.517 59.005c-2.571 10.408 2.066 22.761 4.706 27.636-10.53 8.321-14.785 2.202-15.837 1.506-.841-.558.577-7.285 1.39-10.579 2.051-13.962 7.349-18.193 9.741-18.563z" fill="url(#paint46_linear_4423_76909)"/><path opacity=".4" d="M324.223 86.641c-2.64-4.875-7.278-17.228-4.707-27.637-.893.139-2.191.815-3.573 2.335.919 1.782.534 5.268.098 9.212-.791 7.154-1.747 15.81 4.622 18.516 1.098-.62 2.283-1.416 3.56-2.425z" fill="#AABCD0"/><path opacity=".15" d="M358.378 103.132c-8.471-4.102-7.487-9.464-7.774-11.37 7.43-3.196 8.623-7.712 11.239-13.94 5.077 8.594 7.482 18.6 4.065 25.591-1.232.744-5.187.853-7.53-.281z" fill="#000"/><path d="M359.408 102.672c-4.312-1.778-7.31-7.31-7.597-9.216 7.43-3.197 14.52-16.451 17.136-22.678 5.076 8.593-.486 24.723-3.903 31.714-1.232.744-3.352 1.122-5.636.18z" fill="url(#paint47_linear_4423_76909)"/><path opacity=".4" d="M360.126 102.835c1.91.377 3.824.318 4.919-.343 3.416-6.991 8.979-23.121 3.902-31.715a63.012 63.012 0 01-.962 2.165c1.338 4.105-1.623 10.655-4.363 16.717-2.512 5.555-4.837 10.701-3.496 13.176z" fill="#AABCD0"/><circle cx="311.284" cy="119.284" r="16.02" transform="rotate(13.875 311.284 119.284)" fill="url(#paint48_radial_4423_76909)"/><g opacity=".4" fill="#fff"><ellipse cx="321.297" cy="116.258" rx="2.125" ry="2.222" transform="rotate(13.875 321.297 116.258)"/><ellipse cx="324.58" cy="119.336" rx="1.8" ry="1.838" transform="rotate(13.875 324.58 119.336)"/><ellipse cx="320.35" cy="122.668" rx="1.8" ry="2.411" transform="rotate(24.106 320.35 122.668)"/><ellipse cx="320.195" cy="126.875" rx="1.326" ry="1.775" transform="rotate(24.106 320.195 126.875)"/></g><path d="M317.321 104.443c-7.798-.776-15.185 4.273-17.12 12.104-1.934 7.83 2.253 15.739 9.515 18.683a16.325 16.325 0 01-2.274-.393c-8.59-2.122-13.833-10.805-11.711-19.394 2.122-8.59 10.805-13.833 19.394-11.711a16.14 16.14 0 012.196.711z" fill="#99B3CE"/><circle cx="320.229" cy="118.406" r="6.043" transform="rotate(13.875 320.229 118.406)" fill="#1D2739"/><circle cx="350.099" cy="128.873" r="16.02" transform="rotate(13.875 350.099 128.873)" fill="url(#paint49_radial_4423_76909)"/><g opacity=".4" fill="#fff"><ellipse cx="359.561" cy="126.054" rx="2.125" ry="2.222" transform="rotate(5.832 359.561 126.054)"/><ellipse cx="363.567" cy="128.697" rx="1.436" ry="1.838" transform="rotate(5.832 363.567 128.697)"/><ellipse cx="359.52" cy="132.533" rx="1.8" ry="2.411" transform="rotate(16.063 359.52 132.533)"/></g><path d="M356.137 114.032c-7.798-.777-15.186 4.273-17.12 12.103-1.934 7.831 2.252 15.739 9.515 18.683a16.05 16.05 0 01-2.275-.393c-8.589-2.121-13.832-10.805-11.71-19.394 2.121-8.589 10.805-13.833 19.394-11.711.759.188 1.492.426 2.196.712z" fill="#99B3CE"/><circle cx="359.732" cy="128.164" r="6.043" transform="rotate(13.875 359.732 128.164)" fill="#1D2739"/><path opacity=".15" d="M298.527 168.592c-1.746-4.362 4.144-9.202 6.456-9.633.954 3.283 6.029 11.314 6.71 12.885.294.679-2.438 3.149-4.375 3.39-3.24.402-7.76-4.065-8.791-6.642z" fill="#000"/><path d="M300.441 169.803c-1.745-4.362 4.144-9.202 6.456-9.633.954 3.283 3.994 9.808 4.675 11.38.294.679-1.974 2.871-3.91 3.111-3.241.403-6.19-2.281-7.221-4.858z" fill="url(#paint50_linear_4423_76909)"/><path opacity=".5" d="M304.974 161.04c.086.47.007.982-.088 1.587-.222 1.433-.527 3.392 1.097 6.566 1.245 2.432 2.95 3.219 4.035 3.72.205.095.388.179.542.263.71-.636 1.151-1.303 1.011-1.626-.121-.279-.316-.713-.56-1.257-1.133-2.526-3.33-7.422-4.115-10.124-.508.095-1.188.403-1.922.871z" fill="#B4D2F1"/><path opacity=".5" d="M305.108 177.869c-5.182-1.55-5.843-3.597-6.224-3.871-.41.677-.378 1.663 1.223 2.943 1.6 1.28 3.85 1.381 5.001.928z" fill="#141E2E"/><path opacity=".15" d="M327.653 170.545c1.253-2.915 4.419-4.763 5.845-5.323.742 1.689 2.252 5.241 2.363 5.938.138.872 4.478 8.2.893 9.556-2.707 1.024-5.592-.237-7.179-1.41-1.587-1.173-3.488-5.117-1.922-8.761z" fill="#000"/><path d="M329.243 172.159c1.253-2.916 4.419-4.764 5.845-5.323.741 1.689 2.252 5.241 2.362 5.938.139.871 2.069 6.371-.638 7.395-2.706 1.023-5.455-.014-7.042-1.187-1.587-1.173-2.093-3.179-.527-6.823z" fill="url(#paint51_linear_4423_76909)"/><path opacity=".5" d="M333.628 167.565c-.077.365-.231.754-.405 1.19-.494 1.241-1.143 2.873-.605 5.481.399 1.93 1.579 3.372 2.474 4.465.557.681 1.004 1.227 1.084 1.671.212-.055.425-.123.638-.203 2.311-.875 1.241-5.012.793-6.745a9.677 9.677 0 01-.156-.65c-.11-.698-1.621-4.25-2.362-5.938-.384.151-.895.395-1.461.729z" fill="#B4D2F1"/><path opacity=".5" d="M330.922 184.597c-4.219-2.642-5.066-5.265-5.375-5.618-.553.566-.59 1.614.678 3.224 1.267 1.61 3.474 2.574 4.697 2.394zm8.735-2.923c-1.925 1.925-4.125 1.641-4.404 1.731.538.544 1.449.904 2.735.588 1.286-.317 1.93-1.458 1.669-2.319z" fill="#141E2E"/><g filter="url(#filter14_d_4423_76909)"><path d="M339.696 54.739l-9.211-5.367-5.369 9.216 9.211 5.366 5.369-9.215z" fill="url(#paint52_linear_4423_76909)"/><path d="M351.481 61.605l-9.211-5.367-5.369 9.216 9.211 5.366 5.369-9.215z" fill="url(#paint53_linear_4423_76909)"/><path d="M363.264 68.47l-9.211-5.367-5.369 9.217 9.211 5.366 5.369-9.216z" fill="url(#paint54_linear_4423_76909)"/><path d="M346.565 42.948l-9.212-5.367-5.369 9.216 9.211 5.367 5.37-9.216z" fill="url(#paint55_linear_4423_76909)"/><path d="M353.434 31.157l-9.211-5.366-5.369 9.216 9.211 5.366 5.369-9.216z" fill="#4BDEFF"/><path d="M360.303 19.366L351.092 14l-5.369 9.216 9.211 5.366 5.369-9.216z" fill="url(#paint56_linear_4423_76909)"/></g><path d="M164.362 169.669s31.485-10.226 51.952-10.16c20.307.065 51.63 10.389 51.63 10.389l-13.921 27.141-65.094-3.592-24.567-23.778z" fill="#9C5552"/><path d="M217.801 217.121c31.709.071 57.444-13.745 57.482-30.857.022-9.598-12.132-2.566-26.646-24.065-14.514-21.499-16.776-7.015-30.699-7.046-13.785-.031-12.863-12.837-29.8 5.548-17.282 18.759-27.661 15.636-27.683 25.309-.038 17.112 25.637 31.041 57.346 31.111z" fill="#F1CEB4"/><mask id="a" style="mask-type:alpha" maskUnits="userSpaceOnUse" x="160" y="150" width="116" height="68"><path d="M217.801 217.121c31.708.071 57.444-13.745 57.482-30.857.021-9.598-12.132-2.566-26.646-24.065-14.515-21.499-16.777-7.015-30.699-7.046-13.785-.031-12.863-12.837-29.801 5.548-17.281 18.759-27.66 15.636-27.682 25.309-.038 17.112 25.637 31.041 57.346 31.111z" fill="#C29371"/></mask><g mask="url(#a)"><path opacity=".1" fill-rule="evenodd" clip-rule="evenodd" d="M216.585 185.222c19.964.044 36.377-16.247 36.397-25.231.02-8.984-16.148-16.302-36.112-16.347-19.964-.044-36.164 7.203-36.184 16.187-.02 8.984 15.935 25.346 35.899 25.391z" fill="#000"/></g><path opacity=".1" d="M216.947 215.921l-32.979-24.109-7.523 2.365 3.76 14.974 30.729 12.757 40.842-7.013 7.56-19.362-4.536-7.219-37.853 27.607z" fill="#000"/><path fill-rule="evenodd" clip-rule="evenodd" d="M166.173 177.298c-31.765 3.243-57.849 27.579-62.774 59.75-2.511 16.402 10.161 31.194 26.754 31.231l172.527.382c16.593.037 29.331-14.7 26.892-31.113-4.776-32.145-30.683-56.573-62.371-60.012-3.282 16.849-50.598 38.454-50.598 38.454s-47.246-21.827-50.43-38.692z" fill="#CD5F5B"/><path fill-rule="evenodd" clip-rule="evenodd" d="M326.066 223.758c-25.505 18.023-65.104 29.55-109.546 29.452-44.505-.099-84.103-11.834-109.523-30.014a70.95 70.95 0 00-3.597 13.915c-2.511 16.402 10.161 31.195 26.754 31.232l172.527.382c16.593.036 29.33-14.7 26.892-31.113a71.004 71.004 0 00-3.507-13.854z" fill="#000" fill-opacity=".081"/><path d="M209.765 220.25l51.275-15.886-7.425-10.223-43.85 26.109zm6.837-4.26l-44.594-11.478 8.023-10.465 36.571 21.943z" fill="#9C5552"/><path d="M265.146 171.244c1.297-1.966 4.303-1.507 4.954.757l2.098 7.295-11.406 25.275-15.262-3.588 19.616-29.739zm-97.266-1.143c-1.416-1.688-4.142-1.116-4.761.999l-2.365 8.087 11.294 25.325 17.358-8.757-21.526-25.654z" fill="#C46B67"/><path d="M209.904 220.044l20.703-6.575-.121 55.032-20-.044-.582-48.413z" fill="url(#paint57_linear_4423_76909)"/><circle cx="215.953" cy="228.746" r="1.931" transform="rotate(.127 215.953 228.746)" fill="#BC9E78"/><circle cx="215.924" cy="241.022" r="1.931" transform="rotate(.127 215.924 241.022)" fill="#BC9E78"/><circle cx="215.897" cy="253.297" r="1.931" transform="rotate(.127 215.897 253.297)" fill="#BC9E78"/><path fill-rule="evenodd" clip-rule="evenodd" d="M273.886 80.313c-4.677-.6-9.461 7.635-10.685 18.394-1.224 10.755 1.575 19.961 6.253 20.56 4.676.599 7.032-8.054 11.058-18.69 4.027-10.635-1.947-19.666-6.626-20.264zm-112.76-2.526c4.698-.39 9.109 8.05 9.85 18.853.741 10.8-2.467 19.871-7.167 20.26-4.698.389-6.665-8.361-10.211-19.166-3.546-10.805 2.827-19.56 7.528-19.947z" fill="#F1CEB4"/><path d="M268.355 129.59c1.818-15.426 4.362-42.053 4.362-42.053.613-60.004-33.551-64.703-53.915-64.913-20.364-.21-54.34 4.139-54.954 64.143 0 0-1.587 24.521 1.398 41.762 2.709 15.655 25.808 47.75 50.619 48.006 24.811.255 50.628-31.135 52.49-46.945z" fill="#fff"/><path d="M268.474 129.433c1.818-15.427 4.443-42.056 4.443-42.056.616-60.004-33.792-64.547-54.156-64.756-20.365-.208-54.341 4.14-54.957 64.145 0 0-1.587 24.521 1.397 41.762 2.708 15.655 25.806 47.749 50.617 48.004 24.811.254 50.793-31.29 52.656-47.099z" fill="#F1CEB4"/><mask id="b" style="mask-type:alpha" maskUnits="userSpaceOnUse" x="163" y="22" width="110" height="155"><path d="M268.311 129.588c1.817-15.426 4.362-42.053 4.362-42.053.614-60.005-33.55-64.703-53.914-64.912-20.364-.21-54.341 4.139-54.955 64.143 0 0-1.587 24.521 1.398 41.762 2.708 15.655 25.806 47.75 50.618 48.005 24.811.255 50.628-31.136 52.491-46.945z" fill="#E7C1A6"/></mask><g mask="url(#b)"><path opacity=".118" fill-rule="evenodd" clip-rule="evenodd" d="M190.34 142.128c-1.39 13.837 15.347 24.05 25.96 23.966 12.871-.103 25.752-10.387 25.918-22.394.121-8.72-10.238-5.253-25.176-5.249l-.122-.001c-14.075-.024-25.828-3.842-26.58 3.678zm25.85 34.705c-.514.026-1.04.039-1.584.033-18.648-.192-46.073-21.819-50.066-52.185-2.77-21.052-2.344-30.117-1.847-38.504l.037-.628.038-.626.037-.626.036-.627c.072-1.254.139-2.52.189-3.832.371-9.659 4.975-20.183 4.229-4.18-1.173 19.533 4.425 67.768 19.921 59.257 7.985-7.208 21.756-4.137 29.74-3.96l.167.004c14.336.148 21.896-.127 28.678 3.758 18.802 14.218 23.522-49.673 23.226-57.107-.422-15.961 5.067-5.788 3.464 3.67-2.114 12.463 1.073 22.855-3.951 48.772-5.336 27.528-31.967 47.04-50.726 46.847a25.153 25.153 0 01-1.588-.066z" fill="#91715A"/></g><mask id="c" style="mask-type:alpha" maskUnits="userSpaceOnUse" x="196" y="142" width="40" height="11"><path d="M235.988 144.115c-2.875 4.981-6.307 9.302-21.019 8.664-9.946-.431-15.708-5.159-18.304-9.641 0 0 8.077-.789 19.6-.564 11.522.225 19.723 1.541 19.723 1.541z" fill="#AA694F"/></mask><g mask="url(#c)" fill-rule="evenodd" clip-rule="evenodd"><path d="M238.601 142.118c-2.202 22.522-45.483 18.345-45.035-1.953l45.035 1.953z" fill="#AA694F"/><path d="M242.567 141.761c-.977 6.187-6.196 7.829-26.324 7.436-20.128-.393-26.645-3.807-26.64-9.732l52.964 2.296z" fill="#fff"/></g><path opacity=".2" fill-rule="evenodd" clip-rule="evenodd" d="M205.423 152.889c1.047 2.183 5.562 3.903 11.009 4.025 5.448.123 10.035-1.394 11.179-3.528-3.124.508-6.966.763-11.115.67-4.148-.093-7.975-.52-11.073-1.167z" fill="#91715A"/><mask id="d" style="mask-type:alpha" maskUnits="userSpaceOnUse" x="163" y="22" width="110" height="93"><path d="M269.03 100.482c1.824-15.426 3.114 47.069 3.725-12.936.611-60.004-33.708-64.706-54.165-64.918-20.457-.211-54.214 4.153-54.825 64.158-.611 60.004-1.285-5.865 1.715 11.376 2.723 15.655 27.283-35.476 52.207-35.218 24.924.258 49.474 53.347 51.343 37.538z" fill="#87583D"/></mask><g mask="url(#d)"><path fill-rule="evenodd" clip-rule="evenodd" d="M217.881 25.707c25.577.573 45.437 4.7 48.419 44.358.237 3.154 4.171 16.894 4.69 20.496 3.386 6.32-1.014-60.877-.951-63.686.164-7.303-43.847-14.212-51.862-14.392-8.014-.18-52.215 4.754-52.379 12.057-.072 3.22-7.667 81.137.862 58.672 1.246-3.282 1.844-9.33 3.638-15.298 7.038-46.579 20.52-42.814 47.583-42.207z" fill="#87583D"/></g><path d="M181.355 33.008c-2.265 1.72-9.689 12.986-4.264 6.592 5.426-6.393 24.73-15.195 41.07-14.935 16.232.258 34.492 11.439 40.241 16.123 5.75 4.683-.901-5.343-3.03-7.564-2.378-2.48-13.749-12.301-13.405-9.543.524 4.2-3.738-1.793-7.068-3.207-3.453-1.466-17.511-5.995-14.027-2.14 2.534 2.802-6.978 2.943-10.374 1.593-3.438-1.365-6.871 1.69-10.089 1.617-3.648-.082-6.548 1.366-10.444 3.815-2.44 1.533-6.231 5.842-8.61 7.649z" fill="#87583D"/><path d="M207.379 114.692c1.118 5.303 4.36 7.846 9.726 7.629 5.366-.217 8.073-2.699 8.122-7.446" stroke="#B99982" stroke-width="2.117"/><path fill-rule="evenodd" clip-rule="evenodd" d="M193.317 92.556c3.197-.303 6.05 2.217 6.373 5.63.324 3.412-2.005 6.425-5.202 6.728-3.197.303-6.051-2.219-6.374-5.631-.324-3.413 2.006-6.424 5.203-6.727zm45.747 1.268c3.196-.303 6.049 2.217 6.373 5.63.323 3.412-2.006 6.425-5.202 6.728-3.196.303-6.052-2.219-6.375-5.631-.323-3.413 2.008-6.425 5.204-6.727z" fill="#032B42"/><path fill-rule="evenodd" clip-rule="evenodd" d="M178.069 83.369c-2.576 2.998 2.296 4.532 4.877 1.534 4.453-5.17 14.048-4.71 20.134-1.288 3.577 2.013 6.949-2.886 3.36-4.905-8.825-4.965-21.905-2.839-28.371 4.659zm80.238 2.017c2.419 3.125-2.527 4.411-4.95 1.287-4.178-5.389-13.786-5.414-20.039-2.303-3.678 1.83-6.791-3.234-3.103-5.069 9.07-4.513 22.024-1.729 28.092 6.085z" fill="#744A32"/><path fill-rule="evenodd" clip-rule="evenodd" d="M214.342 26.609c-8.878.448-17.982 2.889-22.343 4.374-11.661 3.972-20.635 6.801-13.686 1.067 3.078-2.54 6.366-1.849 8.05-3.624 0 0-7.147.26-3.313-2.518 3.834-2.778 10.118-2.775 10.118-2.775s-7.77-3.97.747-4.122c8.517-.152 9.173 1.02 9.173 1.02s.955-5.667 7.384-4.562c6.429 1.105 11.892 3.044 22.769 7.238 11.373 4.385 18.553 12.282 14.721 10.972-6.327-2.573-20.281-7.743-33.62-7.07z" fill="#87583D"/><path fill-rule="evenodd" clip-rule="evenodd" d="M249.077 32.1c-14.255-12.902-15.377-3.508-21.019-9.418l.117-.204c.877-1.526 3.93-.59 3.93-.59s-4.479-1.973-3.804-2.702c4.082-.282 9.216 2.657 9.216 2.657s-4.489-2.452-3.708-2.918c6.658 1.894 10.523 4.894 10.523 4.894s-.568-1.244.616-1.073c19.665 12.24 20.177 26.284 20.177 26.284-1.527-.232-7.893-12.775-15.086-16.38l-.962-.55z" fill="#87583D"/><path fill-rule="evenodd" clip-rule="evenodd" d="M254.757 35.665c1.175 2.162 11.184 24.065 13.321 21.384.868-1.089-.567-2.95-.567-2.95s1.298 2.154 2.883 1.846c-2.025-11.854-8.365-16.367-8.365-16.367s2.878 2.406 3.014 1.712c-.211-4.985-15.614-15.43-10.286-5.625zm-71.688-1.605c-1.27 2.106-12.25 23.539-14.265 20.765-.819-1.126 1.762-4.892 1.762-4.892s-2.951 2.636-3.27 1.92c1.262-8.965 8.334-14.21 8.334-14.21s-2.983 2.274-3.088 1.575c.434-4.97 16.289-14.716 10.527-5.158zm28.713-11.411c-2.374.642-25.999 5.313-23.885 8.013.858 1.096 5.188-.351 5.188-.351s-3.345 2.114-2.745 2.616c8.968 1.25 15.954-4.11 15.954-4.11s-3.007 2.244-2.363 2.537c4.898.948 18.623-11.62 7.851-8.705z" fill="#87583D"/><path fill-rule="evenodd" clip-rule="evenodd" d="M238.578 24.937c-2.428-.39-25.887-5.833-25.068-2.504.332 1.352 4.875 1.81 4.875 1.81s-7.749 1.655-7.408 2.36c7.832 2.852 17.071 1.068 17.071 1.068s-3.457 1.09-2.934 2.269c14.785 1.979 24.484-3.237 13.464-5.003z" fill="#87583D"/><path d="M162.152 140.979c6.281 4.172 7.991 12.646 3.82 18.927l-15.316 23.061a13.65 13.65 0 01-12.454 6.059l-5.735 7.626.436.289c1.343.891 1.665 2.763.677 4.041l-15.483 20.277a2.784 2.784 0 01-3.778.624l-.551-.366-6.523 8.674c-2.276 3.042-6.521 3.76-9.692 1.679a7.137 7.137 0 01-2.21-9.577l5.471-9.371-.561-.373a2.777 2.777 0 01-.89-3.721l12.702-22.122a2.826 2.826 0 014.023-.923l.411.274 6.124-10.489c-.56-3.304.088-6.82 2.088-9.832l15.316-23.061c4.172-6.281 12.645-7.991 18.926-3.82l3.199 2.124z" fill="#000" fill-opacity=".15"/><path d="M166.901 268.523l-24.802-64.424a4.394 4.394 0 10-8.191 3.188L158 268.523h8.901z" fill="#1D1D1D"/><path fill-rule="evenodd" clip-rule="evenodd" d="M111.096 190.575l16.177-13.89L143.9 196.16a10.675 10.675 0 01-1.166 15.053 10.603 10.603 0 01-15.011-1.163l-16.627-19.475z" fill="#2E2E2E"/><path d="M139.037 201.805c-.212 2.743-2.598 4.795-5.328 4.583-2.73-.211-4.771-2.606-4.558-5.349.212-2.742 2.598-4.794 5.328-4.583 2.73.212 4.771 2.607 4.558 5.349z" fill="#808C8D"/><path d="M123.757 160.101l18.74 12.435-39.928 53.096c-2.353 3.144-6.742 3.886-10.02 1.735a7.378 7.378 0 01-2.285-9.901l33.493-57.365z" fill="#2F3B48"/><path d="M107.552 180.675l-13.13 22.871a2.871 2.871 0 00.919 3.847l14.542 9.649a2.878 2.878 0 003.906-.645l16.006-20.963c1.022-1.322.688-3.256-.7-4.178l-17.384-11.535a2.921 2.921 0 00-4.159.954z" fill="#212932"/><rect width="32.199" height="56.849" rx="14.114" transform="scale(-1 1) rotate(-33.589 148.389 354.04)" fill="#1D1D1D"/></g><defs><linearGradient id="paint0_linear_4423_76909" x1="187.23" y1="236.471" x2="131.242" y2="149.918" gradientUnits="userSpaceOnUse"><stop stop-color="#31455F"/><stop offset="1" stop-color="#11253F"/></linearGradient><linearGradient id="paint1_linear_4423_76909" x1="217.399" y1="149.742" x2="87.551" y2="233.735" gradientUnits="userSpaceOnUse"><stop stop-color="#415671"/><stop offset=".214" stop-color="#2C415C"/><stop offset=".409" stop-color="#31455F"/><stop offset=".554" stop-color="#324660"/><stop offset=".762" stop-color="#2A3F5A"/><stop offset="1" stop-color="#10243D"/></linearGradient><linearGradient id="paint2_linear_4423_76909" x1="124.582" y1="147.006" x2="154.478" y2="193.223" gradientUnits="userSpaceOnUse"><stop stop-color="#0E1E34"/><stop offset="1" stop-color="#314560" stop-opacity="0"/></linearGradient><linearGradient id="paint3_linear_4423_76909" x1="127.854" y1="152.064" x2="163.987" y2="207.923" gradientUnits="userSpaceOnUse"><stop stop-color="#8EB6EA"/><stop offset="1" stop-color="#30455F" stop-opacity="0"/></linearGradient><linearGradient id="paint4_linear_4423_76909" x1="211.958" y1="286.01" x2="173.607" y2="226.721" gradientUnits="userSpaceOnUse"><stop stop-color="#C0CED7"/><stop offset="1" stop-color="#F4F4F4" stop-opacity="0"/></linearGradient><linearGradient id="paint5_linear_4423_76909" x1="115.32" y1="133.761" x2="126.73" y2="151.4" gradientUnits="userSpaceOnUse"><stop stop-color="#122741"/><stop offset="1" stop-color="#3F546F"/></linearGradient><linearGradient id="paint6_linear_4423_76909" x1="163.583" y1="213.744" x2="116.04" y2="140.245" gradientUnits="userSpaceOnUse"><stop stop-color="#C0CED7"/><stop offset="1" stop-color="#F4F4F4" stop-opacity="0"/></linearGradient><linearGradient id="paint7_linear_4423_76909" x1="132.752" y1="160.71" x2="115.32" y2="133.761" gradientUnits="userSpaceOnUse"><stop stop-color="#EEF1F3"/><stop offset="1" stop-color="#EEF1F3" stop-opacity="0"/></linearGradient><linearGradient id="paint8_linear_4423_76909" x1="118.663" y1="139.635" x2="118.663" y2="145.28" gradientUnits="userSpaceOnUse"><stop stop-color="#162A45"/><stop offset="1" stop-color="#11233C"/></linearGradient><linearGradient id="paint9_linear_4423_76909" x1="123.417" y1="145.204" x2="120.564" y2="140.794" gradientUnits="userSpaceOnUse"><stop stop-color="#EEF1F3"/><stop offset="1" stop-color="#EEF1F3" stop-opacity="0"/></linearGradient><linearGradient id="paint10_linear_4423_76909" x1="116.761" y1="136.695" x2="116.761" y2="142.34" gradientUnits="userSpaceOnUse"><stop stop-color="#162A45"/><stop offset="1" stop-color="#192D48"/></linearGradient><linearGradient id="paint11_linear_4423_76909" x1="121.515" y1="142.264" x2="118.663" y2="137.854" gradientUnits="userSpaceOnUse"><stop stop-color="#EEF1F3"/><stop offset="1" stop-color="#EEF1F3" stop-opacity="0"/></linearGradient><linearGradient id="paint12_linear_4423_76909" x1="114.859" y1="137.284" x2="114.859" y2="140.324" gradientUnits="userSpaceOnUse"><stop stop-color="#152841"/><stop offset="1" stop-color="#1A2E47"/></linearGradient><linearGradient id="paint13_linear_4423_76909" x1="119.614" y1="139.324" x2="116.761" y2="134.914" gradientUnits="userSpaceOnUse"><stop stop-color="#EEF1F3"/><stop offset="1" stop-color="#EEF1F3" stop-opacity="0"/></linearGradient><linearGradient id="paint14_linear_4423_76909" x1="112.958" y1="132.635" x2="112.958" y2="140.885" gradientUnits="userSpaceOnUse"><stop stop-color="#162A45"/><stop offset="1" stop-color="#11233C"/></linearGradient><linearGradient id="paint15_linear_4423_76909" x1="117.712" y1="136.384" x2="114.859" y2="131.974" gradientUnits="userSpaceOnUse"><stop stop-color="#EEF1F3"/><stop offset="1" stop-color="#EEF1F3" stop-opacity="0"/></linearGradient><linearGradient id="paint16_linear_4423_76909" x1="111.056" y1="130.157" x2="111.056" y2="133.631" gradientUnits="userSpaceOnUse"><stop stop-color="#0D1D33"/><stop offset="1" stop-color="#192D47"/></linearGradient><linearGradient id="paint17_linear_4423_76909" x1="109.008" y1="76.122" x2="26.666" y2="171.723" gradientUnits="userSpaceOnUse"><stop stop-color="#B2CEF0"/><stop offset="1" stop-color="#0D1D33"/></linearGradient><linearGradient id="paint18_linear_4423_76909" x1="61.179" y1="173.317" x2="81.748" y2="92.266" gradientUnits="userSpaceOnUse"><stop stop-color="#162944" stop-opacity=".75"/><stop offset="1" stop-color="#647A96" stop-opacity="0"/></linearGradient><linearGradient id="paint19_linear_4423_76909" x1="110.856" y1="121.93" x2="90.245" y2="87.755" gradientUnits="userSpaceOnUse"><stop stop-color="#0F223C"/><stop offset="1" stop-color="#0B192C" stop-opacity="0"/></linearGradient><linearGradient id="paint20_linear_4423_76909" x1="91.812" y1="24.354" x2="97.043" y2="57.714" gradientUnits="userSpaceOnUse"><stop stop-color="#B6D7FC"/><stop offset="1" stop-color="#6A819D"/></linearGradient><linearGradient id="paint21_linear_4423_76909" x1="56.42" y1="73.863" x2="68.234" y2="85.681" gradientUnits="userSpaceOnUse"><stop stop-color="#fff"/><stop offset="1" stop-color="#fff" stop-opacity="0"/></linearGradient><linearGradient id="paint23_linear_4423_76909" x1="66.55" y1="143.009" x2="93.359" y2="28.213" gradientUnits="userSpaceOnUse"><stop stop-color="#122135"/><stop offset="1" stop-color="#A6BFDC"/></linearGradient><linearGradient id="paint24_linear_4423_76909" x1="92.645" y1="34.764" x2="89.5" y2="88.541" gradientUnits="userSpaceOnUse"><stop stop-color="#C5DFFF"/><stop offset="1" stop-color="#EEF1F3" stop-opacity="0"/></linearGradient><linearGradient id="paint25_linear_4423_76909" x1="82.552" y1="39.309" x2="82.552" y2="40.622" gradientUnits="userSpaceOnUse"><stop stop-color="#D9F7FF"/><stop offset="1" stop-color="#D9F7FF"/></linearGradient><linearGradient id="paint26_linear_4423_76909" x1="70.113" y1="72.763" x2="85.909" y2="97.183" gradientUnits="userSpaceOnUse"><stop stop-color="#0E1F37"/><stop offset="1" stop-color="#0C182A"/></linearGradient><linearGradient id="paint31_linear_4423_76909" x1="71.888" y1="55.43" x2="88.582" y2="89.2" gradientUnits="userSpaceOnUse"><stop stop-color="#9BB2CF"/><stop offset="1" stop-color="#223752" stop-opacity="0"/></linearGradient><linearGradient id="paint32_linear_4423_76909" x1="165.329" y1="222.616" x2="165.329" y2="225.242" gradientUnits="userSpaceOnUse"><stop stop-color="#fff"/><stop offset="1" stop-color="#E6EBEE" stop-opacity="0"/></linearGradient><linearGradient id="paint33_linear_4423_76909" x1="158.99" y1="212.816" x2="158.99" y2="215.442" gradientUnits="userSpaceOnUse"><stop stop-color="#fff"/><stop offset="1" stop-color="#E6EBEE" stop-opacity="0"/></linearGradient><linearGradient id="paint34_linear_4423_76909" x1="152.651" y1="203.016" x2="152.651" y2="205.642" gradientUnits="userSpaceOnUse"><stop stop-color="#fff"/><stop offset="1" stop-color="#E6EBEE" stop-opacity="0"/></linearGradient><linearGradient id="paint35_linear_4423_76909" x1="146.312" y1="193.216" x2="146.312" y2="195.842" gradientUnits="userSpaceOnUse"><stop stop-color="#fff"/><stop offset="1" stop-color="#E6EBEE" stop-opacity="0"/></linearGradient><linearGradient id="paint36_linear_4423_76909" x1="364.679" y1="111.287" x2="386.447" y2="104.461" gradientUnits="userSpaceOnUse"><stop stop-color="#1390B3"/><stop offset="1" stop-color="#4BDEFF"/></linearGradient><linearGradient id="paint37_linear_4423_76909" x1="291.672" y1="73.193" x2="313.44" y2="66.367" gradientUnits="userSpaceOnUse"><stop stop-color="#1390B3"/><stop offset="1" stop-color="#4BDEFF"/></linearGradient><linearGradient id="paint38_linear_4423_76909" x1="258.865" y1="213.88" x2="284.427" y2="231.144" gradientUnits="userSpaceOnUse"><stop stop-color="#0E1627"/><stop offset=".466" stop-color="#0C1422"/><stop offset="1" stop-color="#0B1321"/></linearGradient><linearGradient id="paint39_linear_4423_76909" x1="275.817" y1="233.234" x2="239.319" y2="231.149" gradientUnits="userSpaceOnUse"><stop stop-color="#0C111B"/><stop offset="1" stop-color="#151F31"/></linearGradient><linearGradient id="paint40_linear_4423_76909" x1="275.771" y1="238.888" x2="241.837" y2="239.548" gradientUnits="userSpaceOnUse"><stop stop-color="#0C111B"/><stop offset="1" stop-color="#151F31"/></linearGradient><linearGradient id="paint41_linear_4423_76909" x1="352.051" y1="235.092" x2="341.243" y2="278.771" gradientUnits="userSpaceOnUse"><stop stop-color="#0E1627"/><stop offset=".466" stop-color="#0C1422"/><stop offset="1" stop-color="#0B1321"/></linearGradient><linearGradient id="paint42_linear_4423_76909" x1="327.577" y1="245.482" x2="358.833" y2="258.564" gradientUnits="userSpaceOnUse"><stop stop-color="#0C111B"/><stop offset="1" stop-color="#151F31"/></linearGradient><linearGradient id="paint46_linear_4423_76909" x1="314.836" y1="75.543" x2="309.197" y2="93.509" gradientUnits="userSpaceOnUse"><stop stop-color="#87A0BF"/><stop offset="1" stop-color="#31435E"/></linearGradient><linearGradient id="paint47_linear_4423_76909" x1="358.481" y1="83.212" x2="352.656" y2="104.77" gradientUnits="userSpaceOnUse"><stop stop-color="#87A0BF"/><stop offset="1" stop-color="#31435E"/></linearGradient><linearGradient id="paint50_linear_4423_76909" x1="303.624" y1="165.777" x2="301.22" y2="175.01" gradientUnits="userSpaceOnUse"><stop stop-color="#87A0BF"/><stop offset="1" stop-color="#31435E"/></linearGradient><linearGradient id="paint51_linear_4423_76909" x1="332.319" y1="171.976" x2="328.155" y2="179.887" gradientUnits="userSpaceOnUse"><stop stop-color="#87A0BF"/><stop offset="1" stop-color="#31435E"/></linearGradient><linearGradient id="paint52_linear_4423_76909" x1="326.824" y1="55.668" x2="347.503" y2="52.571" gradientUnits="userSpaceOnUse"><stop stop-color="#F44881"/><stop offset="1" stop-color="#EC454F"/></linearGradient><linearGradient id="paint53_linear_4423_76909" x1="341.506" y1="68.137" x2="346.875" y2="58.921" gradientUnits="userSpaceOnUse"><stop stop-color="#8B60ED"/><stop offset="1" stop-color="#B372BD"/></linearGradient><linearGradient id="paint54_linear_4423_76909" x1="358.049" y1="66.833" x2="352.68" y2="76.049" gradientUnits="userSpaceOnUse"><stop stop-color="#6EDCC4"/><stop offset="1" stop-color="#1AAB8B"/></linearGradient><linearGradient id="paint55_linear_4423_76909" x1="353.085" y1="56.605" x2="334.672" y2="42.195" gradientUnits="userSpaceOnUse"><stop stop-color="#F19A1A"/><stop offset="1" stop-color="#FFC73C"/></linearGradient><linearGradient id="paint56_linear_4423_76909" x1="347.43" y1="20.296" x2="368.109" y2="17.199" gradientUnits="userSpaceOnUse"><stop stop-color="#F44881"/><stop offset="1" stop-color="#EC454F"/></linearGradient><linearGradient id="paint57_linear_4423_76909" x1="210.559" y1="235.838" x2="230.558" y2="235.813" gradientUnits="userSpaceOnUse"><stop stop-color="#9C5552"/><stop offset="1" stop-color="#9C5552" stop-opacity="0"/></linearGradient><filter id="filter0_f_4423_76909" x="51.102" y="97.115" width="185.287" height="173.38" filterUnits="userSpaceOnUse" color-interpolation-filters="sRGB"><feFlood flood-opacity="0" result="BackgroundImageFix"/><feBlend in="SourceGraphic" in2="BackgroundImageFix" result="shape"/><feGaussianBlur stdDeviation=".244" result="effect1_foregroundBlur_4423_76909"/></filter><filter id="filter1_f_4423_76909" x="49.574" y="94.59" width="145.443" height="97.427" filterUnits="userSpaceOnUse" color-interpolation-filters="sRGB"><feFlood flood-opacity="0" result="BackgroundImageFix"/><feBlend in="SourceGraphic" in2="BackgroundImageFix" result="shape"/><feGaussianBlur stdDeviation=".244" result="effect1_foregroundBlur_4423_76909"/></filter><filter id="filter2_f_4423_76909" x="17.69" y="12.885" width="127.12" height="132.107" filterUnits="userSpaceOnUse" color-interpolation-filters="sRGB"><feFlood flood-opacity="0" result="BackgroundImageFix"/><feBlend in="SourceGraphic" in2="BackgroundImageFix" result="shape"/><feGaussianBlur stdDeviation="3.905" result="effect1_foregroundBlur_4423_76909"/></filter><filter id="filter3_f_4423_76909" x="17.363" y="60.105" width="101.505" height="95.504" filterUnits="userSpaceOnUse" color-interpolation-filters="sRGB"><feFlood flood-opacity="0" result="BackgroundImageFix"/><feBlend in="SourceGraphic" in2="BackgroundImageFix" result="shape"/><feGaussianBlur stdDeviation="6.345" result="effect1_foregroundBlur_4423_76909"/></filter><filter id="filter4_f_4423_76909" x="16.687" y="17.424" width="139.001" height="138.309" filterUnits="userSpaceOnUse" color-interpolation-filters="sRGB"><feFlood flood-opacity="0" result="BackgroundImageFix"/><feBlend in="SourceGraphic" in2="BackgroundImageFix" result="shape"/><feGaussianBlur stdDeviation="4.881" result="effect1_foregroundBlur_4423_76909"/></filter><filter id="filter5_f_4423_76909" x="31.926" y="34.467" width="106.811" height="102.702" filterUnits="userSpaceOnUse" color-interpolation-filters="sRGB"><feFlood flood-opacity="0" result="BackgroundImageFix"/><feBlend in="SourceGraphic" in2="BackgroundImageFix" result="shape"/><feGaussianBlur stdDeviation=".488" result="effect1_foregroundBlur_4423_76909"/></filter><filter id="filter6_f_4423_76909" x="33.12" y="36.856" width="104.808" height="101.693" filterUnits="userSpaceOnUse" color-interpolation-filters="sRGB"><feFlood flood-opacity="0" result="BackgroundImageFix"/><feBlend in="SourceGraphic" in2="BackgroundImageFix" result="shape"/><feGaussianBlur stdDeviation=".976" result="effect1_foregroundBlur_4423_76909"/></filter><filter id="filter7_d_4423_76909" x="39.789" y="44.952" width="82.317" height="67.041" filterUnits="userSpaceOnUse" color-interpolation-filters="sRGB"><feFlood flood-opacity="0" result="BackgroundImageFix"/><feColorMatrix in="SourceAlpha" values="0 0 0 0 0 0 0 0 0 0 0 0 0 0 0 0 0 0 127 0" result="hardAlpha"/><feOffset/><feGaussianBlur stdDeviation="6.061"/><feComposite in2="hardAlpha" operator="out"/><feColorMatrix values="0 0 0 0 0.380632 0 0 0 0 0.702703 0 0 0 0 1 0 0 0 1 0"/><feBlend in2="BackgroundImageFix" result="effect1_dropShadow_4423_76909"/><feBlend in="SourceGraphic" in2="effect1_dropShadow_4423_76909" result="shape"/></filter><filter id="filter8_d_4423_76909" x="90.991" y="80.421" width="34.806" height="34.724" filterUnits="userSpaceOnUse" color-interpolation-filters="sRGB"><feFlood flood-opacity="0" result="BackgroundImageFix"/><feColorMatrix in="SourceAlpha" values="0 0 0 0 0 0 0 0 0 0 0 0 0 0 0 0 0 0 127 0" result="hardAlpha"/><feOffset/><feGaussianBlur stdDeviation="6.061"/><feComposite in2="hardAlpha" operator="out"/><feColorMatrix values="0 0 0 0 0.380632 0 0 0 0 0.702703 0 0 0 0 1 0 0 0 1 0"/><feBlend in2="BackgroundImageFix" result="effect1_dropShadow_4423_76909"/><feBlend in="SourceGraphic" in2="effect1_dropShadow_4423_76909" result="shape"/></filter><filter id="filter9_d_4423_76909" x="22.971" y="51.536" width="28.914" height="28.914" filterUnits="userSpaceOnUse" color-interpolation-filters="sRGB"><feFlood flood-opacity="0" result="BackgroundImageFix"/><feColorMatrix in="SourceAlpha" values="0 0 0 0 0 0 0 0 0 0 0 0 0 0 0 0 0 0 127 0" result="hardAlpha"/><feOffset/><feGaussianBlur stdDeviation="6.061"/><feComposite in2="hardAlpha" operator="out"/><feColorMatrix values="0 0 0 0 0.380263 0 0 0 0 0.837491 0 0 0 0 0.964193 0 0 0 1 0"/><feBlend in2="BackgroundImageFix" result="effect1_dropShadow_4423_76909"/><feBlend in="SourceGraphic" in2="effect1_dropShadow_4423_76909" result="shape"/></filter><filter id="filter10_d_4423_76909" x="112.346" y="167.578" width="59.135" height="42.524" filterUnits="userSpaceOnUse" color-interpolation-filters="sRGB"><feFlood flood-opacity="0" result="BackgroundImageFix"/><feColorMatrix in="SourceAlpha" values="0 0 0 0 0 0 0 0 0 0 0 0 0 0 0 0 0 0 127 0" result="hardAlpha"/><feOffset/><feGaussianBlur stdDeviation="2.44"/><feComposite in2="hardAlpha" operator="out"/><feColorMatrix values="0 0 0 0 0.380263 0 0 0 0 0.837491 0 0 0 0 0.964193 0 0 0 1 0"/><feBlend in2="BackgroundImageFix" result="effect1_dropShadow_4423_76909"/><feBlend in="SourceGraphic" in2="effect1_dropShadow_4423_76909" result="shape"/></filter><filter id="filter11_f_4423_76909" x="213.685" y="251.733" width="165.325" height="23.689" filterUnits="userSpaceOnUse" color-interpolation-filters="sRGB"><feFlood flood-opacity="0" result="BackgroundImageFix"/><feBlend in="SourceGraphic" in2="BackgroundImageFix" result="shape"/><feGaussianBlur stdDeviation="3.923" result="effect1_foregroundBlur_4423_76909"/></filter><filter id="filter12_d_4423_76909" x="340.207" y="46.626" width="64.743" height="77.02" filterUnits="userSpaceOnUse" color-interpolation-filters="sRGB"><feFlood flood-opacity="0" result="BackgroundImageFix"/><feColorMatrix in="SourceAlpha" values="0 0 0 0 0 0 0 0 0 0 0 0 0 0 0 0 0 0 127 0" result="hardAlpha"/><feOffset/><feGaussianBlur stdDeviation="5.853"/><feColorMatrix values="0 0 0 0 0.137255 0 0 0 0 0.788235 0 0 0 0 0.968627 0 0 0 0.4263 0"/><feBlend in2="BackgroundImageFix" result="effect1_dropShadow_4423_76909"/><feBlend in="SourceGraphic" in2="effect1_dropShadow_4423_76909" result="shape"/></filter><filter id="filter13_d_4423_76909" x="278.486" y="19.302" width="64.743" height="77.02" filterUnits="userSpaceOnUse" color-interpolation-filters="sRGB"><feFlood flood-opacity="0" result="BackgroundImageFix"/><feColorMatrix in="SourceAlpha" values="0 0 0 0 0 0 0 0 0 0 0 0 0 0 0 0 0 0 127 0" result="hardAlpha"/><feOffset/><feGaussianBlur stdDeviation="5.853"/><feColorMatrix values="0 0 0 0 0.137255 0 0 0 0 0.788235 0 0 0 0 0.968627 0 0 0 0.4263 0"/><feBlend in2="BackgroundImageFix" result="effect1_dropShadow_4423_76909"/><feBlend in="SourceGraphic" in2="effect1_dropShadow_4423_76909" result="shape"/></filter><filter id="filter14_d_4423_76909" x="316.531" y="5.415" width="55.318" height="80.855" filterUnits="userSpaceOnUse" color-interpolation-filters="sRGB"><feFlood flood-opacity="0" result="BackgroundImageFix"/><feColorMatrix in="SourceAlpha" values="0 0 0 0 0 0 0 0 0 0 0 0 0 0 0 0 0 0 127 0" result="hardAlpha"/><feOffset/><feGaussianBlur stdDeviation="4.292"/><feColorMatrix values="0 0 0 0 0.137255 0 0 0 0 0.788235 0 0 0 0 0.968627 0 0 0 0.216701 0"/><feBlend in2="BackgroundImageFix" result="effect1_dropShadow_4423_76909"/><feBlend in="SourceGraphic" in2="effect1_dropShadow_4423_76909" result="shape"/></filter><radialGradient id="paint22_radial_4423_76909" cx="0" cy="0" r="1" gradientUnits="userSpaceOnUse" gradientTransform="rotate(104.323 34.663 55.577) scale(106.543 120.03)"><stop stop-color="#C0CED7"/><stop offset="1" stop-color="#F4F4F4" stop-opacity="0"/></radialGradient><radialGradient id="paint27_radial_4423_76909" cx="0" cy="0" r="1" gradientUnits="userSpaceOnUse" gradientTransform="matrix(31.1346 0 0 143.997 25.57 97.179)"><stop stop-color="#D6E1FF" stop-opacity="0"/><stop offset="1" stop-color="#7FB2FF"/></radialGradient><radialGradient id="paint28_radial_4423_76909" cx="0" cy="0" r="1" gradientUnits="userSpaceOnUse" gradientTransform="rotate(-32.897 207.077 4.852) scale(29.3351 138.863)"><stop stop-color="#D6E1FF" stop-opacity="0"/><stop offset="1" stop-color="#7FB2FF"/></radialGradient><radialGradient id="paint29_radial_4423_76909" cx="0" cy="0" r="1" gradientUnits="userSpaceOnUse" gradientTransform="matrix(31.1346 0 0 143.997 77.51 63.58)"><stop stop-color="#D6E1FF" stop-opacity="0"/><stop offset="1" stop-color="#7FB2FF"/></radialGradient><radialGradient id="paint30_radial_4423_76909" cx="0" cy="0" r="1" gradientUnits="userSpaceOnUse" gradientTransform="rotate(-32.897 176.147 -99.911) scale(29.3351 138.863)"><stop stop-color="#D6E1FF" stop-opacity="0"/><stop offset="1" stop-color="#7FB2FF"/></radialGradient><radialGradient id="paint43_radial_4423_76909" cx="0" cy="0" r="1" gradientUnits="userSpaceOnUse" gradientTransform="matrix(-200.90276 37.15171 -30.38578 -164.31509 392.44 131.929)"><stop stop-color="#1E2B41"/><stop offset=".49" stop-color="#26344C"/><stop offset=".916" stop-color="#0E1627"/></radialGradient><radialGradient id="paint44_radial_4423_76909" cx="0" cy="0" r="1" gradientUnits="userSpaceOnUse" gradientTransform="rotate(-133.682 199.503 1.976) scale(76.4918 79.8426)"><stop stop-color="#192539" stop-opacity=".09"/><stop offset="1" stop-color="#0E1627"/></radialGradient><radialGradient id="paint45_radial_4423_76909" cx="0" cy="0" r="1" gradientUnits="userSpaceOnUse" gradientTransform="rotate(-157.994 184.286 2.534) scale(71.4586 58.4449)"><stop stop-color="#15436F"/><stop offset="1" stop-color="#0E3D6C" stop-opacity="0"/></radialGradient><radialGradient id="paint48_radial_4423_76909" cx="0" cy="0" r="1" gradientUnits="userSpaceOnUse" gradientTransform="rotate(18.077 -219.124 1037.833) scale(22.2834)"><stop stop-color="#F5F7FA"/><stop offset="1" stop-color="#ACCBDC"/></radialGradient><radialGradient id="paint49_radial_4423_76909" cx="0" cy="0" r="1" gradientUnits="userSpaceOnUse" gradientTransform="rotate(18.077 -229.853 1164.633) scale(22.2834)"><stop stop-color="#F5F7FA"/><stop offset="1" stop-color="#ACCBDC"/></radialGradient></defs></svg>