<svg xmlns="http://www.w3.org/2000/svg" width="120" height="122" fill="none"><circle cx="60" cy="61" r="60" fill="url(#paint0_linear_2209_23750)"/><circle cx="60" cy="61" r="60" fill="url(#paint1_linear_2209_23750)"/><circle cx="60" cy="61" r="59" stroke="url(#paint2_linear_2209_23750)" stroke-width="2"/><path fill="url(#paint3_radial_2209_23750)" d="M92.39 116.066c-1.594 5.862-22.76 5.213-47.275-1.451-24.516-6.664-43.098-16.818-41.504-22.68 1.593-5.863 22.759-5.214 47.274 1.45 24.516 6.664 43.098 16.818 41.504 22.681z" opacity=".7"/><path fill="url(#paint4_linear_2209_23750)" d="M114.502 108.443a6.517 6.517 0 0 1-.193 2.012c-3.147 12.209-21.593 7.827-30.29 4.924l-71.515-21.11C5.942 92.026 1 88.61 1 84.572c0-.119.003-.237.008-.356V41.278l8.002-4.933 30.524 4.762 9.13 3.045a52.585 52.585 0 0 1 10.895-1.12c13.634 0 25.313 6.41 27.384 13.885l6.756 2.254c3.04.576 5.798 1.508 8.127 2.71l12.676 4.227v42.335z"/><path fill="url(#paint5_linear_2209_23750)" d="M114.51 104.772a6.523 6.523 0 0 1-.193 2.013c-3.147 12.208-21.592 7.827-30.29 4.923L12.511 90.599C5.95 88.355 1.008 84.94 1.008 80.901c0-.12.003-.238.008-.356l-.008-39.267 8.002-4.933 30.524 4.762 9.13 3.045a52.585 52.585 0 0 1 10.895-1.12c13.634 0 25.313 6.41 27.384 13.885l6.765-1.417c3.038.576 5.797 1.508 8.126 2.71l12.676 7.553v39.009z"/><path fill="url(#paint6_linear_2209_23750)" fill-opacity=".2" d="M114.502 108.443a6.517 6.517 0 0 1-.193 2.012c-3.147 12.209-21.593 7.827-30.29 4.924l-71.515-21.11C5.942 92.026 1 88.61 1 84.572c0-.119.003-.237.008-.356V41.278l8.002-4.933 30.524 4.762 9.13 3.045a52.585 52.585 0 0 1 10.895-1.12c13.634 0 25.313 6.41 27.384 13.885l6.756 2.254c3.04.576 5.798 1.508 8.127 2.71l12.676 4.227v42.335z"/><path fill="url(#paint7_linear_2209_23750)" fill-opacity=".3" d="M114.502 108.443a6.517 6.517 0 0 1-.193 2.012c-3.147 12.209-21.593 7.827-30.29 4.924l-71.515-21.11C5.942 92.026 1 88.61 1 84.572c0-.119.003-.237.008-.356V41.278l8.002-4.933 30.524 4.762 9.13 3.045a52.585 52.585 0 0 1 10.895-1.12c13.634 0 25.313 6.41 27.384 13.885l6.756 2.254c3.04.576 5.798 1.508 8.127 2.71l12.676 4.227v42.335z"/><path fill="url(#paint8_linear_2209_23750)" fill-opacity=".4" d="M114.502 108.443a6.517 6.517 0 0 1-.193 2.012c-3.147 12.209-21.593 7.827-30.29 4.924l-71.515-21.11C5.942 92.026 1 88.61 1 84.572c0-.119.003-.237.008-.356V41.278l8.002-4.933 30.524 4.762 9.13 3.045a52.585 52.585 0 0 1 10.895-1.12c13.634 0 25.313 6.41 27.384 13.885l6.756 2.254c3.04.576 5.798 1.508 8.127 2.71l12.676 4.227v42.335z"/><path fill="url(#paint9_radial_2209_23750)" d="M114.309 67.424c1.101-4.268-2.331-9.152-8.415-13.005 2.219-1.69 3.565-3.628 3.565-5.735 0-7.154-9.885-12.979-22.223-13.199C86.513 27.35 74.156 20 59.559 20c-11.989 0-22.37 3.92-27.4 9.205a38.246 38.246 0 0 0-8.212-.87C11.274 28.335 1 34.247 1 41.54c0 4.038 4.942 7.454 11.504 9.699l71.514 21.109c8.698 2.903 27.144 7.285 30.291-4.924z"/><path fill="url(#paint10_linear_2209_23750)" fill-opacity=".5" d="M114.309 67.424c1.101-4.268-2.331-9.152-8.415-13.005 2.219-1.69 3.565-3.628 3.565-5.735 0-7.154-9.885-12.979-22.223-13.199C86.513 27.35 74.156 20 59.559 20c-11.989 0-22.37 3.92-27.4 9.205a38.246 38.246 0 0 0-8.212-.87C11.274 28.335 1 34.247 1 41.54c0 4.038 4.942 7.454 11.504 9.699l71.514 21.109c8.698 2.903 27.144 7.285 30.291-4.924z"/><path fill="url(#paint11_linear_2209_23750)" fill-opacity=".3" d="M114.309 67.424c1.101-4.268-2.331-9.152-8.415-13.005 2.219-1.69 3.565-3.628 3.565-5.735 0-7.154-9.885-12.979-22.223-13.199C86.513 27.35 74.156 20 59.559 20c-11.989 0-22.37 3.92-27.4 9.205a38.246 38.246 0 0 0-8.212-.87C11.274 28.335 1 34.247 1 41.54c0 4.038 4.942 7.454 11.504 9.699l71.514 21.109c8.698 2.903 27.144 7.285 30.291-4.924z"/><path stroke="url(#paint12_linear_2209_23750)" stroke-linecap="round" stroke-linejoin="round" stroke-opacity=".5" stroke-width=".3" d="M114.309 67.424c1.101-4.268-2.331-9.152-8.415-13.005 2.219-1.69 3.565-3.628 3.565-5.735 0-7.154-9.885-12.979-22.223-13.199C86.513 27.35 74.156 20 59.559 20c-11.989 0-22.37 3.92-27.4 9.205a38.246 38.246 0 0 0-8.212-.87C11.274 28.335 1 34.247 1 41.54c0 4.038 4.942 7.454 11.504 9.699l71.514 21.109c8.698 2.903 27.144 7.285 30.291-4.924z"/><path fill="url(#paint13_radial_2209_23750)" d="M107.842 64.707c.853-3.304-5.808-8.084-10.524-11.066 1.72-1.308 4.554-1.868 5.764-4.44C106 43 90.419 37.157 80.853 36.987 80.293 30.688 70.714 25 59.397 25c-9.294 0-17.341 3.035-21.241 7.125-1.977-.435-10.123-.674-12.366-.674C15.965 31.451 8 36.027 8 41.672c0 3.126 3.83 5.77 8.918 7.507L84.36 68.518c6.743 2.247 21.043 5.638 23.483-3.811z" opacity=".7"/><path fill="url(#paint14_linear_2209_23750)" d="M107.842 64.707c.853-3.304-5.808-8.084-10.524-11.066 1.72-1.308 5.764-2.808 5.764-4.44 0-5.536-12.663-12.045-22.229-12.215C80.293 30.688 70.714 25 59.397 25c-9.294 0-17.341 3.035-21.241 7.125-1.977-.435-10.123-.674-12.366-.674C15.965 31.451 8 36.027 8 41.672c0 3.126 3.83 5.77 8.918 7.507L84.36 68.518c6.743 2.247 21.043 5.638 23.483-3.811z"/><path fill="url(#paint15_linear_2209_23750)" d="M57.5 27c-9.294 0-15.444 1.035-19.344 5.125-1.977-.435-10.123-.674-12.366-.674C15.965 31.451 8 36.027 8 41.672c0 3.126 3.83 5.77 8.918 7.507C68.39 63.94 98.603 30 57.5 27z" opacity=".5"/><path fill="url(#paint16_linear_2209_23750)" d="M85 36.5c-7.252-1.78-10.763 5.375-14.586 7.804-1.459-.716-7.77-2.46-9.52-2.89-7.666-1.88-14.753.148-15.828 4.53-.595 2.428 1.89 5.214 5.529 7.536C87.945 74.792 105.367 41.497 85 36.5z" opacity=".3"/><path fill="url(#paint17_linear_2209_23750)" d="M95.57 56.624c-5.122-3.006-10.466-4.06-13.841-3.233-.959-.861-5.376-3.618-6.612-4.343-5.415-3.178-11.175-3.418-12.867-.536-.936 1.596-2.282 2.347 0 4.88 23.941 24.183 47.704 11.675 33.32 3.232z" opacity=".2"/><path fill="url(#paint18_linear_2209_23750)" d="M6 82.842v-20.5a2.521 2.521 0 0 1 3.214-2.424l53.306 15.23A4.109 4.109 0 0 1 65.5 79.1v19.302a2.521 2.521 0 0 1-3.214 2.424L7.83 85.265A2.521 2.521 0 0 1 6 82.843z" opacity=".7"/><path stroke="#080B10" stroke-linecap="round" stroke-linejoin="round" stroke-width="1.437" d="M30 81c.4 0 20.167 5.667 30 8.5M30 87c.4 0 20.167 5.667 30 8.5" opacity=".5"/><path stroke="#F7E2EB" stroke-linecap="round" stroke-linejoin="round" stroke-width="1.44" d="M30 87s8.167 2.167 18 5"/><path stroke="#080B10" stroke-linecap="round" stroke-linejoin="round" stroke-width="1.437" d="M32 75.544c2.045.4 2.864-2.219 4.5-2.045 1.913.204 2.26 3.51 4.09 4.1 2.069.667 3.256-2.318 5.32-1.636 1.942.643 1.272 3.66 3.272 4.091 1.887.407 3.403-1.887 5.318-1.646 2.242.282 1.636 3.263 4.5 4.091" opacity=".5"/><path stroke="#F7E2EB" stroke-linecap="round" stroke-linejoin="round" stroke-width="1.44" d="M32 75.544c2.045.4 2.864-2.219 4.5-2.045 1.913.204 2.26 3.51 4.09 4.1 2.069.667 3.256-2.318 5.32-1.636 1.942.643 1.272 3.66 3.272 4.091"/><path stroke="#090B11" stroke-linecap="round" stroke-linejoin="round" stroke-width="1.437" d="M14.56 83.66V65.597m4.79 19.962V67.193" opacity=".5"/><path stroke="#080B10" stroke-linecap="round" stroke-linejoin="round" stroke-width="1.437" d="M24.14 86.508V68.79M9.77 82.237V64" opacity=".5"/><g stroke="#F7E2EB" stroke-linecap="round" stroke-linejoin="round" stroke-width="1.437" filter="url(#filter0_d_2209_23750)"><path d="M9.77 82.237V67.992m4.79 15.668v-7.685m4.79 9.827V72.63M24.14 87v-6.386"/></g><path fill="#60A0EF" d="M6.5 83.43V62.846a2.521 2.521 0 0 1 3.217-2.423L61.805 75.37c.338.097.274.607-.077.604-6.586-.05-25.759-.007-34.228 2.026-9.255 2.221-16.317 5.124-19.36 6.481-.761.34-1.64-.218-1.64-1.051z" opacity=".1"/><path stroke="#0C1321" stroke-linecap="round" stroke-linejoin="round" stroke-width="2.2" d="m77 91 13.333 4M77 87l13.333 4M77 83l13.333 4"/><g filter="url(#filter1_d_2209_23750)"><path fill="url(#paint19_linear_2209_23750)" d="M90.114 56.896c.557-2.155-3.787-5.273-6.863-7.217 1.122-.853 1.802-1.832 1.802-2.895 0-3.611-6.302-7.856-12.54-7.967C72.148 34.71 65.9 31 58.52 31c-6.062 0-11.31 1.98-13.853 4.647-1.29-.284-6.602-.44-8.065-.44-6.408 0-11.602 2.985-11.602 6.666 0 2.039 2.498 3.763 5.816 4.896L74.8 59.381c4.398 1.466 13.724 3.678 15.315-2.485z"/></g><g filter="url(#filter2_d_2209_23750)" opacity=".239"><path fill="url(#paint20_linear_2209_23750)" d="M90.114 47.896c.557-2.155-3.787-5.273-6.863-7.217 1.122-.853 1.802-1.832 1.802-2.895 0-3.611-6.302-7.856-12.54-7.967C72.148 25.71 65.9 22 58.52 22c-6.062 0-11.31 1.98-13.853 4.647-1.29-.284-6.602-.44-8.065-.44-6.408 0-11.602 2.985-11.602 6.666 0 2.039 2.498 3.763 5.816 4.896L74.8 50.381c4.398 1.466 13.724 3.678 15.315-2.485z"/></g><g filter="url(#filter3_d_2209_23750)"><path fill="#fff" d="M41.034 8.11H38v1.452h3.034z"/></g><g filter="url(#filter4_d_2209_23750)"><path fill="#fff" d="M43.343 8.094h-1.3v1.451h1.3z"/></g><path fill="#fff" d="M57.092 8.094h-6.807v1.451h6.807z" opacity=".2"/><g filter="url(#filter5_d_2209_23750)"><path fill="#fff" d="M68.565 8.094h-4.97v1.451h4.97z"/></g><path fill="#fff" d="M48.23 8.094h-3.976v1.451h3.977z" opacity=".2"/><g filter="url(#filter6_d_2209_23750)"><path fill="#fff" d="M64.637 13.188h-1.69v1.451h1.69z"/></g><g filter="url(#filter7_d_2209_23750)"><path fill="#fff" d="M48.478 13.188h-4.513v1.451h4.513z"/></g><path fill="#fff" d="M42.513 13.188H38v1.451h4.513zm15.768 0h-6.272v1.451h6.272z" opacity=".2"/><g filter="url(#filter8_d_2209_23750)"><path fill="#fff" d="M68.565 18.283h-3.034v1.45h3.034z"/></g><path fill="#fff" d="M64.637 18.283h-1.69v1.45h1.69z" opacity=".2"/><g filter="url(#filter9_d_2209_23750)"><path fill="#fff" d="M56.28 18.283h-6.807v1.45h6.807z"/></g><path fill="#fff" d="M48.478 18.283h-4.513v1.45h4.513zm13.138 0h-4.513v1.45h4.513zm-19.103 0H38v1.45h4.513z" opacity=".2"/><path fill="#fff" d="M41.034 3H38v1.451h3.034z"/><g filter="url(#filter10_d_2209_23750)"><path fill="#fff" d="M54.33 3h-3.595v1.451h3.595z"/></g><g filter="url(#filter11_d_2209_23750)"><path fill="#fff" d="M62.598 3h-4.513v1.451h4.513z"/></g><g filter="url(#filter12_d_2209_23750)"><path fill="#fff" d="M48.23 3h-3.977v1.451h3.977z"/></g><g opacity=".3"><g filter="url(#filter13_d_2209_23750)"><path fill="#fff" d="M41.035 28.471H38v1.451h3.034z"/></g><g filter="url(#filter14_d_2209_23750)"><path fill="#fff" d="M43.343 28.471h-1.3v1.451h1.3z"/></g><path fill="#fff" d="M57.092 28.471h-6.807v1.451h6.807z" opacity=".2"/><g filter="url(#filter15_d_2209_23750)"><path fill="#fff" d="M68.565 28.471h-4.97v1.451h4.97z"/></g><path fill="#fff" d="M48.23 28.471h-3.976v1.451h3.977z" opacity=".2"/></g><g opacity=".2"><g filter="url(#filter16_d_2209_23750)"><path fill="#fff" d="M64.637 33.565h-1.69v1.451h1.69z"/></g><g filter="url(#filter17_d_2209_23750)"><path fill="#fff" d="M53.974 33.565h-4.512v1.451h4.512z"/></g><path fill="#fff" d="M42.513 33.565H38v1.451h4.513zm19.343 0h-6.272v1.451h6.272z" opacity=".2"/></g><g opacity=".1"><g filter="url(#filter18_d_2209_23750)"><path fill="#fff" d="M68.565 38.66h-3.034v1.45h3.034z"/></g><path fill="#fff" d="M64.637 38.66h-1.69v1.45h1.69z" opacity=".2"/><g filter="url(#filter19_d_2209_23750)"><path fill="#fff" d="M56.28 38.66h-6.807v1.45h6.807z"/></g><path fill="#fff" d="M48.478 38.66h-4.513v1.45h4.513zm-5.965 0H38v1.45h4.513z" opacity=".2"/></g><g opacity=".6"><path fill="#fff" d="M41.034 23.377H38v1.45h3.034z" opacity=".2"/><g filter="url(#filter20_d_2209_23750)"><path fill="#fff" d="M69.013 23.377h-1.722v1.45h1.722z"/></g><path fill="#fff" d="M56.877 23.377h-3.595v1.45h3.595zm5.722 0h-4.513v1.45h4.513z" opacity=".2"/><g filter="url(#filter21_d_2209_23750)"><path fill="#fff" d="M48.23 23.377h-3.977v1.45h3.977z"/></g></g><g filter="url(#filter22_d_2209_23750)"><path fill="#fff" d="M79.181 8.111h3.034v1.451h-3.034z"/></g><g filter="url(#filter23_d_2209_23750)"><path fill="#fff" d="M76.872 8.094h1.3v1.451h-1.3z"/></g><g filter="url(#filter24_d_2209_23750)"><path fill="#fff" d="M51.65 8.094h4.971v1.451H51.65z"/></g><path fill="#fff" d="M71.984 8.094h3.977v1.451h-3.977z" opacity=".2"/><g filter="url(#filter25_d_2209_23750)"><path fill="#fff" d="M71.737 13.188h4.513v1.451h-4.513z"/></g><path fill="#fff" d="M77.703 13.188h4.513v1.451h-4.513z" opacity=".2"/><g filter="url(#filter26_d_2209_23750)"><path fill="#fff" d="M63.935 18.283h6.807v1.451h-6.807z"/></g><path fill="#fff" d="M71.737 18.283h4.513v1.451h-4.513zm5.966 0h4.513v1.451h-4.513z" opacity=".2"/><path fill="#fff" d="M79.181 3h3.034v1.451h-3.034z"/><g filter="url(#filter27_d_2209_23750)"><path fill="#fff" d="M65.885 3h3.595v1.451h-3.595z"/></g><g filter="url(#filter28_d_2209_23750)"><path fill="#fff" d="M57.617 3h4.513v1.451h-4.513z"/></g><g filter="url(#filter29_d_2209_23750)"><path fill="#fff" d="M71.985 3h3.977v1.451h-3.977z"/></g><g opacity=".3"><g filter="url(#filter30_d_2209_23750)"><path fill="#fff" d="M79.18 28.471h3.034v1.451H79.18z"/></g><g filter="url(#filter31_d_2209_23750)"><path fill="#fff" d="M76.872 28.471h1.3v1.451h-1.3z"/></g><path fill="#fff" d="M63.123 28.471h6.807v1.451h-6.807z" opacity=".2"/><g filter="url(#filter32_d_2209_23750)"><path fill="#fff" d="M51.65 28.471h4.971v1.451H51.65z"/></g><path fill="#fff" d="M71.984 28.471h3.977v1.451h-3.977z" opacity=".2"/></g><g opacity=".2"><g filter="url(#filter33_d_2209_23750)"><path fill="#fff" d="M55.578 33.565h1.689v1.451h-1.689z"/></g><g filter="url(#filter34_d_2209_23750)"><path fill="#fff" d="M66.24 33.565h4.513v1.451H66.24z"/></g><path fill="#fff" d="M77.703 33.565h4.513v1.451h-4.513zm-19.344 0h6.272v1.451h-6.272z" opacity=".2"/></g><g opacity=".1"><g filter="url(#filter35_d_2209_23750)"><path fill="#fff" d="M51.65 38.659h3.034v1.451H51.65z"/></g><path fill="#fff" d="M55.578 38.659h1.689v1.451h-1.689z" opacity=".2"/><g filter="url(#filter36_d_2209_23750)"><path fill="#fff" d="M63.935 38.659h6.807v1.451h-6.807z"/></g><path fill="#fff" d="M71.737 38.659h4.513v1.451h-4.513zm5.966 0h4.513v1.451h-4.513z" opacity=".2"/></g><g opacity=".6"><path fill="#fff" d="M79.181 23.377h3.034v1.451h-3.034z" opacity=".2"/><g filter="url(#filter37_d_2209_23750)"><path fill="#fff" d="M51.202 23.377h1.722v1.451h-1.722z"/></g><path fill="#fff" d="M63.338 23.377h3.595v1.451h-3.595zm-5.721 0h4.513v1.451h-4.513z" opacity=".2"/><g filter="url(#filter38_d_2209_23750)"><path fill="#fff" d="M71.985 23.377h3.977v1.451h-3.977z"/></g></g><circle cx="76.429" cy="101.429" r="1.429" fill="#0E1523"/><g filter="url(#filter39_d_2209_23750)"><circle cx="76.429" cy="101.429" r=".905" fill="url(#paint21_linear_2209_23750)"/></g><circle cx="80.714" cy="102.714" r="1.429" fill="#0E1523"/><circle cx="85" cy="104" r="1.429" fill="#0E1523"/><circle cx="89.286" cy="105.429" r="1.429" fill="#0E1523"/><g filter="url(#filter40_d_2209_23750)"><circle cx="89.286" cy="105.429" r=".905" fill="url(#paint22_linear_2209_23750)"/></g><defs><filter id="filter0_d_2209_23750" width="19" height="23.639" x="7.456" y="65.676" color-interpolation-filters="sRGB" filterUnits="userSpaceOnUse"><feFlood flood-opacity="0" result="BackgroundImageFix"/><feColorMatrix in="SourceAlpha" result="hardAlpha" values="0 0 0 0 0 0 0 0 0 0 0 0 0 0 0 0 0 0 127 0"/><feOffset/><feGaussianBlur stdDeviation=".798"/><feComposite in2="hardAlpha" operator="out"/><feColorMatrix values="0 0 0 0 1 0 0 0 0 0.500228 0 0 0 0 0.714416 0 0 0 0.4 0"/><feBlend in2="BackgroundImageFix" result="effect1_dropShadow_2209_23750"/><feBlend in="SourceGraphic" in2="effect1_dropShadow_2209_23750" result="shape"/></filter><filter id="filter1_d_2209_23750" width="101.935" height="66.772" x="6.614" y="12.614" color-interpolation-filters="sRGB" filterUnits="userSpaceOnUse"><feFlood flood-opacity="0" result="BackgroundImageFix"/><feColorMatrix in="SourceAlpha" result="hardAlpha" values="0 0 0 0 0 0 0 0 0 0 0 0 0 0 0 0 0 0 127 0"/><feOffset/><feGaussianBlur stdDeviation="9.193"/><feColorMatrix values="0 0 0 0 0.951002 0 0 0 0 0.370525 0 0 0 0 0.610455 0 0 0 1 0"/><feBlend in2="BackgroundImageFix" result="effect1_dropShadow_2209_23750"/><feBlend in="SourceGraphic" in2="effect1_dropShadow_2209_23750" result="shape"/></filter><filter id="filter2_d_2209_23750" width="101.935" height="66.772" x="6.614" y="3.614" color-interpolation-filters="sRGB" filterUnits="userSpaceOnUse"><feFlood flood-opacity="0" result="BackgroundImageFix"/><feColorMatrix in="SourceAlpha" result="hardAlpha" values="0 0 0 0 0 0 0 0 0 0 0 0 0 0 0 0 0 0 127 0"/><feOffset/><feGaussianBlur stdDeviation="9.193"/><feColorMatrix values="0 0 0 0 0.951002 0 0 0 0 0.370525 0 0 0 0 0.610455 0 0 0 1 0"/><feBlend in2="BackgroundImageFix" result="effect1_dropShadow_2209_23750"/><feBlend in="SourceGraphic" in2="effect1_dropShadow_2209_23750" result="shape"/></filter><filter id="filter3_d_2209_23750" width="8.128" height="6.545" x="35.453" y="5.564" color-interpolation-filters="sRGB" filterUnits="userSpaceOnUse"><feFlood flood-opacity="0" result="BackgroundImageFix"/><feColorMatrix in="SourceAlpha" result="hardAlpha" values="0 0 0 0 0 0 0 0 0 0 0 0 0 0 0 0 0 0 127 0"/><feOffset/><feGaussianBlur stdDeviation="1.274"/><feComposite in2="hardAlpha" operator="out"/><feColorMatrix values="0 0 0 0 1 0 0 0 0 0.600195 0 0 0 0 0.777886 0 0 0 1 0"/><feBlend in2="BackgroundImageFix" result="effect1_dropShadow_2209_23750"/><feBlend in="SourceGraphic" in2="effect1_dropShadow_2209_23750" result="shape"/></filter><filter id="filter4_d_2209_23750" width="6.394" height="6.545" x="39.496" y="5.547" color-interpolation-filters="sRGB" filterUnits="userSpaceOnUse"><feFlood flood-opacity="0" result="BackgroundImageFix"/><feColorMatrix in="SourceAlpha" result="hardAlpha" values="0 0 0 0 0 0 0 0 0 0 0 0 0 0 0 0 0 0 127 0"/><feOffset/><feGaussianBlur stdDeviation="1.274"/><feComposite in2="hardAlpha" operator="out"/><feColorMatrix values="0 0 0 0 1 0 0 0 0 0.600195 0 0 0 0 0.777886 0 0 0 1 0"/><feBlend in2="BackgroundImageFix" result="effect1_dropShadow_2209_23750"/><feBlend in="SourceGraphic" in2="effect1_dropShadow_2209_23750" result="shape"/></filter><filter id="filter5_d_2209_23750" width="10.066" height="6.545" x="61.047" y="5.547" color-interpolation-filters="sRGB" filterUnits="userSpaceOnUse"><feFlood flood-opacity="0" result="BackgroundImageFix"/><feColorMatrix in="SourceAlpha" result="hardAlpha" values="0 0 0 0 0 0 0 0 0 0 0 0 0 0 0 0 0 0 127 0"/><feOffset/><feGaussianBlur stdDeviation="1.274"/><feComposite in2="hardAlpha" operator="out"/><feColorMatrix values="0 0 0 0 1 0 0 0 0 0.600195 0 0 0 0 0.777886 0 0 0 1 0"/><feBlend in2="BackgroundImageFix" result="effect1_dropShadow_2209_23750"/><feBlend in="SourceGraphic" in2="effect1_dropShadow_2209_23750" result="shape"/></filter><filter id="filter6_d_2209_23750" width="6.783" height="6.545" x="60.401" y="10.641" color-interpolation-filters="sRGB" filterUnits="userSpaceOnUse"><feFlood flood-opacity="0" result="BackgroundImageFix"/><feColorMatrix in="SourceAlpha" result="hardAlpha" values="0 0 0 0 0 0 0 0 0 0 0 0 0 0 0 0 0 0 127 0"/><feOffset/><feGaussianBlur stdDeviation="1.274"/><feComposite in2="hardAlpha" operator="out"/><feColorMatrix values="0 0 0 0 1 0 0 0 0 0.600195 0 0 0 0 0.777886 0 0 0 1 0"/><feBlend in2="BackgroundImageFix" result="effect1_dropShadow_2209_23750"/><feBlend in="SourceGraphic" in2="effect1_dropShadow_2209_23750" result="shape"/></filter><filter id="filter7_d_2209_23750" width="9.607" height="6.545" x="41.419" y="10.641" color-interpolation-filters="sRGB" filterUnits="userSpaceOnUse"><feFlood flood-opacity="0" result="BackgroundImageFix"/><feColorMatrix in="SourceAlpha" result="hardAlpha" values="0 0 0 0 0 0 0 0 0 0 0 0 0 0 0 0 0 0 127 0"/><feOffset/><feGaussianBlur stdDeviation="1.274"/><feComposite in2="hardAlpha" operator="out"/><feColorMatrix values="0 0 0 0 1 0 0 0 0 0.600195 0 0 0 0 0.777886 0 0 0 1 0"/><feBlend in2="BackgroundImageFix" result="effect1_dropShadow_2209_23750"/><feBlend in="SourceGraphic" in2="effect1_dropShadow_2209_23750" result="shape"/></filter><filter id="filter8_d_2209_23750" width="8.128" height="6.545" x="62.984" y="15.736" color-interpolation-filters="sRGB" filterUnits="userSpaceOnUse"><feFlood flood-opacity="0" result="BackgroundImageFix"/><feColorMatrix in="SourceAlpha" result="hardAlpha" values="0 0 0 0 0 0 0 0 0 0 0 0 0 0 0 0 0 0 127 0"/><feOffset/><feGaussianBlur stdDeviation="1.274"/><feComposite in2="hardAlpha" operator="out"/><feColorMatrix values="0 0 0 0 1 0 0 0 0 0.600195 0 0 0 0 0.777886 0 0 0 1 0"/><feBlend in2="BackgroundImageFix" result="effect1_dropShadow_2209_23750"/><feBlend in="SourceGraphic" in2="effect1_dropShadow_2209_23750" result="shape"/></filter><filter id="filter9_d_2209_23750" width="11.901" height="6.545" x="46.926" y="15.736" color-interpolation-filters="sRGB" filterUnits="userSpaceOnUse"><feFlood flood-opacity="0" result="BackgroundImageFix"/><feColorMatrix in="SourceAlpha" result="hardAlpha" values="0 0 0 0 0 0 0 0 0 0 0 0 0 0 0 0 0 0 127 0"/><feOffset/><feGaussianBlur stdDeviation="1.274"/><feComposite in2="hardAlpha" operator="out"/><feColorMatrix values="0 0 0 0 1 0 0 0 0 0.600195 0 0 0 0 0.777886 0 0 0 1 0"/><feBlend in2="BackgroundImageFix" result="effect1_dropShadow_2209_23750"/><feBlend in="SourceGraphic" in2="effect1_dropShadow_2209_23750" result="shape"/></filter><filter id="filter10_d_2209_23750" width="8.689" height="6.545" x="48.188" y=".453" color-interpolation-filters="sRGB" filterUnits="userSpaceOnUse"><feFlood flood-opacity="0" result="BackgroundImageFix"/><feColorMatrix in="SourceAlpha" result="hardAlpha" values="0 0 0 0 0 0 0 0 0 0 0 0 0 0 0 0 0 0 127 0"/><feOffset/><feGaussianBlur stdDeviation="1.274"/><feComposite in2="hardAlpha" operator="out"/><feColorMatrix values="0 0 0 0 1 0 0 0 0 0.600195 0 0 0 0 0.777886 0 0 0 1 0"/><feBlend in2="BackgroundImageFix" result="effect1_dropShadow_2209_23750"/><feBlend in="SourceGraphic" in2="effect1_dropShadow_2209_23750" result="shape"/></filter><filter id="filter11_d_2209_23750" width="9.607" height="6.545" x="55.539" y=".453" color-interpolation-filters="sRGB" filterUnits="userSpaceOnUse"><feFlood flood-opacity="0" result="BackgroundImageFix"/><feColorMatrix in="SourceAlpha" result="hardAlpha" values="0 0 0 0 0 0 0 0 0 0 0 0 0 0 0 0 0 0 127 0"/><feOffset/><feGaussianBlur stdDeviation="1.274"/><feComposite in2="hardAlpha" operator="out"/><feColorMatrix values="0 0 0 0 1 0 0 0 0 0.600195 0 0 0 0 0.777886 0 0 0 1 0"/><feBlend in2="BackgroundImageFix" result="effect1_dropShadow_2209_23750"/><feBlend in="SourceGraphic" in2="effect1_dropShadow_2209_23750" result="shape"/></filter><filter id="filter12_d_2209_23750" width="9.072" height="6.545" x="41.705" y=".453" color-interpolation-filters="sRGB" filterUnits="userSpaceOnUse"><feFlood flood-opacity="0" result="BackgroundImageFix"/><feColorMatrix in="SourceAlpha" result="hardAlpha" values="0 0 0 0 0 0 0 0 0 0 0 0 0 0 0 0 0 0 127 0"/><feOffset/><feGaussianBlur stdDeviation="1.274"/><feComposite in2="hardAlpha" operator="out"/><feColorMatrix values="0 0 0 0 1 0 0 0 0 0.600195 0 0 0 0 0.777886 0 0 0 1 0"/><feBlend in2="BackgroundImageFix" result="effect1_dropShadow_2209_23750"/><feBlend in="SourceGraphic" in2="effect1_dropShadow_2209_23750" result="shape"/></filter><filter id="filter13_d_2209_23750" width="8.128" height="6.545" x="35.454" y="25.924" color-interpolation-filters="sRGB" filterUnits="userSpaceOnUse"><feFlood flood-opacity="0" result="BackgroundImageFix"/><feColorMatrix in="SourceAlpha" result="hardAlpha" values="0 0 0 0 0 0 0 0 0 0 0 0 0 0 0 0 0 0 127 0"/><feOffset/><feGaussianBlur stdDeviation="1.274"/><feComposite in2="hardAlpha" operator="out"/><feColorMatrix values="0 0 0 0 1 0 0 0 0 0.600195 0 0 0 0 0.777886 0 0 0 1 0"/><feBlend in2="BackgroundImageFix" result="effect1_dropShadow_2209_23750"/><feBlend in="SourceGraphic" in2="effect1_dropShadow_2209_23750" result="shape"/></filter><filter id="filter14_d_2209_23750" width="6.394" height="6.545" x="39.496" y="25.924" color-interpolation-filters="sRGB" filterUnits="userSpaceOnUse"><feFlood flood-opacity="0" result="BackgroundImageFix"/><feColorMatrix in="SourceAlpha" result="hardAlpha" values="0 0 0 0 0 0 0 0 0 0 0 0 0 0 0 0 0 0 127 0"/><feOffset/><feGaussianBlur stdDeviation="1.274"/><feComposite in2="hardAlpha" operator="out"/><feColorMatrix values="0 0 0 0 1 0 0 0 0 0.600195 0 0 0 0 0.777886 0 0 0 1 0"/><feBlend in2="BackgroundImageFix" result="effect1_dropShadow_2209_23750"/><feBlend in="SourceGraphic" in2="effect1_dropShadow_2209_23750" result="shape"/></filter><filter id="filter15_d_2209_23750" width="10.066" height="6.545" x="61.047" y="25.924" color-interpolation-filters="sRGB" filterUnits="userSpaceOnUse"><feFlood flood-opacity="0" result="BackgroundImageFix"/><feColorMatrix in="SourceAlpha" result="hardAlpha" values="0 0 0 0 0 0 0 0 0 0 0 0 0 0 0 0 0 0 127 0"/><feOffset/><feGaussianBlur stdDeviation="1.274"/><feComposite in2="hardAlpha" operator="out"/><feColorMatrix values="0 0 0 0 1 0 0 0 0 0.600195 0 0 0 0 0.777886 0 0 0 1 0"/><feBlend in2="BackgroundImageFix" result="effect1_dropShadow_2209_23750"/><feBlend in="SourceGraphic" in2="effect1_dropShadow_2209_23750" result="shape"/></filter><filter id="filter16_d_2209_23750" width="6.783" height="6.545" x="60.401" y="31.018" color-interpolation-filters="sRGB" filterUnits="userSpaceOnUse"><feFlood flood-opacity="0" result="BackgroundImageFix"/><feColorMatrix in="SourceAlpha" result="hardAlpha" values="0 0 0 0 0 0 0 0 0 0 0 0 0 0 0 0 0 0 127 0"/><feOffset/><feGaussianBlur stdDeviation="1.274"/><feComposite in2="hardAlpha" operator="out"/><feColorMatrix values="0 0 0 0 1 0 0 0 0 0.600195 0 0 0 0 0.777886 0 0 0 1 0"/><feBlend in2="BackgroundImageFix" result="effect1_dropShadow_2209_23750"/><feBlend in="SourceGraphic" in2="effect1_dropShadow_2209_23750" result="shape"/></filter><filter id="filter17_d_2209_23750" width="9.607" height="6.545" x="46.915" y="31.018" color-interpolation-filters="sRGB" filterUnits="userSpaceOnUse"><feFlood flood-opacity="0" result="BackgroundImageFix"/><feColorMatrix in="SourceAlpha" result="hardAlpha" values="0 0 0 0 0 0 0 0 0 0 0 0 0 0 0 0 0 0 127 0"/><feOffset/><feGaussianBlur stdDeviation="1.274"/><feComposite in2="hardAlpha" operator="out"/><feColorMatrix values="0 0 0 0 1 0 0 0 0 0.600195 0 0 0 0 0.777886 0 0 0 1 0"/><feBlend in2="BackgroundImageFix" result="effect1_dropShadow_2209_23750"/><feBlend in="SourceGraphic" in2="effect1_dropShadow_2209_23750" result="shape"/></filter><filter id="filter18_d_2209_23750" width="8.128" height="6.545" x="62.984" y="36.112" color-interpolation-filters="sRGB" filterUnits="userSpaceOnUse"><feFlood flood-opacity="0" result="BackgroundImageFix"/><feColorMatrix in="SourceAlpha" result="hardAlpha" values="0 0 0 0 0 0 0 0 0 0 0 0 0 0 0 0 0 0 127 0"/><feOffset/><feGaussianBlur stdDeviation="1.274"/><feComposite in2="hardAlpha" operator="out"/><feColorMatrix values="0 0 0 0 1 0 0 0 0 0.600195 0 0 0 0 0.777886 0 0 0 1 0"/><feBlend in2="BackgroundImageFix" result="effect1_dropShadow_2209_23750"/><feBlend in="SourceGraphic" in2="effect1_dropShadow_2209_23750" result="shape"/></filter><filter id="filter19_d_2209_23750" width="11.901" height="6.545" x="46.926" y="36.112" color-interpolation-filters="sRGB" filterUnits="userSpaceOnUse"><feFlood flood-opacity="0" result="BackgroundImageFix"/><feColorMatrix in="SourceAlpha" result="hardAlpha" values="0 0 0 0 0 0 0 0 0 0 0 0 0 0 0 0 0 0 127 0"/><feOffset/><feGaussianBlur stdDeviation="1.274"/><feComposite in2="hardAlpha" operator="out"/><feColorMatrix values="0 0 0 0 1 0 0 0 0 0.600195 0 0 0 0 0.777886 0 0 0 1 0"/><feBlend in2="BackgroundImageFix" result="effect1_dropShadow_2209_23750"/><feBlend in="SourceGraphic" in2="effect1_dropShadow_2209_23750" result="shape"/></filter><filter id="filter20_d_2209_23750" width="6.816" height="6.545" x="64.745" y="20.83" color-interpolation-filters="sRGB" filterUnits="userSpaceOnUse"><feFlood flood-opacity="0" result="BackgroundImageFix"/><feColorMatrix in="SourceAlpha" result="hardAlpha" values="0 0 0 0 0 0 0 0 0 0 0 0 0 0 0 0 0 0 127 0"/><feOffset/><feGaussianBlur stdDeviation="1.274"/><feComposite in2="hardAlpha" operator="out"/><feColorMatrix values="0 0 0 0 1 0 0 0 0 0.600195 0 0 0 0 0.777886 0 0 0 1 0"/><feBlend in2="BackgroundImageFix" result="effect1_dropShadow_2209_23750"/><feBlend in="SourceGraphic" in2="effect1_dropShadow_2209_23750" result="shape"/></filter><filter id="filter21_d_2209_23750" width="9.072" height="6.545" x="41.705" y="20.83" color-interpolation-filters="sRGB" filterUnits="userSpaceOnUse"><feFlood flood-opacity="0" result="BackgroundImageFix"/><feColorMatrix in="SourceAlpha" result="hardAlpha" values="0 0 0 0 0 0 0 0 0 0 0 0 0 0 0 0 0 0 127 0"/><feOffset/><feGaussianBlur stdDeviation="1.274"/><feComposite in2="hardAlpha" operator="out"/><feColorMatrix values="0 0 0 0 1 0 0 0 0 0.600195 0 0 0 0 0.777886 0 0 0 1 0"/><feBlend in2="BackgroundImageFix" result="effect1_dropShadow_2209_23750"/><feBlend in="SourceGraphic" in2="effect1_dropShadow_2209_23750" result="shape"/></filter><filter id="filter22_d_2209_23750" width="8.128" height="6.545" x="76.634" y="5.564" color-interpolation-filters="sRGB" filterUnits="userSpaceOnUse"><feFlood flood-opacity="0" result="BackgroundImageFix"/><feColorMatrix in="SourceAlpha" result="hardAlpha" values="0 0 0 0 0 0 0 0 0 0 0 0 0 0 0 0 0 0 127 0"/><feOffset/><feGaussianBlur stdDeviation="1.274"/><feComposite in2="hardAlpha" operator="out"/><feColorMatrix values="0 0 0 0 1 0 0 0 0 0.600195 0 0 0 0 0.777886 0 0 0 1 0"/><feBlend in2="BackgroundImageFix" result="effect1_dropShadow_2209_23750"/><feBlend in="SourceGraphic" in2="effect1_dropShadow_2209_23750" result="shape"/></filter><filter id="filter23_d_2209_23750" width="6.394" height="6.545" x="74.325" y="5.547" color-interpolation-filters="sRGB" filterUnits="userSpaceOnUse"><feFlood flood-opacity="0" result="BackgroundImageFix"/><feColorMatrix in="SourceAlpha" result="hardAlpha" values="0 0 0 0 0 0 0 0 0 0 0 0 0 0 0 0 0 0 127 0"/><feOffset/><feGaussianBlur stdDeviation="1.274"/><feComposite in2="hardAlpha" operator="out"/><feColorMatrix values="0 0 0 0 1 0 0 0 0 0.600195 0 0 0 0 0.777886 0 0 0 1 0"/><feBlend in2="BackgroundImageFix" result="effect1_dropShadow_2209_23750"/><feBlend in="SourceGraphic" in2="effect1_dropShadow_2209_23750" result="shape"/></filter><filter id="filter24_d_2209_23750" width="10.066" height="6.545" x="49.103" y="5.547" color-interpolation-filters="sRGB" filterUnits="userSpaceOnUse"><feFlood flood-opacity="0" result="BackgroundImageFix"/><feColorMatrix in="SourceAlpha" result="hardAlpha" values="0 0 0 0 0 0 0 0 0 0 0 0 0 0 0 0 0 0 127 0"/><feOffset/><feGaussianBlur stdDeviation="1.274"/><feComposite in2="hardAlpha" operator="out"/><feColorMatrix values="0 0 0 0 1 0 0 0 0 0.600195 0 0 0 0 0.777886 0 0 0 1 0"/><feBlend in2="BackgroundImageFix" result="effect1_dropShadow_2209_23750"/><feBlend in="SourceGraphic" in2="effect1_dropShadow_2209_23750" result="shape"/></filter><filter id="filter25_d_2209_23750" width="9.607" height="6.545" x="69.189" y="10.641" color-interpolation-filters="sRGB" filterUnits="userSpaceOnUse"><feFlood flood-opacity="0" result="BackgroundImageFix"/><feColorMatrix in="SourceAlpha" result="hardAlpha" values="0 0 0 0 0 0 0 0 0 0 0 0 0 0 0 0 0 0 127 0"/><feOffset/><feGaussianBlur stdDeviation="1.274"/><feComposite in2="hardAlpha" operator="out"/><feColorMatrix values="0 0 0 0 1 0 0 0 0 0.600195 0 0 0 0 0.777886 0 0 0 1 0"/><feBlend in2="BackgroundImageFix" result="effect1_dropShadow_2209_23750"/><feBlend in="SourceGraphic" in2="effect1_dropShadow_2209_23750" result="shape"/></filter><filter id="filter26_d_2209_23750" width="11.901" height="6.545" x="61.388" y="15.736" color-interpolation-filters="sRGB" filterUnits="userSpaceOnUse"><feFlood flood-opacity="0" result="BackgroundImageFix"/><feColorMatrix in="SourceAlpha" result="hardAlpha" values="0 0 0 0 0 0 0 0 0 0 0 0 0 0 0 0 0 0 127 0"/><feOffset/><feGaussianBlur stdDeviation="1.274"/><feComposite in2="hardAlpha" operator="out"/><feColorMatrix values="0 0 0 0 1 0 0 0 0 0.600195 0 0 0 0 0.777886 0 0 0 1 0"/><feBlend in2="BackgroundImageFix" result="effect1_dropShadow_2209_23750"/><feBlend in="SourceGraphic" in2="effect1_dropShadow_2209_23750" result="shape"/></filter><filter id="filter27_d_2209_23750" width="8.689" height="6.545" x="63.338" y=".453" color-interpolation-filters="sRGB" filterUnits="userSpaceOnUse"><feFlood flood-opacity="0" result="BackgroundImageFix"/><feColorMatrix in="SourceAlpha" result="hardAlpha" values="0 0 0 0 0 0 0 0 0 0 0 0 0 0 0 0 0 0 127 0"/><feOffset/><feGaussianBlur stdDeviation="1.274"/><feComposite in2="hardAlpha" operator="out"/><feColorMatrix values="0 0 0 0 1 0 0 0 0 0.600195 0 0 0 0 0.777886 0 0 0 1 0"/><feBlend in2="BackgroundImageFix" result="effect1_dropShadow_2209_23750"/><feBlend in="SourceGraphic" in2="effect1_dropShadow_2209_23750" result="shape"/></filter><filter id="filter28_d_2209_23750" width="9.607" height="6.545" x="55.069" y=".453" color-interpolation-filters="sRGB" filterUnits="userSpaceOnUse"><feFlood flood-opacity="0" result="BackgroundImageFix"/><feColorMatrix in="SourceAlpha" result="hardAlpha" values="0 0 0 0 0 0 0 0 0 0 0 0 0 0 0 0 0 0 127 0"/><feOffset/><feGaussianBlur stdDeviation="1.274"/><feComposite in2="hardAlpha" operator="out"/><feColorMatrix values="0 0 0 0 1 0 0 0 0 0.600195 0 0 0 0 0.777886 0 0 0 1 0"/><feBlend in2="BackgroundImageFix" result="effect1_dropShadow_2209_23750"/><feBlend in="SourceGraphic" in2="effect1_dropShadow_2209_23750" result="shape"/></filter><filter id="filter29_d_2209_23750" width="9.072" height="6.545" x="69.438" y=".453" color-interpolation-filters="sRGB" filterUnits="userSpaceOnUse"><feFlood flood-opacity="0" result="BackgroundImageFix"/><feColorMatrix in="SourceAlpha" result="hardAlpha" values="0 0 0 0 0 0 0 0 0 0 0 0 0 0 0 0 0 0 127 0"/><feOffset/><feGaussianBlur stdDeviation="1.274"/><feComposite in2="hardAlpha" operator="out"/><feColorMatrix values="0 0 0 0 1 0 0 0 0 0.600195 0 0 0 0 0.777886 0 0 0 1 0"/><feBlend in2="BackgroundImageFix" result="effect1_dropShadow_2209_23750"/><feBlend in="SourceGraphic" in2="effect1_dropShadow_2209_23750" result="shape"/></filter><filter id="filter30_d_2209_23750" width="8.128" height="6.545" x="76.633" y="25.924" color-interpolation-filters="sRGB" filterUnits="userSpaceOnUse"><feFlood flood-opacity="0" result="BackgroundImageFix"/><feColorMatrix in="SourceAlpha" result="hardAlpha" values="0 0 0 0 0 0 0 0 0 0 0 0 0 0 0 0 0 0 127 0"/><feOffset/><feGaussianBlur stdDeviation="1.274"/><feComposite in2="hardAlpha" operator="out"/><feColorMatrix values="0 0 0 0 1 0 0 0 0 0.600195 0 0 0 0 0.777886 0 0 0 1 0"/><feBlend in2="BackgroundImageFix" result="effect1_dropShadow_2209_23750"/><feBlend in="SourceGraphic" in2="effect1_dropShadow_2209_23750" result="shape"/></filter><filter id="filter31_d_2209_23750" width="6.394" height="6.545" x="74.325" y="25.924" color-interpolation-filters="sRGB" filterUnits="userSpaceOnUse"><feFlood flood-opacity="0" result="BackgroundImageFix"/><feColorMatrix in="SourceAlpha" result="hardAlpha" values="0 0 0 0 0 0 0 0 0 0 0 0 0 0 0 0 0 0 127 0"/><feOffset/><feGaussianBlur stdDeviation="1.274"/><feComposite in2="hardAlpha" operator="out"/><feColorMatrix values="0 0 0 0 1 0 0 0 0 0.600195 0 0 0 0 0.777886 0 0 0 1 0"/><feBlend in2="BackgroundImageFix" result="effect1_dropShadow_2209_23750"/><feBlend in="SourceGraphic" in2="effect1_dropShadow_2209_23750" result="shape"/></filter><filter id="filter32_d_2209_23750" width="10.066" height="6.545" x="49.103" y="25.924" color-interpolation-filters="sRGB" filterUnits="userSpaceOnUse"><feFlood flood-opacity="0" result="BackgroundImageFix"/><feColorMatrix in="SourceAlpha" result="hardAlpha" values="0 0 0 0 0 0 0 0 0 0 0 0 0 0 0 0 0 0 127 0"/><feOffset/><feGaussianBlur stdDeviation="1.274"/><feComposite in2="hardAlpha" operator="out"/><feColorMatrix values="0 0 0 0 1 0 0 0 0 0.600195 0 0 0 0 0.777886 0 0 0 1 0"/><feBlend in2="BackgroundImageFix" result="effect1_dropShadow_2209_23750"/><feBlend in="SourceGraphic" in2="effect1_dropShadow_2209_23750" result="shape"/></filter><filter id="filter33_d_2209_23750" width="6.783" height="6.545" x="53.031" y="31.018" color-interpolation-filters="sRGB" filterUnits="userSpaceOnUse"><feFlood flood-opacity="0" result="BackgroundImageFix"/><feColorMatrix in="SourceAlpha" result="hardAlpha" values="0 0 0 0 0 0 0 0 0 0 0 0 0 0 0 0 0 0 127 0"/><feOffset/><feGaussianBlur stdDeviation="1.274"/><feComposite in2="hardAlpha" operator="out"/><feColorMatrix values="0 0 0 0 1 0 0 0 0 0.600195 0 0 0 0 0.777886 0 0 0 1 0"/><feBlend in2="BackgroundImageFix" result="effect1_dropShadow_2209_23750"/><feBlend in="SourceGraphic" in2="effect1_dropShadow_2209_23750" result="shape"/></filter><filter id="filter34_d_2209_23750" width="9.607" height="6.545" x="63.693" y="31.018" color-interpolation-filters="sRGB" filterUnits="userSpaceOnUse"><feFlood flood-opacity="0" result="BackgroundImageFix"/><feColorMatrix in="SourceAlpha" result="hardAlpha" values="0 0 0 0 0 0 0 0 0 0 0 0 0 0 0 0 0 0 127 0"/><feOffset/><feGaussianBlur stdDeviation="1.274"/><feComposite in2="hardAlpha" operator="out"/><feColorMatrix values="0 0 0 0 1 0 0 0 0 0.600195 0 0 0 0 0.777886 0 0 0 1 0"/><feBlend in2="BackgroundImageFix" result="effect1_dropShadow_2209_23750"/><feBlend in="SourceGraphic" in2="effect1_dropShadow_2209_23750" result="shape"/></filter><filter id="filter35_d_2209_23750" width="8.128" height="6.545" x="49.103" y="36.112" color-interpolation-filters="sRGB" filterUnits="userSpaceOnUse"><feFlood flood-opacity="0" result="BackgroundImageFix"/><feColorMatrix in="SourceAlpha" result="hardAlpha" values="0 0 0 0 0 0 0 0 0 0 0 0 0 0 0 0 0 0 127 0"/><feOffset/><feGaussianBlur stdDeviation="1.274"/><feComposite in2="hardAlpha" operator="out"/><feColorMatrix values="0 0 0 0 1 0 0 0 0 0.600195 0 0 0 0 0.777886 0 0 0 1 0"/><feBlend in2="BackgroundImageFix" result="effect1_dropShadow_2209_23750"/><feBlend in="SourceGraphic" in2="effect1_dropShadow_2209_23750" result="shape"/></filter><filter id="filter36_d_2209_23750" width="11.901" height="6.545" x="61.388" y="36.112" color-interpolation-filters="sRGB" filterUnits="userSpaceOnUse"><feFlood flood-opacity="0" result="BackgroundImageFix"/><feColorMatrix in="SourceAlpha" result="hardAlpha" values="0 0 0 0 0 0 0 0 0 0 0 0 0 0 0 0 0 0 127 0"/><feOffset/><feGaussianBlur stdDeviation="1.274"/><feComposite in2="hardAlpha" operator="out"/><feColorMatrix values="0 0 0 0 1 0 0 0 0 0.600195 0 0 0 0 0.777886 0 0 0 1 0"/><feBlend in2="BackgroundImageFix" result="effect1_dropShadow_2209_23750"/><feBlend in="SourceGraphic" in2="effect1_dropShadow_2209_23750" result="shape"/></filter><filter id="filter37_d_2209_23750" width="6.816" height="6.545" x="48.655" y="20.83" color-interpolation-filters="sRGB" filterUnits="userSpaceOnUse"><feFlood flood-opacity="0" result="BackgroundImageFix"/><feColorMatrix in="SourceAlpha" result="hardAlpha" values="0 0 0 0 0 0 0 0 0 0 0 0 0 0 0 0 0 0 127 0"/><feOffset/><feGaussianBlur stdDeviation="1.274"/><feComposite in2="hardAlpha" operator="out"/><feColorMatrix values="0 0 0 0 1 0 0 0 0 0.600195 0 0 0 0 0.777886 0 0 0 1 0"/><feBlend in2="BackgroundImageFix" result="effect1_dropShadow_2209_23750"/><feBlend in="SourceGraphic" in2="effect1_dropShadow_2209_23750" result="shape"/></filter><filter id="filter38_d_2209_23750" width="9.072" height="6.545" x="69.438" y="20.83" color-interpolation-filters="sRGB" filterUnits="userSpaceOnUse"><feFlood flood-opacity="0" result="BackgroundImageFix"/><feColorMatrix in="SourceAlpha" result="hardAlpha" values="0 0 0 0 0 0 0 0 0 0 0 0 0 0 0 0 0 0 127 0"/><feOffset/><feGaussianBlur stdDeviation="1.274"/><feComposite in2="hardAlpha" operator="out"/><feColorMatrix values="0 0 0 0 1 0 0 0 0 0.600195 0 0 0 0 0.777886 0 0 0 1 0"/><feBlend in2="BackgroundImageFix" result="effect1_dropShadow_2209_23750"/><feBlend in="SourceGraphic" in2="effect1_dropShadow_2209_23750" result="shape"/></filter><filter id="filter39_d_2209_23750" width="32.555" height="32.555" x="60.151" y="85.151" color-interpolation-filters="sRGB" filterUnits="userSpaceOnUse"><feFlood flood-opacity="0" result="BackgroundImageFix"/><feColorMatrix in="SourceAlpha" result="hardAlpha" values="0 0 0 0 0 0 0 0 0 0 0 0 0 0 0 0 0 0 127 0"/><feOffset/><feGaussianBlur stdDeviation="7.686"/><feColorMatrix values="0 0 0 0 0.951002 0 0 0 0 0.370525 0 0 0 0 0.610455 0 0 0 1 0"/><feBlend in2="BackgroundImageFix" result="effect1_dropShadow_2209_23750"/><feBlend in="SourceGraphic" in2="effect1_dropShadow_2209_23750" result="shape"/></filter><filter id="filter40_d_2209_23750" width="32.555" height="32.555" x="73.008" y="89.151" color-interpolation-filters="sRGB" filterUnits="userSpaceOnUse"><feFlood flood-opacity="0" result="BackgroundImageFix"/><feColorMatrix in="SourceAlpha" result="hardAlpha" values="0 0 0 0 0 0 0 0 0 0 0 0 0 0 0 0 0 0 127 0"/><feOffset/><feGaussianBlur stdDeviation="7.686"/><feColorMatrix values="0 0 0 0 0.951002 0 0 0 0 0.370525 0 0 0 0 0.610455 0 0 0 1 0"/><feBlend in2="BackgroundImageFix" result="effect1_dropShadow_2209_23750"/><feBlend in="SourceGraphic" in2="effect1_dropShadow_2209_23750" result="shape"/></filter><linearGradient id="paint0_linear_2209_23750" x1="73.5" x2="60" y1="-9" y2="121" gradientUnits="userSpaceOnUse"><stop stop-color="#121C32"/><stop offset="1" stop-color="#233555"/></linearGradient><linearGradient id="paint1_linear_2209_23750" x1="-28.033" x2="33.557" y1="10.844" y2="105.252" gradientUnits="userSpaceOnUse"><stop stop-color="#B9437C"/><stop offset=".792" stop-color="#1A2536" stop-opacity=".01"/></linearGradient><linearGradient id="paint2_linear_2209_23750" x1="-25.227" x2="4.038" y1="23.708" y2="135.632" gradientUnits="userSpaceOnUse"><stop stop-color="#FF5E92"/><stop offset="1" stop-color="#ED4653"/></linearGradient><linearGradient id="paint4_linear_2209_23750" x1="-19" x2="-25.423" y1="25" y2="86.965" gradientUnits="userSpaceOnUse"><stop stop-color="#131F35"/><stop offset="1" stop-color="#0A1220"/></linearGradient><linearGradient id="paint5_linear_2209_23750" x1="-40" x2="-41.562" y1="-18.5" y2="97.019" gradientUnits="userSpaceOnUse"><stop stop-color="#71A3EC"/><stop offset="1" stop-color="#1D2C45"/></linearGradient><linearGradient id="paint6_linear_2209_23750" x1="-3.5" x2="66.566" y1="20.061" y2="76.84" gradientUnits="userSpaceOnUse"><stop stop-color="#fff"/><stop offset="1" stop-color="#F44880" stop-opacity=".01"/></linearGradient><linearGradient id="paint7_linear_2209_23750" x1="115" x2="89.598" y1="107.5" y2="106.727" gradientUnits="userSpaceOnUse"><stop stop-color="#0E192C" stop-opacity="0"/><stop offset=".47" stop-color="#2C4065"/><stop offset="1" stop-color="#18263E" stop-opacity="0"/></linearGradient><linearGradient id="paint8_linear_2209_23750" x1="38.5" x2="-3.709" y1="85.5" y2="87.979" gradientUnits="userSpaceOnUse"><stop stop-color="#0E192C" stop-opacity="0"/><stop offset=".47" stop-color="#2C4065"/><stop offset="1" stop-color="#18263E" stop-opacity="0"/></linearGradient><linearGradient id="paint10_linear_2209_23750" x1="-3.5" x2="44.09" y1="9" y2="66.09" gradientUnits="userSpaceOnUse"><stop stop-color="#fff"/><stop offset="1" stop-color="#F44880" stop-opacity=".01"/></linearGradient><linearGradient id="paint11_linear_2209_23750" x1="79" x2="26.139" y1="8" y2="77.564" gradientUnits="userSpaceOnUse"><stop stop-color="#fff"/><stop offset="1" stop-color="#F44880" stop-opacity=".01"/></linearGradient><linearGradient id="paint12_linear_2209_23750" x1="65" x2="36.822" y1="36.5" y2="53.945" gradientUnits="userSpaceOnUse"><stop stop-color="#F44880" stop-opacity=".01"/><stop offset="1" stop-color="#fff"/></linearGradient><linearGradient id="paint14_linear_2209_23750" x1="-28" x2="-16.083" y1="21" y2="75.952" gradientUnits="userSpaceOnUse"><stop stop-color="#B9437C"/><stop offset="1" stop-color="#1A2536" stop-opacity=".01"/></linearGradient><linearGradient id="paint15_linear_2209_23750" x1="30.5" x2="-3.739" y1="31" y2="50.844" gradientUnits="userSpaceOnUse"><stop stop-color="#FFE5F2" stop-opacity=".42"/><stop offset="1" stop-color="#D0E0F8" stop-opacity=".01"/></linearGradient><linearGradient id="paint16_linear_2209_23750" x1="18.562" x2="17.301" y1="14.567" y2="59.512" gradientUnits="userSpaceOnUse"><stop stop-color="#FFE5F2"/><stop offset="1" stop-color="#D0E0F8" stop-opacity=".01"/></linearGradient><linearGradient id="paint17_linear_2209_23750" x1="48.523" x2="35.105" y1="19.711" y2="54.161" gradientUnits="userSpaceOnUse"><stop stop-color="#FFE5F2"/><stop offset="1" stop-color="#D0E0F8" stop-opacity=".01"/></linearGradient><linearGradient id="paint18_linear_2209_23750" x1="5.79" x2="15.29" y1="52.5" y2="93" gradientUnits="userSpaceOnUse"><stop stop-color="#17253D" stop-opacity=".49"/><stop offset="1" stop-color="#111B2C"/></linearGradient><linearGradient id="paint19_linear_2209_23750" x1="-.998" x2="-.998" y1="46" y2="99.938" gradientUnits="userSpaceOnUse"><stop stop-color="#fff"/><stop offset="1" stop-color="#C42E6C"/></linearGradient><linearGradient id="paint20_linear_2209_23750" x1="-.998" x2="-.998" y1="37" y2="90.938" gradientUnits="userSpaceOnUse"><stop stop-color="#fff"/><stop offset="1" stop-color="#C42E6C"/></linearGradient><linearGradient id="paint21_linear_2209_23750" x1="74.802" x2="74.802" y1="101.429" y2="104.682" gradientUnits="userSpaceOnUse"><stop stop-color="#fff"/><stop offset="1" stop-color="#C42E6C"/></linearGradient><linearGradient id="paint22_linear_2209_23750" x1="87.659" x2="87.659" y1="105.429" y2="108.682" gradientUnits="userSpaceOnUse"><stop stop-color="#fff"/><stop offset="1" stop-color="#C42E6C"/></linearGradient><radialGradient id="paint3_radial_2209_23750" cx="0" cy="0" r="1" gradientTransform="matrix(-3.18365 11.71294 -48.9815 -13.31349 48 104)" gradientUnits="userSpaceOnUse"><stop stop-color="#060606"/><stop offset="1" stop-opacity="0"/></radialGradient><radialGradient id="paint9_radial_2209_23750" cx="0" cy="0" r="1" gradientTransform="matrix(79.08955 71.32386 -85.24909 94.53095 15.665 19.991)" gradientUnits="userSpaceOnUse"><stop stop-color="#71A3EC"/><stop offset="1" stop-color="#132039"/></radialGradient><radialGradient id="paint13_radial_2209_23750" cx="0" cy="0" r="1" gradientTransform="matrix(61.31327 55.20516 -65.97265 73.2721 25.369 25.993)" gradientUnits="userSpaceOnUse"><stop stop-color="#090C13"/><stop offset="1" stop-color="#132039"/></radialGradient></defs></svg>