<svg xmlns="http://www.w3.org/2000/svg" width="120" height="120" fill="none"><circle cx="60" cy="60" r="60" fill="url(#paint0_radial_2298_28834)"/><circle cx="60" cy="60" r="60" fill="url(#paint1_radial_2298_28834)" opacity=".6"/><path fill="url(#paint2_linear_2298_28834)" d="M119 60c0 32.585-26.415 59-59 59S1 92.585 1 60 27.415 1 60 1s59 26.415 59 59z"/><path fill="url(#paint3_radial_2298_28834)" d="M119 60c0 32.585-26.415 59-59 59S1 92.585 1 60 27.415 1 60 1s59 26.415 59 59z" opacity=".6"/><path fill="url(#paint4_linear_2298_28834)" fill-rule="evenodd" d="M60 119c32.585 0 59-26.415 59-59S92.585 1 60 1 1 27.415 1 60s26.415 59 59 59zm0-9c27.614 0 50-22.386 50-50S87.614 10 60 10 10 32.386 10 60s22.386 50 50 50z" clip-rule="evenodd"/><path fill="url(#paint5_linear_2298_28834)" fill-rule="evenodd" d="M2 47.2C7.847 20.768 31.419 1 59.608 1c27.504 0 50.612 18.82 57.15 44.285-7.001-8.84-16.497-15.972-27.563-20.564-8.285-4.593-18.516-6.941-29.587-6.941-12.408 0-23.76 2.948-32.5 8.7C16.953 31.418 8.319 38.563 2 47.2z" clip-rule="evenodd" opacity=".4"/><path stroke="url(#paint6_linear_2298_28834)" stroke-width=".3" d="M118.85 60c0 32.502-26.348 58.85-58.85 58.85S1.15 92.502 1.15 60 27.498 1.15 60 1.15 118.85 27.498 118.85 60zM60 110.15c27.697 0 50.15-22.453 50.15-50.15S87.697 9.85 60 9.85 9.85 32.303 9.85 60 32.303 110.15 60 110.15z"/><path fill="#19263C" d="m60.757 61.878-41.29-4.048c-2.957-.29-4.702 3.23-2.682 5.408l41.896 45.18a3.229 3.229 0 0 0 4.76-.028l40.926-45.173c1.985-2.19.226-5.675-2.715-5.38l-40.258 4.04a3.231 3.231 0 0 1-.637 0z" opacity=".2"/><path fill="#19263C" d="m60.658 47.4-42.375-5.46c-2.786-.36-4.67 2.766-3.05 5.062l43.174 61.215c1.294 1.836 4.021 1.821 5.296-.029l42.175-61.204c1.587-2.304-.307-5.399-3.081-5.033L61.493 47.4a3.227 3.227 0 0 1-.835 0z" opacity=".3"/><rect width="15" height="60" x="95" y="40" fill="url(#paint7_linear_2298_28834)" rx="7.5" transform="rotate(30 95 40)"/><g filter="url(#filter0_d_2298_28834)"><rect width="1.646" height="4.444" x="98.913" y="52.761" fill="url(#paint8_radial_2298_28834)" rx=".823" transform="rotate(30 98.913 52.761)"/></g><g filter="url(#filter1_d_2298_28834)"><rect width="1.646" height="4.444" x="92.907" y="63.163" fill="url(#paint9_radial_2298_28834)" rx=".823" transform="rotate(30 92.907 63.163)"/></g><rect width="1.646" height="4.444" x="95.91" y="57.962" fill="#303C50" opacity=".5" rx=".823" transform="rotate(30 95.91 57.962)"/><path fill="#19263C" d="m60.571 34.508-42.874-6.7c-2.685-.42-4.655 2.463-3.289 4.812l43.845 75.375c1.252 2.152 4.366 2.137 5.597-.028l42.828-75.361c1.338-2.355-.642-5.21-3.316-4.783L61.58 34.506a3.23 3.23 0 0 1-1.009.002z"/><path fill="url(#paint10_radial_2298_28834)" d="m60.57 34.508-42.87-6.7c-2.686-.42-4.657 2.465-3.29 4.816l43.841 75.368c1.253 2.154 4.37 2.138 5.6-.028l42.826-75.355c1.338-2.356-.643-5.214-3.319-4.786L61.58 34.506a3.227 3.227 0 0 1-1.01.002z" opacity=".829"/><path stroke="url(#paint11_radial_2298_28834)" stroke-width=".5" d="m13.658 27.43 47.176 7.372c.16.025.324.025.484 0l46.048-7.367a1.05 1.05 0 0 1 1.079 1.556l-46.47 81.768a1.05 1.05 0 0 1-1.82.009L12.589 28.995a1.05 1.05 0 0 1 1.07-1.566z"/><g filter="url(#filter2_d_2298_28834)"><path fill="#fff" d="M48.228 52.871H45v1.1h3.228z"/></g><g filter="url(#filter3_d_2298_28834)"><path fill="#fff" d="M50.686 52.859h-1.383v1.099h1.383z"/></g><path fill="#fff" d="M65.315 52.859h-7.243v1.099h7.243z" opacity=".2"/><g filter="url(#filter4_d_2298_28834)"><path fill="#fff" d="M77.523 52.859h-5.29v1.099h5.29z"/></g><path fill="#fff" d="M55.886 52.859h-4.232v1.099h4.232z" opacity=".2"/><g filter="url(#filter5_d_2298_28834)"><path fill="#fff" d="M73.343 56.718h-1.797v1.098h1.797z"/></g><g filter="url(#filter6_d_2298_28834)"><path fill="#fff" d="M56.15 56.718h-4.802v1.098h4.802z"/></g><path fill="#fff" d="M49.801 56.718H45v1.098h4.802zm16.779 0h-6.674v1.098h6.674z" opacity=".2"/><g filter="url(#filter7_d_2298_28834)"><path fill="#fff" d="M77.523 60.576h-3.228v1.1h3.228z"/></g><path fill="#fff" d="M73.343 60.576h-1.797v1.1h1.797z" opacity=".2"/><g filter="url(#filter8_d_2298_28834)"><path fill="#fff" d="M64.451 60.576h-7.243v1.1h7.243z"/></g><path fill="#fff" d="M56.15 60.576h-4.802v1.1h4.802zm13.979 0h-4.802v1.1h4.802zm-20.328 0H45v1.1h4.802z" opacity=".2"/><path fill="#fff" d="M48.228 49H45v1.099h3.228z"/><g filter="url(#filter9_d_2298_28834)"><path fill="#fff" d="M50.84 49h-1.83v1.099h1.832z"/></g><g filter="url(#filter10_d_2298_28834)"><path fill="#fff" d="M62.376 49h-3.825v1.099h3.825z"/></g><g filter="url(#filter11_d_2298_28834)"><path fill="#fff" d="M71.174 49h-4.802v1.099h4.802z"/></g><g filter="url(#filter12_d_2298_28834)"><path fill="#fff" d="M55.885 49h-4.232v1.099h4.232z"/></g><g opacity=".3"><g filter="url(#filter13_d_2298_28834)"><path fill="#fff" d="M48.23 68.294H45v1.099h3.228z"/></g><g filter="url(#filter14_d_2298_28834)"><path fill="#fff" d="M50.686 68.294h-1.383v1.099h1.383z"/></g><path fill="#fff" d="M65.315 68.294h-7.243v1.099h7.243z" opacity=".2"/><g filter="url(#filter15_d_2298_28834)"><path fill="#fff" d="M77.523 68.294h-5.29v1.099h5.29z"/></g><path fill="#fff" d="M55.886 68.294h-4.232v1.099h4.232z" opacity=".2"/></g><g opacity=".2"><g filter="url(#filter16_d_2298_28834)"><path fill="#fff" d="M73.343 72.153h-1.797v1.098h1.797z"/></g><g filter="url(#filter17_d_2298_28834)"><path fill="#fff" d="M61.998 72.153h-4.802v1.098h4.802z"/></g><path fill="#fff" d="M49.801 72.153H45v1.098h4.802zm20.583 0H63.71v1.098h6.674z" opacity=".2"/></g><g opacity=".1"><g filter="url(#filter18_d_2298_28834)"><path fill="#fff" d="M77.523 76.011h-3.228v1.1h3.228z"/></g><path fill="#fff" d="M73.343 76.011h-1.797v1.1h1.797z" opacity=".2"/><g filter="url(#filter19_d_2298_28834)"><path fill="#fff" d="M64.451 76.011h-7.243v1.1h7.243z"/></g><path fill="#fff" d="M56.15 76.011h-4.802v1.1h4.802zm-6.349 0H45v1.1h4.802z" opacity=".2"/></g><g opacity=".6"><path fill="#fff" d="M48.228 64.435H45v1.099h3.228z" opacity=".2"/><g filter="url(#filter20_d_2298_28834)"><path fill="#fff" d="M78 64.435h-1.832v1.099H78z"/></g><path fill="#fff" d="M65.087 64.435h-3.825v1.099h3.825zm6.087 0h-4.802v1.099h4.802z" opacity=".2"/><g filter="url(#filter21_d_2298_28834)"><path fill="#fff" d="M55.885 64.435h-4.232v1.099h4.232z"/></g></g><path stroke="url(#paint12_linear_2298_28834)" stroke-width=".5" d="M81 85c0 4.97-8.507 9-19 9s-19-4.03-19-9"/><path stroke="url(#paint13_linear_2298_28834)" stroke-width=".5" d="M84 79c0 4.97-9.85 9-22 9s-22-4.03-22-9"/><path stroke="url(#paint14_linear_2298_28834)" stroke-width=".5" d="M86 73c0 4.97-10.97 9-24.5 9C47.969 82 37 77.97 37 73"/><g filter="url(#filter22_d_2298_28834)"><path fill="url(#paint15_radial_2298_28834)" d="m46.034 57.677 1.515-33.827a1.09 1.09 0 0 1 .879-1.021l33.003-6.5a1.09 1.09 0 0 1 1.272 1.323l-5.135 21.472a1.09 1.09 0 0 0 1.256 1.327l8.152-1.482a1.09 1.09 0 0 1 1.19 1.52L62.315 98.004c-.516 1.147-2.243.654-2.076-.592l3.3-24.579a1.09 1.09 0 0 0-1.226-1.226l-5.235.698a1.09 1.09 0 0 1-1.225-1.23l1.751-12.692a1.09 1.09 0 0 0-1.276-1.222l-9.01 1.638a1.09 1.09 0 0 1-1.284-1.122z"/></g><path stroke="url(#paint16_linear_2298_28834)" stroke-width="2.001" d="M1.5 54 16 56l8 30 28.5 1"/><circle cx="51.502" cy="86.502" r="7" fill="url(#paint17_radial_2298_28834)" transform="rotate(90 51.502 86.502)"/><circle cx="51.632" cy="86.792" r="2.679" fill="url(#paint18_radial_2298_28834)" transform="rotate(-105.009 51.632 86.792)"/><circle cx="16.129" cy="56.129" r="2.555" fill="url(#paint19_linear_2298_28834)" transform="rotate(-105.009 16.129 56.129)"/><circle cx="24.146" cy="85.146" r="3.385" fill="url(#paint20_linear_2298_28834)" transform="rotate(-105.009 24.146 85.146)"/><circle cx="60" cy="60" r="59" stroke="url(#paint21_linear_2298_28834)" stroke-width="2"/><defs><filter id="filter0_d_2298_28834" width="8.881" height="9.905" x="94.074" y="50.145" color-interpolation-filters="sRGB" filterUnits="userSpaceOnUse"><feFlood flood-opacity="0" result="BackgroundImageFix"/><feColorMatrix in="SourceAlpha" result="hardAlpha" values="0 0 0 0 0 0 0 0 0 0 0 0 0 0 0 0 0 0 127 0"/><feOffset/><feGaussianBlur stdDeviation="1.459"/><feColorMatrix values="0 0 0 0 0.752051 0 0 0 0 0.222882 0 0 0 0 0.965325 0 0 0 1 0"/><feBlend in2="BackgroundImageFix" result="effect1_dropShadow_2298_28834"/><feBlend in="SourceGraphic" in2="effect1_dropShadow_2298_28834" result="shape"/></filter><filter id="filter1_d_2298_28834" width="8.881" height="9.905" x="88.069" y="60.547" color-interpolation-filters="sRGB" filterUnits="userSpaceOnUse"><feFlood flood-opacity="0" result="BackgroundImageFix"/><feColorMatrix in="SourceAlpha" result="hardAlpha" values="0 0 0 0 0 0 0 0 0 0 0 0 0 0 0 0 0 0 127 0"/><feOffset/><feGaussianBlur stdDeviation="1.459"/><feColorMatrix values="0 0 0 0 0.752051 0 0 0 0 0.222882 0 0 0 0 0.965325 0 0 0 1 0"/><feBlend in2="BackgroundImageFix" result="effect1_dropShadow_2298_28834"/><feBlend in="SourceGraphic" in2="effect1_dropShadow_2298_28834" result="shape"/></filter><filter id="filter2_d_2298_28834" width="7.087" height="4.958" x="43.071" y="50.942" color-interpolation-filters="sRGB" filterUnits="userSpaceOnUse"><feFlood flood-opacity="0" result="BackgroundImageFix"/><feColorMatrix in="SourceAlpha" result="hardAlpha" values="0 0 0 0 0 0 0 0 0 0 0 0 0 0 0 0 0 0 127 0"/><feOffset/><feGaussianBlur stdDeviation=".965"/><feComposite in2="hardAlpha" operator="out"/><feColorMatrix values="0 0 0 0 1 0 0 0 0 0.600195 0 0 0 0 0.777886 0 0 0 1 0"/><feBlend in2="BackgroundImageFix" result="effect1_dropShadow_2298_28834"/><feBlend in="SourceGraphic" in2="effect1_dropShadow_2298_28834" result="shape"/></filter><filter id="filter3_d_2298_28834" width="5.242" height="4.958" x="47.373" y="50.929" color-interpolation-filters="sRGB" filterUnits="userSpaceOnUse"><feFlood flood-opacity="0" result="BackgroundImageFix"/><feColorMatrix in="SourceAlpha" result="hardAlpha" values="0 0 0 0 0 0 0 0 0 0 0 0 0 0 0 0 0 0 127 0"/><feOffset/><feGaussianBlur stdDeviation=".965"/><feComposite in2="hardAlpha" operator="out"/><feColorMatrix values="0 0 0 0 1 0 0 0 0 0.600195 0 0 0 0 0.777886 0 0 0 1 0"/><feBlend in2="BackgroundImageFix" result="effect1_dropShadow_2298_28834"/><feBlend in="SourceGraphic" in2="effect1_dropShadow_2298_28834" result="shape"/></filter><filter id="filter4_d_2298_28834" width="9.149" height="4.958" x="70.304" y="50.929" color-interpolation-filters="sRGB" filterUnits="userSpaceOnUse"><feFlood flood-opacity="0" result="BackgroundImageFix"/><feColorMatrix in="SourceAlpha" result="hardAlpha" values="0 0 0 0 0 0 0 0 0 0 0 0 0 0 0 0 0 0 127 0"/><feOffset/><feGaussianBlur stdDeviation=".965"/><feComposite in2="hardAlpha" operator="out"/><feColorMatrix values="0 0 0 0 1 0 0 0 0 0.600195 0 0 0 0 0.777886 0 0 0 1 0"/><feBlend in2="BackgroundImageFix" result="effect1_dropShadow_2298_28834"/><feBlend in="SourceGraphic" in2="effect1_dropShadow_2298_28834" result="shape"/></filter><filter id="filter5_d_2298_28834" width="5.656" height="4.958" x="69.616" y="54.788" color-interpolation-filters="sRGB" filterUnits="userSpaceOnUse"><feFlood flood-opacity="0" result="BackgroundImageFix"/><feColorMatrix in="SourceAlpha" result="hardAlpha" values="0 0 0 0 0 0 0 0 0 0 0 0 0 0 0 0 0 0 127 0"/><feOffset/><feGaussianBlur stdDeviation=".965"/><feComposite in2="hardAlpha" operator="out"/><feColorMatrix values="0 0 0 0 1 0 0 0 0 0.600195 0 0 0 0 0.777886 0 0 0 1 0"/><feBlend in2="BackgroundImageFix" result="effect1_dropShadow_2298_28834"/><feBlend in="SourceGraphic" in2="effect1_dropShadow_2298_28834" result="shape"/></filter><filter id="filter6_d_2298_28834" width="8.66" height="4.958" x="49.419" y="54.788" color-interpolation-filters="sRGB" filterUnits="userSpaceOnUse"><feFlood flood-opacity="0" result="BackgroundImageFix"/><feColorMatrix in="SourceAlpha" result="hardAlpha" values="0 0 0 0 0 0 0 0 0 0 0 0 0 0 0 0 0 0 127 0"/><feOffset/><feGaussianBlur stdDeviation=".965"/><feComposite in2="hardAlpha" operator="out"/><feColorMatrix values="0 0 0 0 1 0 0 0 0 0.600195 0 0 0 0 0.777886 0 0 0 1 0"/><feBlend in2="BackgroundImageFix" result="effect1_dropShadow_2298_28834"/><feBlend in="SourceGraphic" in2="effect1_dropShadow_2298_28834" result="shape"/></filter><filter id="filter7_d_2298_28834" width="7.087" height="4.958" x="72.366" y="58.647" color-interpolation-filters="sRGB" filterUnits="userSpaceOnUse"><feFlood flood-opacity="0" result="BackgroundImageFix"/><feColorMatrix in="SourceAlpha" result="hardAlpha" values="0 0 0 0 0 0 0 0 0 0 0 0 0 0 0 0 0 0 127 0"/><feOffset/><feGaussianBlur stdDeviation=".965"/><feComposite in2="hardAlpha" operator="out"/><feColorMatrix values="0 0 0 0 1 0 0 0 0 0.600195 0 0 0 0 0.777886 0 0 0 1 0"/><feBlend in2="BackgroundImageFix" result="effect1_dropShadow_2298_28834"/><feBlend in="SourceGraphic" in2="effect1_dropShadow_2298_28834" result="shape"/></filter><filter id="filter8_d_2298_28834" width="11.102" height="4.958" x="55.279" y="58.647" color-interpolation-filters="sRGB" filterUnits="userSpaceOnUse"><feFlood flood-opacity="0" result="BackgroundImageFix"/><feColorMatrix in="SourceAlpha" result="hardAlpha" values="0 0 0 0 0 0 0 0 0 0 0 0 0 0 0 0 0 0 127 0"/><feOffset/><feGaussianBlur stdDeviation=".965"/><feComposite in2="hardAlpha" operator="out"/><feColorMatrix values="0 0 0 0 1 0 0 0 0 0.600195 0 0 0 0 0.777886 0 0 0 1 0"/><feBlend in2="BackgroundImageFix" result="effect1_dropShadow_2298_28834"/><feBlend in="SourceGraphic" in2="effect1_dropShadow_2298_28834" result="shape"/></filter><filter id="filter9_d_2298_28834" width="5.691" height="4.958" x="47.08" y="47.071" color-interpolation-filters="sRGB" filterUnits="userSpaceOnUse"><feFlood flood-opacity="0" result="BackgroundImageFix"/><feColorMatrix in="SourceAlpha" result="hardAlpha" values="0 0 0 0 0 0 0 0 0 0 0 0 0 0 0 0 0 0 127 0"/><feOffset/><feGaussianBlur stdDeviation=".965"/><feComposite in2="hardAlpha" operator="out"/><feColorMatrix values="0 0 0 0 1 0 0 0 0 0.600195 0 0 0 0 0.777886 0 0 0 1 0"/><feBlend in2="BackgroundImageFix" result="effect1_dropShadow_2298_28834"/><feBlend in="SourceGraphic" in2="effect1_dropShadow_2298_28834" result="shape"/></filter><filter id="filter10_d_2298_28834" width="7.684" height="4.958" x="56.622" y="47.071" color-interpolation-filters="sRGB" filterUnits="userSpaceOnUse"><feFlood flood-opacity="0" result="BackgroundImageFix"/><feColorMatrix in="SourceAlpha" result="hardAlpha" values="0 0 0 0 0 0 0 0 0 0 0 0 0 0 0 0 0 0 127 0"/><feOffset/><feGaussianBlur stdDeviation=".965"/><feComposite in2="hardAlpha" operator="out"/><feColorMatrix values="0 0 0 0 1 0 0 0 0 0.600195 0 0 0 0 0.777886 0 0 0 1 0"/><feBlend in2="BackgroundImageFix" result="effect1_dropShadow_2298_28834"/><feBlend in="SourceGraphic" in2="effect1_dropShadow_2298_28834" result="shape"/></filter><filter id="filter11_d_2298_28834" width="8.66" height="4.958" x="64.443" y="47.071" color-interpolation-filters="sRGB" filterUnits="userSpaceOnUse"><feFlood flood-opacity="0" result="BackgroundImageFix"/><feColorMatrix in="SourceAlpha" result="hardAlpha" values="0 0 0 0 0 0 0 0 0 0 0 0 0 0 0 0 0 0 127 0"/><feOffset/><feGaussianBlur stdDeviation=".965"/><feComposite in2="hardAlpha" operator="out"/><feColorMatrix values="0 0 0 0 1 0 0 0 0 0.600195 0 0 0 0 0.777886 0 0 0 1 0"/><feBlend in2="BackgroundImageFix" result="effect1_dropShadow_2298_28834"/><feBlend in="SourceGraphic" in2="effect1_dropShadow_2298_28834" result="shape"/></filter><filter id="filter12_d_2298_28834" width="8.091" height="4.958" x="49.723" y="47.071" color-interpolation-filters="sRGB" filterUnits="userSpaceOnUse"><feFlood flood-opacity="0" result="BackgroundImageFix"/><feColorMatrix in="SourceAlpha" result="hardAlpha" values="0 0 0 0 0 0 0 0 0 0 0 0 0 0 0 0 0 0 127 0"/><feOffset/><feGaussianBlur stdDeviation=".965"/><feComposite in2="hardAlpha" operator="out"/><feColorMatrix values="0 0 0 0 1 0 0 0 0 0.600195 0 0 0 0 0.777886 0 0 0 1 0"/><feBlend in2="BackgroundImageFix" result="effect1_dropShadow_2298_28834"/><feBlend in="SourceGraphic" in2="effect1_dropShadow_2298_28834" result="shape"/></filter><filter id="filter13_d_2298_28834" width="7.087" height="4.958" x="43.072" y="66.364" color-interpolation-filters="sRGB" filterUnits="userSpaceOnUse"><feFlood flood-opacity="0" result="BackgroundImageFix"/><feColorMatrix in="SourceAlpha" result="hardAlpha" values="0 0 0 0 0 0 0 0 0 0 0 0 0 0 0 0 0 0 127 0"/><feOffset/><feGaussianBlur stdDeviation=".965"/><feComposite in2="hardAlpha" operator="out"/><feColorMatrix values="0 0 0 0 1 0 0 0 0 0.600195 0 0 0 0 0.777886 0 0 0 1 0"/><feBlend in2="BackgroundImageFix" result="effect1_dropShadow_2298_28834"/><feBlend in="SourceGraphic" in2="effect1_dropShadow_2298_28834" result="shape"/></filter><filter id="filter14_d_2298_28834" width="5.242" height="4.958" x="47.373" y="66.364" color-interpolation-filters="sRGB" filterUnits="userSpaceOnUse"><feFlood flood-opacity="0" result="BackgroundImageFix"/><feColorMatrix in="SourceAlpha" result="hardAlpha" values="0 0 0 0 0 0 0 0 0 0 0 0 0 0 0 0 0 0 127 0"/><feOffset/><feGaussianBlur stdDeviation=".965"/><feComposite in2="hardAlpha" operator="out"/><feColorMatrix values="0 0 0 0 1 0 0 0 0 0.600195 0 0 0 0 0.777886 0 0 0 1 0"/><feBlend in2="BackgroundImageFix" result="effect1_dropShadow_2298_28834"/><feBlend in="SourceGraphic" in2="effect1_dropShadow_2298_28834" result="shape"/></filter><filter id="filter15_d_2298_28834" width="9.149" height="4.958" x="70.304" y="66.364" color-interpolation-filters="sRGB" filterUnits="userSpaceOnUse"><feFlood flood-opacity="0" result="BackgroundImageFix"/><feColorMatrix in="SourceAlpha" result="hardAlpha" values="0 0 0 0 0 0 0 0 0 0 0 0 0 0 0 0 0 0 127 0"/><feOffset/><feGaussianBlur stdDeviation=".965"/><feComposite in2="hardAlpha" operator="out"/><feColorMatrix values="0 0 0 0 1 0 0 0 0 0.600195 0 0 0 0 0.777886 0 0 0 1 0"/><feBlend in2="BackgroundImageFix" result="effect1_dropShadow_2298_28834"/><feBlend in="SourceGraphic" in2="effect1_dropShadow_2298_28834" result="shape"/></filter><filter id="filter16_d_2298_28834" width="5.656" height="4.958" x="69.616" y="70.223" color-interpolation-filters="sRGB" filterUnits="userSpaceOnUse"><feFlood flood-opacity="0" result="BackgroundImageFix"/><feColorMatrix in="SourceAlpha" result="hardAlpha" values="0 0 0 0 0 0 0 0 0 0 0 0 0 0 0 0 0 0 127 0"/><feOffset/><feGaussianBlur stdDeviation=".965"/><feComposite in2="hardAlpha" operator="out"/><feColorMatrix values="0 0 0 0 1 0 0 0 0 0.600195 0 0 0 0 0.777886 0 0 0 1 0"/><feBlend in2="BackgroundImageFix" result="effect1_dropShadow_2298_28834"/><feBlend in="SourceGraphic" in2="effect1_dropShadow_2298_28834" result="shape"/></filter><filter id="filter17_d_2298_28834" width="8.66" height="4.958" x="55.267" y="70.223" color-interpolation-filters="sRGB" filterUnits="userSpaceOnUse"><feFlood flood-opacity="0" result="BackgroundImageFix"/><feColorMatrix in="SourceAlpha" result="hardAlpha" values="0 0 0 0 0 0 0 0 0 0 0 0 0 0 0 0 0 0 127 0"/><feOffset/><feGaussianBlur stdDeviation=".965"/><feComposite in2="hardAlpha" operator="out"/><feColorMatrix values="0 0 0 0 1 0 0 0 0 0.600195 0 0 0 0 0.777886 0 0 0 1 0"/><feBlend in2="BackgroundImageFix" result="effect1_dropShadow_2298_28834"/><feBlend in="SourceGraphic" in2="effect1_dropShadow_2298_28834" result="shape"/></filter><filter id="filter18_d_2298_28834" width="7.087" height="4.958" x="72.366" y="74.082" color-interpolation-filters="sRGB" filterUnits="userSpaceOnUse"><feFlood flood-opacity="0" result="BackgroundImageFix"/><feColorMatrix in="SourceAlpha" result="hardAlpha" values="0 0 0 0 0 0 0 0 0 0 0 0 0 0 0 0 0 0 127 0"/><feOffset/><feGaussianBlur stdDeviation=".965"/><feComposite in2="hardAlpha" operator="out"/><feColorMatrix values="0 0 0 0 1 0 0 0 0 0.600195 0 0 0 0 0.777886 0 0 0 1 0"/><feBlend in2="BackgroundImageFix" result="effect1_dropShadow_2298_28834"/><feBlend in="SourceGraphic" in2="effect1_dropShadow_2298_28834" result="shape"/></filter><filter id="filter19_d_2298_28834" width="11.102" height="4.958" x="55.279" y="74.082" color-interpolation-filters="sRGB" filterUnits="userSpaceOnUse"><feFlood flood-opacity="0" result="BackgroundImageFix"/><feColorMatrix in="SourceAlpha" result="hardAlpha" values="0 0 0 0 0 0 0 0 0 0 0 0 0 0 0 0 0 0 127 0"/><feOffset/><feGaussianBlur stdDeviation=".965"/><feComposite in2="hardAlpha" operator="out"/><feColorMatrix values="0 0 0 0 1 0 0 0 0 0.600195 0 0 0 0 0.777886 0 0 0 1 0"/><feBlend in2="BackgroundImageFix" result="effect1_dropShadow_2298_28834"/><feBlend in="SourceGraphic" in2="effect1_dropShadow_2298_28834" result="shape"/></filter><filter id="filter20_d_2298_28834" width="5.691" height="4.958" x="74.239" y="62.506" color-interpolation-filters="sRGB" filterUnits="userSpaceOnUse"><feFlood flood-opacity="0" result="BackgroundImageFix"/><feColorMatrix in="SourceAlpha" result="hardAlpha" values="0 0 0 0 0 0 0 0 0 0 0 0 0 0 0 0 0 0 127 0"/><feOffset/><feGaussianBlur stdDeviation=".965"/><feComposite in2="hardAlpha" operator="out"/><feColorMatrix values="0 0 0 0 1 0 0 0 0 0.600195 0 0 0 0 0.777886 0 0 0 1 0"/><feBlend in2="BackgroundImageFix" result="effect1_dropShadow_2298_28834"/><feBlend in="SourceGraphic" in2="effect1_dropShadow_2298_28834" result="shape"/></filter><filter id="filter21_d_2298_28834" width="8.091" height="4.958" x="49.723" y="62.506" color-interpolation-filters="sRGB" filterUnits="userSpaceOnUse"><feFlood flood-opacity="0" result="BackgroundImageFix"/><feColorMatrix in="SourceAlpha" result="hardAlpha" values="0 0 0 0 0 0 0 0 0 0 0 0 0 0 0 0 0 0 127 0"/><feOffset/><feGaussianBlur stdDeviation=".965"/><feComposite in2="hardAlpha" operator="out"/><feColorMatrix values="0 0 0 0 1 0 0 0 0 0.600195 0 0 0 0 0.777886 0 0 0 1 0"/><feBlend in2="BackgroundImageFix" result="effect1_dropShadow_2298_28834"/><feBlend in="SourceGraphic" in2="effect1_dropShadow_2298_28834" result="shape"/></filter><filter id="filter22_d_2298_28834" width="52.431" height="92.543" x="40.933" y="11.207" color-interpolation-filters="sRGB" filterUnits="userSpaceOnUse"><feFlood flood-opacity="0" result="BackgroundImageFix"/><feColorMatrix in="SourceAlpha" result="hardAlpha" values="0 0 0 0 0 0 0 0 0 0 0 0 0 0 0 0 0 0 127 0"/><feOffset/><feGaussianBlur stdDeviation="2.55"/><feComposite in2="hardAlpha" operator="out"/><feColorMatrix values="0 0 0 0 0.717113 0 0 0 0 0.419688 0 0 0 0 0.9875 0 0 0 1 0"/><feBlend in2="BackgroundImageFix" result="effect1_dropShadow_2298_28834"/><feBlend in="SourceGraphic" in2="effect1_dropShadow_2298_28834" result="shape"/></filter><linearGradient id="paint2_linear_2298_28834" x1="47.5" x2="57.264" y1="1" y2="113.535" gradientUnits="userSpaceOnUse"><stop stop-color="#5B79A2"/><stop offset="1" stop-color="#18253C"/></linearGradient><linearGradient id="paint4_linear_2298_28834" x1="68" x2="61.718" y1="114.5" y2="-.325" gradientUnits="userSpaceOnUse"><stop stop-color="#0B0F18"/><stop offset="1" stop-color="#18253C"/></linearGradient><linearGradient id="paint5_linear_2298_28834" x1="67.608" x2="81.818" y1="114.5" y2="4.382" gradientUnits="userSpaceOnUse"><stop stop-color="#172338"/><stop offset="1" stop-color="#7F87D3"/></linearGradient><linearGradient id="paint6_linear_2298_28834" x1="43.189" x2="24.996" y1="61.964" y2="45.205" gradientUnits="userSpaceOnUse"><stop stop-color="#E4B0FC" stop-opacity="0"/><stop offset="0" stop-color="#FAF1FE" stop-opacity="0"/><stop offset="1" stop-color="#E2ACFC"/></linearGradient><linearGradient id="paint7_linear_2298_28834" x1="100.987" x2="108.162" y1="61.37" y2="98.796" gradientUnits="userSpaceOnUse"><stop stop-color="#121C2C"/><stop offset="1" stop-color="#18253A"/></linearGradient><linearGradient id="paint12_linear_2298_28834" x1="71" x2="51.949" y1="91" y2="93.687" gradientUnits="userSpaceOnUse"><stop stop-color="#F9EFFE" stop-opacity="0"/><stop offset=".512" stop-color="#F4E3FD"/><stop offset="1" stop-color="#F9F0FE" stop-opacity="0"/></linearGradient><linearGradient id="paint13_linear_2298_28834" x1="74" x2="48.552" y1="85.5" y2="90.674" gradientUnits="userSpaceOnUse"><stop stop-color="#F9EFFE" stop-opacity="0"/><stop offset=".512" stop-color="#F4E3FD"/><stop offset="1" stop-color="#F9F0FE" stop-opacity="0"/></linearGradient><linearGradient id="paint14_linear_2298_28834" x1="78.397" x2="43.246" y1="83.5" y2="88.239" gradientUnits="userSpaceOnUse"><stop stop-color="#F9EFFE" stop-opacity="0"/><stop offset=".622" stop-color="#F4E3FD"/><stop offset="1" stop-color="#F9F0FE" stop-opacity="0"/></linearGradient><linearGradient id="paint16_linear_2298_28834" x1="20" x2="2.923" y1="65.5" y2="47.887" gradientUnits="userSpaceOnUse"><stop stop-color="#8B60ED"/><stop offset="1" stop-color="#8B60ED" stop-opacity="0"/></linearGradient><linearGradient id="paint19_linear_2298_28834" x1="18.683" x2="18.683" y1="58.683" y2="53.574" gradientUnits="userSpaceOnUse"><stop stop-color="#A987F7"/><stop offset="1" stop-color="#B372BD"/></linearGradient><linearGradient id="paint20_linear_2298_28834" x1="27.531" x2="27.531" y1="88.531" y2="81.761" gradientUnits="userSpaceOnUse"><stop stop-color="#A987F7"/><stop offset="1" stop-color="#B372BD"/></linearGradient><linearGradient id="paint21_linear_2298_28834" x1="-25.227" x2="4.038" y1="22.708" y2="134.632" gradientUnits="userSpaceOnUse"><stop stop-color="#C47EDD"/><stop offset="1" stop-color="#7850D1"/></linearGradient><radialGradient id="paint0_radial_2298_28834" cx="0" cy="0" r="1" gradientTransform="matrix(0 68.5 -68.5 0 60 -14.5)" gradientUnits="userSpaceOnUse"><stop stop-color="#263A5E"/><stop offset="1" stop-color="#0C1321"/></radialGradient><radialGradient id="paint1_radial_2298_28834" cx="0" cy="0" r="1" gradientTransform="matrix(9.00048 111.50032 -235.3136 18.99489 51 -44.5)" gradientUnits="userSpaceOnUse"><stop stop-color="#B071BF"/><stop offset="1" stop-color="#8B60EC" stop-opacity=".01"/></radialGradient><radialGradient id="paint3_radial_2298_28834" cx="0" cy="0" r="1" gradientTransform="rotate(80.259 50.735 -15.567) scale(146.992 206.355)" gradientUnits="userSpaceOnUse"><stop stop-color="#D472EB"/><stop offset="1" stop-color="#8B60EC" stop-opacity=".01"/></radialGradient><radialGradient id="paint8_radial_2298_28834" cx="0" cy="0" r="1" gradientTransform="matrix(6.36893 0 0 17.1939 98.913 52.761)" gradientUnits="userSpaceOnUse"><stop stop-color="#fff"/><stop offset="1" stop-color="#BF67F0"/></radialGradient><radialGradient id="paint9_radial_2298_28834" cx="0" cy="0" r="1" gradientTransform="matrix(6.36893 0 0 17.1939 92.907 63.163)" gradientUnits="userSpaceOnUse"><stop stop-color="#fff"/><stop offset="1" stop-color="#BF67F0"/></radialGradient><radialGradient id="paint10_radial_2298_28834" cx="0" cy="0" r="1" gradientTransform="matrix(0 53 -62.4932 0 61 -6)" gradientUnits="userSpaceOnUse"><stop stop-color="#fff"/><stop offset="1" stop-color="#fff" stop-opacity=".01"/></radialGradient><radialGradient id="paint11_radial_2298_28834" cx="0" cy="0" r="1" gradientTransform="matrix(0 18 -44.2509 0 60 32)" gradientUnits="userSpaceOnUse"><stop stop-color="#E2ACFC"/><stop offset="1" stop-color="#E4B0FC" stop-opacity="0"/></radialGradient><radialGradient id="paint15_radial_2298_28834" cx="0" cy="0" r="1" gradientTransform="matrix(166.535 0 0 343.726 45.973 16)" gradientUnits="userSpaceOnUse"><stop stop-color="#fff"/><stop offset="1" stop-color="#BF67F0"/></radialGradient><radialGradient id="paint17_radial_2298_28834" cx="0" cy="0" r="1" gradientTransform="rotate(15.559 -290.834 231.732) scale(5.61373)" gradientUnits="userSpaceOnUse"><stop stop-color="#BC5AEC"/><stop offset="1" stop-color="#632F7C" stop-opacity=".01"/></radialGradient><radialGradient id="paint18_radial_2298_28834" cx="0" cy="0" r="1" gradientTransform="translate(48.953 84.113) scale(20.7314)" gradientUnits="userSpaceOnUse"><stop stop-color="#fff"/><stop offset="1" stop-color="#BF67F0"/></radialGradient></defs></svg>